<svg xmlns="http://www.w3.org/2000/svg" viewBox="0 0 250 250"><g transform="matrix(0.625,0,0,0.625,0,0)"><g transform="matrix(2,0,0,2,0,0)"><defs><style>.a{fill:#0400BF;}.b{fill:#69D6F9;}.c{fill:#FFC077;}.d{fill:none;stroke:#0400BF;stroke-linecap:round;stroke-linejoin:round;stroke-width:0.698px;}</style></defs><path class="a" d="M194.9,60.4V65.71H120.066V60.4Zm-60.237,2.875a1.241,1.241,0,1,0-1.242,1.242A1.239,1.239,0,0,0,134.667,63.271Zm-4.885,0a1.241,1.241,0,1,0-1.243,1.242A1.24,1.24,0,0,0,129.782,63.271Zm-4.886,0a1.241,1.241,0,1,0-1.242,1.242A1.24,1.24,0,0,0,124.9,63.271Z"></path><path class="b" d="M179.978,171.359H98.318l-10.27-7.272L57.327,142.335l.046-.206a4.589,4.589,0,0,0,1.361.206h77.071a4.575,4.575,0,0,0,2.307-.621Zm-44.47-11.153h21.965l-6.453-4.568-14.332-10.152h-66.3l5.744,4.069,15.041,10.651Zm-17.916,8.362h31.872l-7.946-5.626H109.566l7.946,5.626Z"></path><polygon class="b" points="157.473 160.206 135.508 160.206 135.508 160.077 129.52 155.837 150.881 155.837 151.02 155.638 157.473 160.206"></polygon><polygon class="b" points="100.555 149.555 94.811 145.486 136.688 145.486 151.02 155.638 150.881 155.837 129.52 155.837 135.508 160.077 135.508 160.206 91.168 160.206 76.127 149.555 100.555 149.555"></polygon><polygon class="c" points="149.464 168.568 117.592 168.568 117.512 168.568 109.566 162.942 141.438 162.942 141.518 162.942 149.464 168.568"></polygon><path class="b" d="M140.391,110.317v27.436a4.582,4.582,0,0,1-4.586,4.582H58.734a4.579,4.579,0,0,1-4.582-4.582V82.884A4.584,4.584,0,0,1,58.734,78.3h77.071a4.584,4.584,0,0,1,4.586,4.586Zm-3.49,24.93V85.386a3.6,3.6,0,0,0-3.6-3.6H61.239a3.6,3.6,0,0,0-3.6,3.6v49.861a3.6,3.6,0,0,0,3.6,3.6H133.3a3.6,3.6,0,0,0,3.6-3.6Z"></path><path class="c" d="M136.9,85.386V100.8h-.684v-.259c0-4.4-2.478-6.55-5.507-6.55h-.324a.739.739,0,0,1-.74-.736V92.093a2.834,2.834,0,0,0,1.581-2.54V87.975a2.834,2.834,0,0,0-5.668,0v1.578a2.834,2.834,0,0,0,1.581,2.54v1.166a.74.74,0,0,1-.216.52A.748.748,0,0,1,126.4,94a6.068,6.068,0,0,0-6.264,6.411h-.07V81.788H133.3A3.6,3.6,0,0,1,136.9,85.386Z"></path><path class="a" d="M136.133,137.247l.154.011a3.594,3.594,0,0,1-2.984,1.587H120.066v-.4h.07a6.068,6.068,0,0,1,6.264-6.411.737.737,0,0,0,.74-.736v-1.166a2.833,2.833,0,0,1-1.581-2.54v-1.577a2.834,2.834,0,0,1,5.668,0v1.577a2.833,2.833,0,0,1-1.581,2.54V131.3a.739.739,0,0,0,.74.736h.324C133.415,132.033,135.679,133.75,136.133,137.247Z"></path><path class="a" d="M136.217,119.39v.373H120.066v-.513h.07a6.068,6.068,0,0,1,6.264-6.41.744.744,0,0,0,.524-.217.736.736,0,0,0,.216-.52v-1.165a2.834,2.834,0,0,1-1.581-2.541V106.82a2.834,2.834,0,0,1,5.668,0V108.4a2.834,2.834,0,0,1-1.581,2.541V112.1a.74.74,0,0,0,.74.737h.324C133.739,112.84,136.217,114.993,136.217,119.39Z"></path><path class="a" d="M136.217,100.545v.259H120.066v-.4h.07A6.068,6.068,0,0,1,126.4,94a.748.748,0,0,0,.524-.216.74.74,0,0,0,.216-.52V92.093a2.834,2.834,0,0,1-1.581-2.54V87.975a2.834,2.834,0,0,1,5.668,0v1.578a2.834,2.834,0,0,1-1.581,2.54v1.166a.739.739,0,0,0,.74.736h.324C133.739,94,136.217,96.148,136.217,100.545Z"></path><path class="c" d="M128.539,62.032a1.241,1.241,0,1,1-1.238,1.239A1.24,1.24,0,0,1,128.539,62.032Z"></path><path class="b" d="M123.654,62.032a1.241,1.241,0,1,1-1.239,1.239A1.24,1.24,0,0,1,123.654,62.032Z"></path><path class="a" d="M107.66,25.149v5.315H4.9V25.149ZM19.505,28.025a1.241,1.241,0,1,0-1.242,1.242A1.24,1.24,0,0,0,19.505,28.025Zm-4.885,0a1.241,1.241,0,1,0-1.243,1.242A1.24,1.24,0,0,0,14.62,28.025Zm-4.886,0a1.241,1.241,0,1,0-1.242,1.242A1.24,1.24,0,0,0,9.734,28.025Z"></path><path class="c" d="M104.118,101.812v2.439l-2.415-1.2A2.586,2.586,0,0,1,104.118,101.812Z"></path><polygon class="b" points="94.811 145.486 100.555 149.555 76.127 149.555 70.383 145.486 94.811 145.486"></polygon><path class="a" d="M83.923,52.167a.777.777,0,0,1,.115,1.155l-2.2,2.324-2.275,2.4-4.278,4.523-.252.035a1.519,1.519,0,0,0-.335-.276,1.864,1.864,0,0,0-.91-.286v-.007L79.6,55.81l3.3-3.542a.774.774,0,0,1,.569-.248A.782.782,0,0,1,83.923,52.167Z"></path><path class="c" d="M78.974,91.723,81.6,93.032c-.513,1.595-2.628,1.071-2.628,1.071Z"></path><path class="c" d="M77.812,43.76V46.2L75.4,45A2.586,2.586,0,0,1,77.812,43.76Z"></path><path class="c" d="M76.123,66.251c.377,1.044-.785,2.1-.785,2.1-.89-.611-2.722.223-3.249,1.221-1.6-.216-1.56-1.05-1-1.835a4.984,4.984,0,0,1,1.406-1.274C73.747,65.71,75.746,65.208,76.123,66.251Z"></path><path class="c" d="M74.867,64.384c1.424.807,1.256,1.867,1.256,1.867-.377-1.043-2.376-.541-3.629.21a4.984,4.984,0,0,0-1.406,1.274l-.182-.123a2.236,2.236,0,0,1-.433-.066c-1.179-.293-.478-1.361-.429-1.438l0,0a7.859,7.859,0,0,0,1.769-.946,1.587,1.587,0,0,0,.394-.443l.115.017S73.914,63.843,74.867,64.384Z"></path><path class="c" d="M72.089,69.57c.527-1,2.359-1.832,3.249-1.221s.387,2.275-1.72,4.662a5.589,5.589,0,0,1-4.289,2.2l-1.5,3.047V78.3H60.109V78.26l3.221-6.823,2.99-5.7a1.96,1.96,0,0,1,.8-.729,13.419,13.419,0,0,1,4.219-1.431,1.438,1.438,0,0,1,.475.049.724.724,0,0,1,.394,1.089,1.587,1.587,0,0,1-.394.443,7.859,7.859,0,0,1-1.769.946l0,0c-.192.077-.373.15-.534.21l.028.076-4.983,5.27a.774.774,0,0,0,.115,1.152.786.786,0,0,0,.457.146.777.777,0,0,0,.569-.248l4.652-4.92.125-.248a2.236,2.236,0,0,0,.433.066l.181.123C70.529,68.52,70.491,69.354,72.089,69.57Z"></path><path class="c" d="M75.034,62.608c.653.754-.167,1.776-.167,1.776-.953-.541-2.541.349-2.541.349l-.115-.017a.724.724,0,0,0-.394-1.089,1.438,1.438,0,0,0-.475-.049v0a3.011,3.011,0,0,1,2.447-1.529,1.864,1.864,0,0,1,.91.286A1.519,1.519,0,0,1,75.034,62.608Z"></path><path class="a" d="M74.7,138.444v.4H61.239a3.584,3.584,0,0,1-2.966-1.563l.052-.035c.454-3.5,2.719-5.214,5.42-5.214h.328a.736.736,0,0,0,.736-.736v-1.166a2.829,2.829,0,0,1-1.577-2.54v-1.577a2.834,2.834,0,1,1,5.667,0v1.577a2.832,2.832,0,0,1-1.58,2.54V131.3a.737.737,0,0,0,.736.736,6.069,6.069,0,0,1,6.268,6.411Z"></path><path class="c" d="M74.7,119.763v18.681h-.376a6.069,6.069,0,0,0-6.268-6.411.737.737,0,0,1-.736-.736v-1.166a2.832,2.832,0,0,0,1.58-2.54v-1.577a2.834,2.834,0,0,0-5.667,0v1.577a2.829,2.829,0,0,0,1.577,2.54V131.3a.736.736,0,0,1-.736.736h-.328c-2.7,0-4.966,1.717-5.42,5.214l-.052.035a3.574,3.574,0,0,1-.632-2.035V119.763H74.7Z"></path><path class="a" d="M74.7,119.25v.513H58.242v-.373c0-4.4,2.477-6.55,5.5-6.55h.328a.737.737,0,0,0,.736-.737v-1.165a2.831,2.831,0,0,1-1.577-2.541V106.82a2.834,2.834,0,1,1,5.667,0V108.4a2.834,2.834,0,0,1-1.58,2.541V112.1a.739.739,0,0,0,.736.737,6.069,6.069,0,0,1,6.268,6.41Z"></path><path class="a" d="M74.7,100.406v.4H58.242v-.259c0-4.4,2.477-6.55,5.5-6.55h.328a.737.737,0,0,0,.736-.736V92.093a2.831,2.831,0,0,1-1.577-2.54V87.975a2.834,2.834,0,1,1,5.667,0v1.578a2.833,2.833,0,0,1-1.58,2.54v1.166a.737.737,0,0,0,.736.736,6.069,6.069,0,0,1,6.268,6.411Z"></path><path class="a" d="M70.473,67.546l-.125.248L65.7,72.714a.777.777,0,0,1-.569.248.786.786,0,0,1-.457-.146.774.774,0,0,1-.115-1.152l4.983-5.27-.028-.076c.161-.06.342-.133.534-.21C70,66.185,69.294,67.253,70.473,67.546Z"></path><path class="c" d="M52.669,33.671,55.3,34.98c-.509,1.594-2.627,1.071-2.627,1.071Z"></path><path class="c" d="M54.152,84.82V96.009H49.427v-.116l-3.221-3.8a12.4,12.4,0,0,0,1.008-4.725c0-1.888-1.242-4.244-2.314-5.929L49.427,78.3Z"></path><path class="b" d="M43.958,30.464V69.731l-.049.1a8.908,8.908,0,0,0-2.076-.645l.031-.157V30.464Z"></path><path class="a" d="M36.661,60.5c.569,1.134-.063,2.782-1.263,2.932a2.149,2.149,0,0,1-1.246-.2,8.545,8.545,0,0,0,1.12-2.387c.147-.353.387-.737.621-1.225A2.146,2.146,0,0,1,36.661,60.5Z"></path><path class="c" d="M32.672,67.818l3.856,1.215s-2.121,2.345-7.841,2.652a18.613,18.613,0,0,1-10.208-2.652l4.858-2.007L20.186,63.76c.021,0-.415-3.48-.394-3.483.6-.077,4.826,3.675,5.171,3.179l.936.216a11.558,11.558,0,0,0,2.98,1.466l.035.011c.307.115,2.617.963,3.667,1.284H32.6l.01.192Z"></path><path class="c" d="M34.061,60.057a2.22,2.22,0,0,1-.352.206s-1.2-.262-1.641-.3c-.352-.031-2.348.067-3.116.112-.188.007-.3.014-.3.014v0a15.065,15.065,0,0,0,1.577,1.18,2.379,2.379,0,0,0,2.08.363A8.278,8.278,0,0,0,34.061,60.057Zm-15.138-4.92c.547-.6,1.308-.269,1.8.066a2.8,2.8,0,0,0,1.742.53c3.287-.216,3.981-5.126,4.187-6.871,0,0,4.506.488,5.961,1.207.139.07.279.147.415.224a6.524,6.524,0,0,1,2.953,3.779l-.035.1c-.091.262-.171.436-.171.436a5.383,5.383,0,0,1,.46,2.956,8.266,8.266,0,0,1-.694,2.153c-.311.66-.639,1.176-.834,1.651a11.548,11.548,0,0,1-1.508,3.21,2.574,2.574,0,0,1-.694.58,2.29,2.29,0,0,1-.81.275,6.32,6.32,0,0,1-2.335-.164c-.146-.035-.3-.073-.443-.118l-.035-.011a11.589,11.589,0,0,1-2.98-1.466l-1.633-.216a2.478,2.478,0,0,0,.234-2.8c-.6-.942-1.033-1.319-2.555-.645a2.105,2.105,0,0,0-.872.848l-.105.474c-1.022-.589-3.3-3.667-2.324-5.761A1.572,1.572,0,0,1,18.923,55.137Z"></path><path class="a" d="M26.645,48.844a.03.03,0,0,1,0,.018c-.216,1.874-1.005,7.388-4.945,6.84a1.56,1.56,0,0,1-.757-.332c-.454-.363-1.382-.942-2.024-.233a1.674,1.674,0,0,0-.28.436c-.977,2.094.859,3.811,1.881,4.4l.824.566a2.134,2.134,0,0,0-.056,2.059c.429,1.211,1.413,1.074,2.164,1.092l-.119,3.336-4.858,2.007A22.223,22.223,0,0,0,12.362,71c-1.811-5.032,4.149-13.341,5.807-18.23.174-.51-.039-4.244,2.694-7.325a11.643,11.643,0,0,1,4.742-2.293q.3-.078.576-.139a8.653,8.653,0,0,1,9.245,4.456c2.338,4.764.551,6.6.551,6.6a6.522,6.522,0,0,0-2.952-3.779,10.086,10.086,0,0,0-4.279-2.077C26.6,47.867,26.631,48.722,26.645,48.844Z"></path><path class="a" d="M33.025,50.293c-.136-.077-.276-.154-.416-.224-1.455-.719-5.96-1.207-5.96-1.207a.03.03,0,0,0,0-.018c-.014-.122-.045-.977,2.1-.628A10.086,10.086,0,0,1,33.025,50.293Z"></path><path class="a" d="M32.533,65.211l.066,1.222h-.018c-1.05-.321-3.36-1.169-3.667-1.284.146.045.3.083.443.118a6.318,6.318,0,0,0,2.335.164,2.284,2.284,0,0,0,.809-.275Z"></path><path class="b" d="M23.267,63.519A1.935,1.935,0,0,1,21.18,62.14a1.865,1.865,0,0,1,.168-1.6,1.3,1.3,0,0,1,.6-.527,1.775,1.775,0,0,1,2.526.816,2.1,2.1,0,0,1-.174,2.056,1.417,1.417,0,0,1-.984.631C23.3,63.515,23.285,63.519,23.267,63.519Z"></path><polygon class="c" points="18.479 86.087 18.172 96.009 8.038 96.009 8.038 85.672 18.479 86.087"></polygon><path class="c" d="M13.377,26.786a1.241,1.241,0,1,1-1.239,1.239A1.24,1.24,0,0,1,13.377,26.786Z"></path><path class="b" d="M8.492,26.786a1.241,1.241,0,1,1-1.239,1.239A1.24,1.24,0,0,1,8.492,26.786Z"></path><path class="d" d="M138.112,141.714a4.575,4.575,0,0,1-2.307.621H58.734a4.579,4.579,0,0,1-4.582-4.582V82.884A4.584,4.584,0,0,1,58.734,78.3h77.071a4.584,4.584,0,0,1,4.586,4.586v54.869A4.581,4.581,0,0,1,138.112,141.714Z"></path><path class="d" d="M74.7,138.845H61.239a3.6,3.6,0,0,1-3.6-3.6V85.386a3.6,3.6,0,0,1,3.6-3.6H133.3a3.6,3.6,0,0,1,3.6,3.6v49.861a3.6,3.6,0,0,1-3.6,3.6H74.7Z"></path><line class="d" x1="92.755" y1="80.336" x2="98.698" y2="80.336"></line><polyline class="d" points="74.699 81.788 74.699 100.406 74.699 100.804 74.699 119.25 74.699 119.763 74.699 138.444 74.699 138.845"></polyline><polyline class="d" points="120.066 81.788 120.066 100.406 120.066 100.804 120.066 119.25 120.066 119.763 120.066 138.444 120.066 138.845"></polyline><polyline class="d" points="57.641 100.804 58.242 100.804 74.699 100.804"></polyline><polyline class="d" points="57.641 119.763 58.242 119.763 74.699 119.763"></polyline><path class="d" d="M74.323,100.406A6.069,6.069,0,0,0,68.055,94a.737.737,0,0,1-.736-.736V92.093a2.833,2.833,0,0,0,1.58-2.54V87.975a2.834,2.834,0,0,0-5.667,0v1.578a2.831,2.831,0,0,0,1.577,2.54v1.166a.737.737,0,0,1-.736.736h-.328c-3.026,0-5.5,2.153-5.5,6.55"></path><path class="d" d="M74.323,119.25a6.069,6.069,0,0,0-6.268-6.41.739.739,0,0,1-.736-.737v-1.165A2.834,2.834,0,0,0,68.9,108.4V106.82a2.834,2.834,0,0,0-5.667,0V108.4a2.831,2.831,0,0,0,1.577,2.541V112.1a.737.737,0,0,1-.736.737h-.328c-3.026,0-5.5,2.153-5.5,6.55"></path><path class="d" d="M74.323,138.444a6.069,6.069,0,0,0-6.268-6.411.737.737,0,0,1-.736-.736v-1.166a2.832,2.832,0,0,0,1.58-2.54v-1.577a2.834,2.834,0,0,0-5.667,0v1.577a2.829,2.829,0,0,0,1.577,2.54V131.3a.736.736,0,0,1-.736.736h-.328c-2.7,0-4.966,1.717-5.42,5.214"></path><polyline class="d" points="136.901 100.804 136.217 100.804 120.108 100.804"></polyline><polyline class="d" points="136.901 119.763 136.217 119.763 120.108 119.763"></polyline><path class="d" d="M120.136,100.406A6.068,6.068,0,0,1,126.4,94a.748.748,0,0,0,.524-.216.74.74,0,0,0,.216-.52V92.093a2.834,2.834,0,0,1-1.581-2.54V87.975a2.834,2.834,0,0,1,5.668,0v1.578a2.834,2.834,0,0,1-1.581,2.54v1.166a.739.739,0,0,0,.74.736h.324c3.029,0,5.507,2.153,5.507,6.55"></path><path class="d" d="M120.136,119.25a6.068,6.068,0,0,1,6.264-6.41.744.744,0,0,0,.524-.217.736.736,0,0,0,.216-.52v-1.165a2.834,2.834,0,0,1-1.581-2.541V106.82a2.834,2.834,0,0,1,5.668,0V108.4a2.834,2.834,0,0,1-1.581,2.541V112.1a.74.74,0,0,0,.74.737h.324c3.029,0,5.507,2.153,5.507,6.55"></path><path class="d" d="M120.136,138.444a6.068,6.068,0,0,1,6.264-6.411.737.737,0,0,0,.74-.736v-1.166a2.833,2.833,0,0,1-1.581-2.54v-1.577a2.834,2.834,0,0,1,5.668,0v1.577a2.833,2.833,0,0,1-1.581,2.54V131.3a.739.739,0,0,0,.74.736h.324c2.7,0,4.969,1.717,5.423,5.214"></path><polyline class="d" points="120.066 78.298 120.066 65.71 120.066 60.396 194.904 60.396 194.904 65.71 194.904 110.317 140.391 110.317"></polyline><line class="d" x1="120.066" y1="65.71" x2="194.904" y2="65.71"></line><path class="d" d="M124.9,63.271a1.241,1.241,0,1,1-1.242-1.239A1.24,1.24,0,0,1,124.9,63.271Z"></path><path class="d" d="M129.782,63.271a1.241,1.241,0,1,1-1.243-1.239A1.24,1.24,0,0,1,129.782,63.271Z"></path><path class="d" d="M134.667,63.271a1.241,1.241,0,1,1-1.242-1.239A1.239,1.239,0,0,1,134.667,63.271Z"></path><polyline class="d" points="54.152 96.009 49.427 96.009 43.958 96.009 18.172 96.009 8.038 96.009 4.904 96.009 4.904 30.464 4.904 25.149 107.66 25.149 107.66 30.464 107.66 78.298"></polyline><polyline class="d" points="4.904 30.464 41.864 30.464 43.958 30.464 107.66 30.464"></polyline><path class="d" d="M9.734,28.025a1.241,1.241,0,1,1-1.242-1.239A1.241,1.241,0,0,1,9.734,28.025Z"></path><path class="d" d="M14.62,28.025a1.241,1.241,0,1,1-1.243-1.239A1.241,1.241,0,0,1,14.62,28.025Z"></path><path class="d" d="M19.505,28.025a1.241,1.241,0,1,1-1.242-1.239A1.241,1.241,0,0,1,19.505,28.025Z"></path><path class="d" d="M88.048,164.087,57.327,142.335v1.2a5.1,5.1,0,0,0,2.157,4.167l36.5,25.845a9.029,9.029,0,0,0,5.2,1.654h75.113a3.684,3.684,0,0,0,3.686-3.685v-.154"></path><polyline class="d" points="138.112 141.714 179.978 171.359 98.318 171.359"></polyline><line class="d" x1="131.851" y1="74.756" x2="183.116" y2="74.756"></line><line class="d" x1="140.925" y1="86.272" x2="183.116" y2="86.272"></line><line class="d" x1="140.925" y1="97.788" x2="183.116" y2="97.788"></line><line class="d" x1="34.759" y1="127.696" x2="51.733" y2="127.696"></line><line class="d" x1="142.942" y1="127.696" x2="166.895" y2="127.696"></line><polyline class="d" points="88.048 164.087 98.318 171.359 98.318 174.643"></polyline><polyline class="d" points="117.512 168.568 109.566 162.942 141.438 162.942"></polyline><polyline class="d" points="141.518 162.942 149.464 168.568 117.592 168.568"></polyline><polyline class="d" points="157.473 160.206 135.508 160.206 91.168 160.206 76.127 149.555 70.383 145.486 94.811 145.486 136.688 145.486 151.02 155.638 157.473 160.206"></polyline><polyline class="d" points="76.127 149.555 100.555 149.555 133.432 149.555"></polyline><polyline class="d" points="93.576 155.837 129.52 155.837 150.881 155.837"></polyline><polyline class="d" points="94.811 145.486 100.555 149.555 106.543 153.796"></polyline><polyline class="d" points="123.776 151.768 129.52 155.837 135.508 160.077"></polyline><path class="d" d="M105.57,115.4a7.253,7.253,0,0,1,7.252,7.255.405.405,0,0,1,0,.07,7.248,7.248,0,0,1-14.5,0,.405.405,0,0,1,0-.07A7.253,7.253,0,0,1,105.57,115.4Z"></path><polyline class="d" points="105.57 110.802 105.57 115.401 105.57 122.726 105.57 129.908 105.57 133.953"></polyline><polyline class="d" points="117.145 122.726 112.818 122.726 105.57 122.726 98.322 122.726 93.994 122.726"></polyline><path class="d" d="M79.17,55.677a7.252,7.252,0,0,1,14.5,0,.611.611,0,0,1,0,.074,7.253,7.253,0,0,1-14.106,2.3"></path><polyline class="d" points="86.422 43.826 86.422 48.426 86.422 55.751 86.422 62.929 86.422 66.977"></polyline><polyline class="d" points="79.529 55.751 79.17 55.751 74.846 55.751"></polyline><polyline class="d" points="97.997 55.751 93.67 55.751 86.422 55.751 81.951 55.751"></polyline><polygon class="d" points="78.974 94.103 78.974 98.79 90.452 97.443 104.118 95.838 104.118 101.812 104.118 104.251 101.703 103.047 90.452 97.443 81.602 93.032 78.974 91.723 78.974 94.103"></polygon><path class="d" d="M78.974,94.1s2.115.524,2.628-1.071"></path><path class="d" d="M101.7,103.047a2.586,2.586,0,0,1,2.415-1.235"></path><polygon class="d" points="52.669 36.051 52.669 40.741 64.15 39.391 77.812 37.785 77.812 43.76 77.812 46.199 75.397 44.995 64.15 39.391 55.296 34.98 52.669 33.671 52.669 36.051"></polygon><path class="d" d="M52.669,36.051s2.118.523,2.627-1.071"></path><path class="d" d="M75.4,45a2.586,2.586,0,0,1,2.415-1.235"></path><polygon class="d" points="93.98 119.31 85.472 119.31 85.472 115.82 85.472 110.802 90.491 110.802 93.98 110.802 93.98 119.31"></polygon><polygon class="d" points="90.491 115.82 85.472 115.82 81.983 115.82 81.983 107.312 90.491 107.312 90.491 110.802 90.491 115.82"></polygon><line class="d" x1="81.983" y1="107.312" x2="85.472" y2="110.802"></line><line class="d" x1="90.491" y1="107.312" x2="93.98" y2="110.802"></line><line class="d" x1="90.491" y1="115.82" x2="93.98" y2="119.31"></line><line class="d" x1="81.983" y1="115.82" x2="85.472" y2="119.31"></line><polygon class="d" points="62.579 64.451 54.071 64.451 54.071 60.961 54.071 55.943 59.09 55.943 62.579 55.943 62.579 64.451"></polygon><polygon class="d" points="59.09 60.961 54.071 60.961 50.582 60.961 50.582 52.453 59.09 52.453 59.09 55.943 59.09 60.961"></polygon><line class="d" x1="50.582" y1="52.453" x2="54.071" y2="55.943"></line><line class="d" x1="59.09" y1="52.453" x2="62.579" y2="55.943"></line><line class="d" x1="59.09" y1="60.961" x2="62.579" y2="64.451"></line><line class="d" x1="50.582" y1="60.961" x2="54.071" y2="64.451"></line><path class="d" d="M81.634,130.194s-1.428.58-1.5,1.592,1.232,1.015,1.811.436a7.623,7.623,0,0,0-.216-2.052,3.147,3.147,0,0,0-.255-.667c-.541-1.012-1.448-.869-1.773-.181"></path><path class="d" d="M109.245,88.3s-1.428.579-1.5,1.595,1.232,1.016,1.811.436a7.641,7.641,0,0,0-.216-2.055,3.013,3.013,0,0,0-.255-.663c-.541-1.016-1.448-.869-1.773-.182"></path><line class="d" x1="83.727" y1="129.908" x2="85.472" y2="129.908"></line><line class="d" x1="83.727" y1="131.304" x2="85.472" y2="131.304"></line><path class="d" d="M87.1,129.472c.087-1.1,2.712-1.12,2.206.785-.346,1.295-2.154,2.356-2.154,2.356h2.96"></path><path class="d" d="M99.17,87.521c.09-1.095,2.715-1.12,2.2.782-.345,1.3-2.15,2.359-2.15,2.359h2.956"></path><path class="d" d="M93.122,86.112c.059-.737,1.822-.751,1.48.527-.231.865-1.442,1.58-1.442,1.58h1.982"></path><path class="d" d="M92.04,131.974c1.2,1.389,3.033.513,2.411-.9S92.152,130.672,92.04,131.974Z"></path><path class="d" d="M93.143,128.139c-.719.764-2.3,2.443-1.1,3.835"></path><polyline class="d" points="104.526 87.235 104.526 88.349 104.526 89.462"></polyline><polyline class="d" points="103.284 88.349 104.526 88.349 105.678 88.349"></polyline><path class="d" d="M98.185,85.574c-1.029.314-1.884,2.272-1.563,3.65A3.436,3.436,0,0,0,98.7,91.9"></path><path class="d" d="M110.33,85.574c1.029.314,1.884,2.272,1.563,3.65a3.442,3.442,0,0,1-2.076,2.674"></path><line class="d" x1="41.864" y1="30.464" x2="41.864" y2="69.033"></line><line class="d" x1="43.958" y1="30.464" x2="43.958" y2="69.731"></line><path class="d" d="M18.479,84.321v1.766L8.038,85.672,6.89,85.627s.077-8.139,2.226-11.82A7.931,7.931,0,0,1,12.362,71a22.223,22.223,0,0,1,6.117-1.971,18.613,18.613,0,0,0,10.208,2.652c5.72-.307,7.841-2.652,7.841-2.652a18.845,18.845,0,0,1,5.305.157,8.908,8.908,0,0,1,2.076.645,5.156,5.156,0,0,1,1.379.908,37.329,37.329,0,0,1,5.2,6.815l-1.064.74L44.9,81.439"></path><line class="d" x1="8.038" y1="85.672" x2="8.038" y2="96.009"></line><line class="d" x1="18.479" y1="86.087" x2="18.172" y2="96.009"></line><path class="d" d="M43.361,79.261s.719.894,1.539,2.178c1.072,1.685,2.311,4.041,2.314,5.929a12.4,12.4,0,0,1-1.008,4.725,15.612,15.612,0,0,1-2.248,3.8"></path><path class="d" d="M35.436,85.672s.265,4.948-1.581,7.171"></path><path class="d" d="M34.77,55.458a3.175,3.175,0,0,0-1-.252,1.837,1.837,0,0,0-.974.06"></path><path class="d" d="M27.431,55.1a8.982,8.982,0,0,1,1.186-.21,1.848,1.848,0,0,1,.974.074"></path><path class="d" d="M32.341,54.124a2.074,2.074,0,0,0,.017,1.812c.206.691.866,1.427.75,2.08s-1.319.914-2.024.722"></path><path class="d" d="M28.879,65.138a11.558,11.558,0,0,1-2.98-1.466"></path><path class="d" d="M35.537,59.715c-.31.66-.638,1.176-.834,1.651a11.574,11.574,0,0,1-1.507,3.21,2.578,2.578,0,0,1-.7.58,2.284,2.284,0,0,1-.809.275,6.318,6.318,0,0,1-2.335-.164c-.147-.035-.3-.073-.443-.118"></path><path class="d" d="M35.942,54.17c-.091.262-.171.436-.171.436a5.379,5.379,0,0,1,.461,2.956,8.3,8.3,0,0,1-.7,2.153"></path><path class="d" d="M26.551,53.849a4.822,4.822,0,0,1,2.946-.716c1.13.192,1.193.583,1.2.6"></path><path class="d" d="M35.572,53.245a3.2,3.2,0,0,0-.991.059,9.3,9.3,0,0,0-1.427.391"></path><path class="d" d="M34.065,60.054l0,0a2.22,2.22,0,0,1-.352.206,4.1,4.1,0,0,1-1.525.318,14.814,14.814,0,0,1-3.232-.5c-.227-.056-.384-.1-.436-.112"></path><path class="d" d="M28.5,59.963s.059.049.154.132a15.065,15.065,0,0,0,1.577,1.18,2.379,2.379,0,0,0,2.08.363,8.278,8.278,0,0,0,1.755-1.581"></path><polyline class="d" points="32.533 65.211 32.599 66.433 32.609 66.625 32.672 67.818"></polyline><line class="d" x1="36.528" y1="69.033" x2="32.672" y2="67.818"></line><polyline class="d" points="23.456 63.69 23.337 67.026 18.479 69.033"></polyline><path class="d" d="M21.215,55.608s-1.413-1.438-2.292-.471a1.674,1.674,0,0,0-.28.436c-.977,2.094,1.11,4.393,2.7,4.966"></path><path class="d" d="M18.923,55.137l0,.006"></path><path class="d" d="M24.3,62.884a2.08,2.08,0,0,0,.174-2.056,1.78,1.78,0,0,0-2.526-.816,1.338,1.338,0,0,0-.6.527,1.865,1.865,0,0,0-.168,1.6,1.945,1.945,0,0,0,2.087,1.379c.014,0,.028,0,.042,0A1.425,1.425,0,0,0,24.3,62.884Z"></path><path class="d" d="M34.148,63.233a2.124,2.124,0,0,0,1.246.2c1.2-.15,1.832-1.8,1.264-2.932a2.111,2.111,0,0,0-.772-.879"></path><path class="d" d="M28.649,60.092s.115-.007.3-.014c.768-.045,2.764-.143,3.116-.112.437.035,1.641.3,1.641.3"></path><path class="d" d="M28.879,65.138l.035.011c.307.115,2.617.963,3.667,1.284"></path><path class="d" d="M26.645,48.844c-.014-.122-.045-.977,2.1-.628a10.086,10.086,0,0,1,4.279,2.077l.01.01"></path><path class="d" d="M22.426,45.822s3.727-.213,4.219,3.022a.03.03,0,0,1,0,.018"></path><path class="d" d="M21.3,55.587c4.6,1.734,5.119-4.778,5.346-6.725,0,0,4.5.488,5.96,1.207.14.07.28.147.416.224a6.522,6.522,0,0,1,2.952,3.779s1.787-1.835-.551-6.6a8.653,8.653,0,0,0-9.245-4.456q-.278.061-.576.139a11.643,11.643,0,0,0-4.742,2.293c-2.733,3.081-2.52,6.815-2.694,7.325-1.658,4.889-7.618,13.2-5.807,18.23"></path><path class="d" d="M70.048,66.105a7.859,7.859,0,0,0,1.769-.946,1.587,1.587,0,0,0,.394-.443.724.724,0,0,0-.394-1.089,1.438,1.438,0,0,0-.475-.049,13.419,13.419,0,0,0-4.219,1.431,1.951,1.951,0,0,0-.8.729l-2.991,5.7L60.109,78.26"></path><path class="d" d="M68.844,66.559s.275-.091.666-.241c.161-.06.342-.133.534-.21"></path><line class="d" x1="49.427" y1="78.298" x2="54.152" y2="84.82"></line><line class="d" x1="46.206" y1="92.093" x2="49.427" y2="95.893"></line><path class="d" d="M67.828,78.26l1.5-3.047a5.589,5.589,0,0,0,4.289-2.2c2.107-2.387,2.606-4.052,1.72-4.662s-2.722.223-3.249,1.221-.122,2.359,2.436.447"></path><path class="d" d="M75.338,68.349s1.162-1.054.785-2.1-2.376-.541-3.629.21a4.984,4.984,0,0,0-1.406,1.274c-.559.785-.6,1.619,1,1.835"></path><path class="d" d="M76.123,66.251s.168-1.06-1.256-1.867c-.953-.541-2.541.349-2.541.349"></path><path class="d" d="M70.048,66.105l0,0c-.049.077-.75,1.145.429,1.438a2.236,2.236,0,0,0,.433.066"></path><path class="d" d="M75.286,62.573l4.278-4.523,2.275-2.4,2.2-2.324A.777.777,0,0,0,82.9,52.268L79.6,55.81l-5.807,6.229"></path><path class="d" d="M69.538,66.394l-4.983,5.27a.774.774,0,0,0,.115,1.152.786.786,0,0,0,.457.146.777.777,0,0,0,.569-.248l4.652-4.92"></path><path class="d" d="M74.867,64.384s.82-1.022.167-1.776a1.519,1.519,0,0,0-.335-.276,1.864,1.864,0,0,0-.91-.286,3.011,3.011,0,0,0-2.447,1.529"></path></g></g></svg>