<svg width="238" height="170" viewBox="0 0 238 170" fill="none" xmlns="http://www.w3.org/2000/svg">
<path d="M97.7164 39.0301C95.6914 38.7676 77.7164 38.7676 74.4914 39.0301C74.4362 39.0421 74.3875 39.0746 74.355 39.1209C74.3226 39.1672 74.3088 39.224 74.3164 39.2801C74.3279 39.3219 74.35 39.3601 74.3807 39.3908C74.4114 39.4214 74.4496 39.4436 74.4914 39.4551C77.3914 39.7051 95.6539 39.8176 97.6539 39.5551C97.9414 39.5301 98.0289 39.0676 97.7164 39.0301ZM182.154 70.3051C181.904 70.3051 178.691 71.4426 179.541 71.9051L180.441 72.6551C180.241 73.1051 182.204 75.1551 180.854 79.9801C180.291 79.5926 180.279 79.9801 180.354 80.1051C182.441 82.2551 197.354 94.1926 200.679 96.3551C200.979 96.7926 202.879 95.8551 203.179 95.7551C209.783 92.9394 216.23 89.7681 222.491 86.2551C224.779 85.0051 224.754 80.5176 221.979 78.7551C219.06 76.814 216.02 75.0604 212.879 73.5051L216.754 70.4676C217.029 70.2551 216.879 69.4676 215.829 70.3176C213.568 66.6641 212.653 62.3361 213.241 58.0801C213.391 57.9926 215.066 56.9926 214.329 56.6676C210.579 55.1051 198.154 50.5426 194.329 50.3051C193.079 50.2176 183.079 58.2176 182.141 59.8301C180.141 63.1676 180.754 66.9801 182.216 70.3426L182.154 70.3051ZM181.154 80.1676C182.404 78.8051 182.016 75.0676 181.416 73.4176C183.129 74.7926 196.891 85.1676 201.266 87.9426C203.629 92.9426 200.991 95.3676 201.079 95.7426C193.754 90.6551 187.791 84.8426 181.154 80.1676V80.1676ZM221.891 79.6051C223.979 80.6801 223.504 85.1551 222.004 85.6801C215.204 89.3176 208.479 92.5926 201.454 95.6801C202.377 94.4352 202.88 92.9295 202.891 91.3801L212.516 87.4301C212.691 87.3426 212.516 87.1051 212.379 87.1426C209.147 88.2229 205.983 89.496 202.904 90.9551C202.88 89.7401 202.502 88.5586 201.816 87.5551C204.754 86.3926 219.766 78.6051 221.891 79.6051V79.6051ZM201.054 66.9051C204.732 63.8598 208.58 61.0261 212.579 58.4176C212.287 59.9375 212.232 61.4934 212.416 63.0301C211.804 63.2301 204.229 68.7801 203.841 69.0801C203.679 69.2051 203.841 69.4676 204.041 69.3676L212.504 63.6176C212.766 65.3801 213.829 69.3926 215.466 70.4801C213.804 71.8301 205.579 78.3426 203.579 78.3426C202.079 76.8961 201.042 75.0379 200.597 73.0024C200.152 70.967 200.32 68.8453 201.079 66.9051H201.054ZM199.416 56.1176C200.291 56.8676 196.666 58.9801 196.529 59.0176C196.116 59.1426 195.841 58.7176 196.729 57.8676C197.179 57.4801 198.829 55.6551 199.416 56.1301V56.1176ZM192.604 58.2051C193.229 56.9551 195.829 54.8801 196.929 54.1301C196.983 54.0923 197.044 54.0656 197.109 54.0515C197.173 54.0373 197.24 54.036 197.305 54.0476C197.37 54.0592 197.432 54.0835 197.487 54.1191C197.543 54.1547 197.591 54.2009 197.629 54.2551C197.667 54.3092 197.693 54.3703 197.708 54.4348C197.722 54.4993 197.723 54.566 197.711 54.631C197.7 54.696 197.675 54.7581 197.64 54.8137C197.604 54.8693 197.558 54.9173 197.504 54.9551C196.529 55.7051 193.879 58.1926 193.141 58.7051C193.086 58.7357 193.024 58.7518 192.96 58.7518C192.897 58.7518 192.834 58.7357 192.779 58.7051C192.735 58.685 192.696 58.6563 192.663 58.6207C192.63 58.5852 192.605 58.5435 192.589 58.4981C192.573 58.4527 192.566 58.4045 192.568 58.3563C192.571 58.3082 192.583 58.261 192.604 58.2176V58.2051ZM183.429 60.3676C188.791 61.8227 194.06 63.6052 199.204 65.7051C199.529 65.8676 199.416 66.4176 199.029 66.3426C193.67 64.8494 188.406 63.0336 183.266 60.9051C183.209 60.8731 183.165 60.8225 183.14 60.7618C183.116 60.701 183.113 60.6337 183.132 60.571C183.151 60.5083 183.19 60.454 183.244 60.417C183.299 60.38 183.364 60.3626 183.429 60.3676ZM182.504 70.9051C188.466 74.2676 199.566 78.5426 203.754 79.1676C204.591 79.2926 211.391 74.5176 212.504 73.7051C213.229 74.4176 219.266 77.8301 220.804 78.7801C218.579 78.8926 202.429 86.4176 201.266 87.1551C194.329 81.9676 187.129 76.7051 180.016 71.7676L182.516 70.9051H182.504ZM97.7164 39.0301H97.7289H97.7164ZM118.016 15.2051C117.94 15.1738 117.855 15.1738 117.779 15.2051C117.041 15.6551 112.779 21.4551 111.916 22.5426C111.091 21.4176 110.254 20.3051 109.416 19.2176C109.254 19.0176 108.916 19.2176 109.041 19.4801C109.879 20.8176 110.779 22.1051 111.691 23.3926C111.841 23.5926 112.129 23.4926 112.254 23.3301C113.041 22.3301 118.054 16.2801 118.266 15.5926C118.276 15.5507 118.276 15.5074 118.269 15.4653C118.261 15.4231 118.245 15.3828 118.222 15.3468C118.199 15.3108 118.169 15.2797 118.133 15.2554C118.098 15.2311 118.058 15.214 118.016 15.2051V15.2051ZM94.1789 41.4551C86.6789 41.6051 78.3664 41.4551 75.1414 41.7301C75.0751 41.7301 75.0115 41.7564 74.9646 41.8033C74.9177 41.8502 74.8914 41.9138 74.8914 41.9801C74.8914 42.0464 74.9177 42.11 74.9646 42.1569C75.0115 42.2037 75.0751 42.2301 75.1414 42.2301C79.0164 42.2301 91.0789 42.6301 94.1789 41.9676C94.4414 41.9051 94.3914 41.5301 94.1789 41.4551V41.4551ZM94.4539 28.8926C94.7039 28.8926 94.7789 28.4676 94.4539 28.4301C91.9539 28.0551 76.9539 28.7926 73.3164 29.3551C73.2501 29.3551 73.1865 29.3814 73.1396 29.4283C73.0927 29.4752 73.0664 29.5388 73.0664 29.6051C73.0664 29.6714 73.0927 29.735 73.1396 29.7819C73.1865 29.8287 73.2501 29.8551 73.3164 29.8551C78.2164 29.8551 89.3539 29.0926 94.3914 28.9176L94.4539 28.8926ZM89.4789 31.3926C89.6914 31.3926 89.8039 30.9676 89.4789 30.8926C88.2289 30.5801 75.7289 30.8926 73.8414 31.1051C73.8117 31.1096 73.7832 31.1201 73.7575 31.1358C73.7319 31.1515 73.7097 31.1723 73.6922 31.1967C73.6747 31.2212 73.6623 31.2489 73.6558 31.2783C73.6492 31.3076 73.6485 31.338 73.6539 31.3676C73.6607 31.4162 73.6823 31.4616 73.7159 31.4974C73.7495 31.5332 73.7933 31.5577 73.8414 31.5676C76.2539 31.7051 88.0039 31.7926 89.4789 31.3926ZM116.129 38.2676C116.816 37.2676 109.279 37.6301 108.954 37.9676C108.629 38.3051 108.954 43.4426 108.954 43.9176C108.954 44.6551 115.941 44.6426 116.216 44.4301C116.528 42.3961 116.528 40.3265 116.216 38.2926L116.129 38.2676ZM115.591 43.8676C114.929 43.8676 110.016 43.9551 109.616 43.6426C109.616 41.8801 109.504 40.1301 109.441 38.3801H115.691C115.466 40.2007 115.433 42.0399 115.591 43.8676V43.8676Z" fill="white"/>
<path d="M204.253 73.0053C206.003 71.9678 207.791 70.9553 209.478 69.8303C209.716 69.6678 209.478 69.2428 209.203 69.3928L204.066 72.7178C204.037 72.7461 204.019 72.7836 204.014 72.8238C204.01 72.864 204.02 72.9045 204.042 72.9384C204.064 72.9723 204.097 72.9975 204.136 73.0097C204.174 73.0219 204.216 73.0203 204.253 73.0053ZM191.653 86.7303C191.503 86.6303 191.303 86.8678 191.453 86.9928C192.703 88.0803 198.853 92.3803 200.203 93.3303C200.378 93.4553 200.528 93.1678 200.366 93.0428C197.741 91.0428 194.441 88.4053 191.653 86.7303V86.7303ZM110.678 33.9178C111.328 33.9178 116.416 34.5053 116.366 33.6678C116.316 32.8303 116.241 28.0178 115.916 27.8678C115.828 27.0303 109.491 27.6428 108.903 27.7553C108.541 27.7553 108.691 32.6303 108.716 33.2178C108.753 34.0678 110.116 33.8928 110.678 33.9178V33.9178ZM115.591 28.1553V33.4178C113.485 33.2011 111.366 33.1593 109.253 33.2928C109.336 31.58 109.303 29.8636 109.153 28.1553C110.191 28.1553 114.928 28.3178 115.591 28.1553V28.1553ZM199.928 90.9303C199.96 90.9567 200 90.9712 200.041 90.9712C200.082 90.9712 200.122 90.9567 200.153 90.9303C200.178 90.9028 200.192 90.8672 200.192 90.8303C200.192 90.7934 200.178 90.7578 200.153 90.7303C194.428 86.6678 188.741 81.7803 183.116 77.9678C182.953 77.8428 182.703 78.0803 182.866 78.2428C186.016 81.2428 195.853 88.2428 199.978 90.9928L199.928 90.9303ZM215.941 83.7553H215.966H215.941ZM116.341 19.6428C116.324 19.587 116.285 19.5401 116.234 19.5121C116.182 19.4841 116.122 19.4772 116.066 19.4928C116.028 19.5017 115.993 19.5202 115.965 19.5464C115.936 19.5727 115.915 19.6059 115.903 19.6428V24.0178H108.978C108.857 22.0033 108.632 19.9965 108.303 18.0053C110.259 18.0961 112.218 18.046 114.166 17.8553C114.21 17.8412 114.247 17.8123 114.273 17.7736C114.298 17.7348 114.309 17.6886 114.303 17.6428C114.296 17.6162 114.284 17.5914 114.266 17.5698C114.249 17.5483 114.228 17.5306 114.203 17.5178C113.741 17.3678 107.953 16.8678 108.128 17.8678C107.553 17.8678 108.391 24.1178 108.391 24.1178C108.691 24.8803 109.953 24.6178 110.616 24.6178C111.278 24.6178 115.878 24.7303 116.253 24.6178C116.853 24.3803 116.516 20.3803 116.378 19.6178L116.341 19.6428Z" fill="white"/>
<path d="M237.128 133.043C221.203 134.018 205.274 134.851 189.341 135.543C189.133 133.263 188.714 131.008 188.091 128.805C203.924 128.389 219.758 127.901 235.591 127.343C235.672 127.333 235.747 127.297 235.806 127.241C235.864 127.184 235.903 127.11 235.916 127.03C235.927 126.933 235.899 126.835 235.838 126.758C235.777 126.68 235.688 126.63 235.591 126.618C219.691 127.209 203.795 127.697 187.903 128.08C184.153 115.005 176.241 102.568 167.016 92.7177C166.728 89.3927 166.716 87.7177 165.291 84.3802C162.541 78.0677 159.503 76.7552 159.578 78.2552C159.578 78.6503 159.641 79.0429 159.766 79.4177C159.266 78.7927 155.591 74.9677 154.841 77.0302C154.288 76.6823 153.664 76.4634 153.014 76.3898C152.365 76.3162 151.708 76.3898 151.091 76.6052C148.753 72.8552 144.841 72.8552 142.341 71.6052C137.566 69.1052 139.766 61.1302 143.278 58.1552C143.278 58.1552 158.366 57.8677 158.378 57.6802C158.653 54.1427 161.666 0.30517 161.666 0.30517C124.491 -0.43233 84.491 0.305168 47.591 1.05517C47.341 1.05517 47.1285 1.21767 47.1535 1.44267C49.3785 20.3802 54.841 59.1427 54.841 59.1427C55.741 59.5052 137.453 58.2302 142.341 58.1552C140.251 60.435 139.107 63.4249 139.141 66.5177C139.391 74.3927 145.653 71.0427 150.778 76.8052C147.453 78.2302 147.028 82.4427 148.278 85.4552C148.506 86.0327 148.813 86.5756 149.191 87.0677C149.243 88.2423 149.578 89.387 150.166 90.4052C151.766 93.4427 154.616 94.4927 154.766 94.9427C154.766 102.018 156.253 110.643 157.666 117.543C152.903 115.043 138.778 109.08 124.253 108.655C125.078 101.493 131.266 100.593 130.416 95.8052C133.003 95.7052 135.591 95.6052 138.178 95.4802C138.828 95.4802 138.116 93.4802 138.041 93.1427C136.991 88.5177 135.937 83.901 134.878 79.2927C134.716 78.6677 133.991 74.4677 133.378 74.4677L125.316 74.6177C123.541 72.9302 119.378 72.3052 117.678 74.2677C115.178 69.4552 107.453 70.1552 107.203 74.8302C105.091 73.3927 101.953 73.1052 100.041 75.0552C99.841 75.1427 62.0285 75.6552 56.4035 75.8802H56.3035C56.2427 75.9188 56.1995 75.9797 56.1831 76.0498C56.1668 76.1199 56.1786 76.1937 56.216 76.2552C56.316 76.9052 53.0535 92.3302 52.666 96.0427C52.666 96.5677 58.3285 96.4927 58.916 96.4927C50.841 105.955 43.5785 116.63 41.416 129.118C27.791 128.905 14.166 128.568 0.540984 128.618C0.47468 128.618 0.411092 128.644 0.364208 128.691C0.317324 128.738 0.290985 128.801 0.290985 128.868C0.290985 128.934 0.317324 128.998 0.364208 129.044C0.411092 129.091 0.47468 129.118 0.540984 129.118C14.1035 129.705 27.7035 129.768 41.2785 129.868C40.8741 132.346 40.7067 134.857 40.7785 137.368C27.2785 137.093 13.7785 136.668 0.290985 136.443C-0.00901547 136.443 -0.0590155 136.918 0.290985 136.918C13.791 137.605 27.316 137.855 40.841 138.055C41.191 144.843 43.866 153.168 50.516 156.218C53.2535 161.593 59.0535 166.43 65.516 165.043C65.3285 166.018 65.1535 167.018 64.966 168.018C64.891 168.468 65.566 168.655 65.641 168.205C67.4785 158.305 69.391 148.355 72.6035 138.805C72.7035 138.505 72.2535 138.393 72.141 138.68C69.016 146.98 67.2535 155.705 65.6285 164.393C59.016 165.355 53.741 161.143 51.0035 155.443C49.5307 152.431 48.6788 149.153 48.4984 145.806C48.318 142.458 48.8128 139.108 49.9535 135.955C53.366 127.205 62.4535 120.955 71.3785 116.68C80.4532 112.38 90.199 109.669 100.191 108.668C100.903 115.343 108.578 117.605 114.428 117.255C120.278 116.905 123.741 115.118 124.241 109.218C124.316 109.218 145.353 109.68 163.516 121.818C168.853 125.38 173.703 129.955 176.541 135.768C179.316 141.38 180.291 148.268 177.791 154.118C174.216 162.643 167.691 163.88 163.366 164.643C161.837 155.49 158.884 146.633 154.616 138.393C154.503 138.18 154.153 138.318 154.266 138.543C158.717 148.141 161.753 158.335 163.278 168.805C163.278 169.13 163.928 169.218 163.928 168.805C163.878 167.661 163.727 166.523 163.478 165.405C168.193 165 172.557 162.754 175.628 159.155C185.628 156.655 189.991 145.843 189.378 136.318C205.345 135.668 221.295 134.834 237.228 133.818C237.666 133.655 237.503 133.043 237.128 133.043V133.043ZM54.891 51.2427C52.391 35.3427 50.4035 19.5177 48.141 3.60517C85.641 2.95517 124.116 3.23017 161.103 2.60517L158.216 49.4927C142.603 49.9677 56.9035 50.4552 54.891 51.2427ZM130.266 95.1052C130.037 94.4387 129.599 93.8642 129.016 93.4677C129.664 92.4371 130.014 91.2474 130.028 90.0302H130.703L131.641 95.0302L130.266 95.1052ZM129.216 85.9427C129.43 85.7704 129.627 85.5778 129.803 85.3677C130.103 86.7052 130.353 88.0427 130.603 89.3802H130.003C130.065 88.1835 129.792 86.9933 129.216 85.9427V85.9427ZM137.766 94.7802L132.016 95.0302C131.866 93.3427 131.541 91.6802 131.241 90.0302C133.038 90.0899 134.837 90.044 136.628 89.8927C137.003 91.5052 137.391 93.1552 137.766 94.7802ZM136.516 89.3177H131.141L130.241 84.6302L135.428 84.4802L136.516 89.3177ZM135.266 83.9427L130.378 84.0927C130.472 83.4999 130.43 82.8935 130.255 82.3195C130.079 81.7455 129.775 81.2191 129.366 80.7802C129.291 80.4052 129.216 80.0177 129.116 79.6302L134.266 79.5177L135.266 83.9427ZM133.353 75.0177C133.628 76.2677 133.878 77.6052 134.128 78.9052L128.991 78.9927C128.729 77.6784 128.391 76.3804 127.978 75.1052L133.353 75.0177ZM128.628 80.3177C128.02 80.041 127.332 79.9922 126.691 80.1802C126.748 80.0254 126.794 79.8666 126.828 79.7052H128.478L128.628 80.3177ZM127.378 75.1177C127.613 76.43 127.922 77.7279 128.303 79.0052H126.916C127.059 77.6203 126.675 76.2323 125.841 75.1177H127.378ZM97.116 75.6552H99.5285C99.019 76.4427 98.8394 77.3989 99.0285 78.3177L96.9035 78.9302C97.0035 77.8552 97.116 76.6552 97.116 75.6552V75.6552ZM96.441 75.6552V79.1427C96.2292 79.2686 96.0247 79.4063 95.8285 79.5552L89.916 79.6552C89.9706 78.3583 89.933 77.0592 89.8035 75.7677L96.441 75.6552ZM93.816 84.7177H89.8785V80.3427L95.0035 80.2552C94.4614 80.8487 94.0704 81.5643 93.8637 82.3411C93.657 83.1179 93.6406 83.9332 93.816 84.7177V84.7177ZM89.9035 90.5052H93.316C93.3643 91.5958 93.7682 92.6406 94.466 93.4802C94.0536 93.7655 93.7218 94.1524 93.5028 94.6035C93.2838 95.0546 93.185 95.5547 93.216 96.0552H89.841C89.8785 94.1802 89.9035 92.3427 89.9035 90.5052ZM93.6535 88.9927C93.5439 89.2537 93.4642 89.5262 93.416 89.8052H89.966V85.2927H94.0035C94.275 86.0387 94.7623 86.687 95.4035 87.1552C94.6224 87.5594 93.9916 88.2035 93.6035 88.9927H93.6535ZM89.466 96.0427H73.9785C74.141 93.8927 73.9785 92.5427 75.366 90.6927L89.3285 90.5302C89.316 92.3677 89.3535 94.2052 89.416 96.0427H89.466ZM75.8785 90.0052C77.1792 88.6901 78.1625 87.0954 78.7535 85.3427H81.8785V89.9302L75.8785 90.0052ZM82.6785 75.9052L89.2285 75.7927C89.1581 77.0875 89.1581 78.3853 89.2285 79.6802L82.641 79.7927C82.641 78.5052 82.6535 77.2052 82.6785 75.9052ZM82.591 80.4802L89.2035 80.3677V84.7427H82.5035C82.5035 83.3177 82.5035 81.9052 82.591 80.4802V80.4802ZM82.5035 85.3302H89.266V89.8427L82.2285 89.9302C82.3285 88.3927 82.4035 86.9052 82.5035 85.3302V85.3302ZM76.2535 76.0177L82.241 75.9177L82.1035 79.8052L76.0035 79.9052C76.1519 78.615 76.1979 77.3151 76.141 76.0177H76.2535ZM75.9535 80.5802L82.091 80.4802L81.9785 84.7302H78.916C79.066 84.0427 79.341 82.9177 78.5285 82.5427C77.716 82.1677 76.941 84.0427 75.441 84.7177C75.5785 83.3427 75.7035 81.9677 75.841 80.5927L75.9535 80.5802ZM70.6035 76.1177L75.766 76.0302C75.5874 77.3194 75.4747 78.6169 75.4285 79.9177H75.0035C75.541 78.6052 72.641 77.7552 70.141 79.9177C70.1785 79.2802 70.5285 76.5427 70.491 76.1177H70.6035ZM75.266 80.6552C75.1785 82.0177 75.1035 83.3677 75.016 84.7302H73.066C72.691 83.6302 73.066 81.0427 74.066 80.6552H75.241H75.266ZM69.8535 76.1552L69.6535 80.0302H67.316C66.391 78.1052 66.9785 76.6427 66.066 76.1802L69.8535 76.1552ZM69.3535 80.7302C69.0653 81.0911 68.8219 81.4857 68.6285 81.9052L67.7035 80.7677L69.3535 80.7302ZM61.366 76.3177L65.3785 76.2427C64.1285 76.8427 63.941 78.9677 63.941 80.1302H62.0535C61.416 79.5802 61.141 80.1302 60.666 80.1302L61.341 76.2427L61.366 76.3177ZM64.141 82.6677C63.4473 82.2049 62.8836 81.5723 62.5035 80.8302H63.916C63.9309 81.446 63.9894 82.0601 64.091 82.6677H64.141ZM60.0035 84.5427L60.6035 80.8677C60.4782 82.1365 60.6361 83.4173 61.066 84.6177L60.0035 84.5427ZM61.2535 85.1552C61.766 86.8677 62.5035 88.4302 62.8535 90.1552L59.1035 90.2302L59.8535 85.1427L61.2535 85.1552ZM56.716 76.3302H60.816C60.5785 77.5802 60.3535 78.9302 60.1285 80.2427C58.766 80.2427 57.391 80.3177 56.0285 80.3802C56.3229 79.0443 56.5358 77.6918 56.666 76.3302H56.716ZM55.941 80.8927H60.0035C59.816 82.1427 59.616 83.3927 59.416 84.5552H55.2285C55.441 83.3052 55.666 82.0927 55.891 80.8927H55.941ZM55.1785 84.9927C56.5535 85.0677 57.9285 85.1052 59.3035 85.1302C59.066 86.8177 58.791 88.5302 58.566 90.2302C57.1035 90.2302 55.641 90.3302 54.1785 90.3927C54.516 88.5927 54.841 86.7927 55.1785 84.9927V84.9927ZM57.991 95.8302H53.166C53.4785 94.1552 53.8035 92.4927 54.141 90.8302L58.4785 90.9427C58.2148 92.5614 58.0354 94.1928 57.941 95.8302H57.991ZM58.341 95.8302L59.0785 90.8302H62.966C63.0034 91.1624 63.0034 91.4979 62.966 91.8302L59.4535 95.8427L58.341 95.8302ZM49.8285 134.243C48.3664 137.574 47.6356 141.18 47.6852 144.818C47.7348 148.455 48.5637 152.04 50.116 155.33C38.016 147.155 40.591 129.08 45.741 117.53C49.9535 108.068 56.6285 100.03 63.466 92.3177C64.466 91.1802 61.2285 83.5677 61.116 81.7052C61.041 80.3177 61.616 80.0302 62.1285 81.0177C62.641 82.0052 63.3785 83.1302 64.391 83.3677C64.791 84.5427 65.1035 84.1677 65.0535 83.9802C64.6285 81.9177 63.891 78.9802 65.266 77.0802C66.266 75.7552 66.2285 78.1927 66.3285 78.6677C66.566 79.8052 67.5785 82.0052 68.491 82.4177C68.1785 83.3052 68.7035 82.9927 68.741 82.8802C70.516 78.2177 75.941 78.8802 74.191 80.0302C73.7296 80.3056 73.3375 80.6832 73.0449 81.134C72.7524 81.5847 72.5671 82.0966 72.5035 82.6302C71.866 87.0427 75.341 86.3802 77.866 83.3052C78.916 82.0552 78.966 84.7427 77.3035 87.4552C75.891 89.7552 73.9785 90.5802 73.7535 93.5927C73.1285 100.955 71.616 109.743 70.6035 116.218C62.3035 120.23 53.816 125.655 49.7785 134.255L49.8285 134.243ZM71.2535 115.88C72.474 109.524 73.3461 103.106 73.866 96.6552H93.2535C93.9785 100.843 99.1785 101.405 100.016 107.905C90.0395 108.881 80.3078 111.579 71.2535 115.88V115.88ZM124.028 105.793C123.717 106.776 123.516 107.79 123.428 108.818C122.928 114.118 120.678 115.88 114.791 116.318C108.541 116.83 101.766 114.855 100.816 108.118C99.9785 102.118 98.0535 102.643 94.966 98.4427C94.041 97.1927 93.216 94.8677 94.966 93.8927C95.8257 94.8371 96.9026 95.5579 98.1035 95.9927C100.803 102.055 101.716 109.043 109.566 109.818C124.741 111.23 121.341 102.968 126.153 95.7552C127.089 95.3226 127.937 94.7209 128.653 93.9802C129.199 94.4364 129.576 95.0626 129.723 95.7584C129.871 96.4543 129.78 97.1795 129.466 97.8177C128.241 100.78 125.291 101.905 124.028 105.793V105.793ZM155.003 77.7552C155.428 78.7052 155.866 79.6427 156.253 80.5927C155.641 79.8052 152.641 76.5302 151.641 78.2802C151.128 79.1927 152.203 80.5552 152.641 81.3677C150.963 81.6647 149.464 82.5956 148.453 83.9677C146.853 78.1552 152.503 75.2552 155.003 77.7552ZM149.353 86.2677C149.116 85.6802 148.866 85.0802 148.616 84.4927C149.713 83.2084 151.187 82.3029 152.828 81.9052C153.532 83.3569 153.988 84.9158 154.178 86.5177C154.516 89.7177 152.066 87.4302 150.878 86.3302C150.416 85.8552 149.641 85.6552 149.291 86.2677H149.353ZM176.416 158.03C180.553 152.23 180.728 144.743 178.328 138.193C174.928 128.93 166.841 122.443 158.328 117.905C156.692 110.346 155.63 102.674 155.153 94.9552C155.153 93.7802 151.178 92.9802 149.941 88.3677C149.716 87.5302 149.253 85.3302 150.766 86.9052C152.278 88.4802 154.853 89.9302 154.741 86.4802C154.591 82.3927 151.816 79.6677 152.066 78.7427C152.378 77.5802 154.691 79.7677 155.066 80.1427C156.043 81.2176 156.929 82.3715 157.716 83.5927C157.853 83.7927 158.191 83.5927 158.066 83.4052C157.774 82.9052 157.474 82.4052 157.166 81.9052C157.366 81.4802 155.116 77.5052 155.516 77.1302C155.916 76.7552 157.716 78.0552 158.116 78.3802C160.203 80.1927 160.303 81.4052 161.016 82.3427C161.048 82.3541 161.084 82.3541 161.116 82.3427C161.16 82.3463 161.205 82.3328 161.24 82.3049C161.274 82.277 161.297 82.2369 161.303 82.1927C161.228 81.3927 160.766 80.9427 160.541 80.3927C160.316 79.8427 159.853 78.6052 160.166 78.1677C160.316 78.0427 161.178 78.6802 161.278 78.7802C162.103 79.57 162.792 80.4908 163.316 81.5052C167.141 88.0427 165.991 92.2552 166.641 92.8927C176.128 103.58 186.266 119.23 188.316 133.355C189.703 143.155 186.616 154.58 176.353 158.03H176.416Z" fill="white"/>
<path d="M85.7535 21.9054C86.041 21.8179 85.9285 21.4054 85.666 21.3679C81.116 21.4554 76.2785 21.3679 71.791 21.4929C71.441 21.4929 71.491 22.0304 71.791 22.0804C74.091 22.4554 83.7535 22.5179 85.7535 21.9054ZM205.091 88.7554C206.791 88.0179 215.091 84.6679 216.079 84.1054C216.097 84.089 216.112 84.0688 216.122 84.0462C216.132 84.0235 216.138 83.999 216.138 83.9742C216.138 83.9493 216.132 83.9248 216.122 83.9022C216.112 83.8795 216.097 83.8593 216.079 83.8429C216.058 83.8126 216.03 83.7885 215.997 83.773C215.964 83.7576 215.927 83.7515 215.891 83.7554C213.791 84.1929 206.991 87.4304 204.878 88.4804C204.766 88.5679 204.916 88.8304 205.091 88.7554V88.7554ZM121.254 59.4054L94.7535 59.8054C95.891 72.6554 121.591 72.8554 121.254 59.4054ZM121.254 31.9054C121.253 31.9597 121.274 32.0119 121.311 32.0514C121.348 32.0909 121.399 32.1147 121.454 32.1179C125.691 32.2179 134.654 32.4804 138.041 32.0179C138.316 32.0179 138.229 31.5554 138.041 31.5554C133.254 31.5554 126.341 31.5554 121.516 31.6929C121.484 31.6852 121.451 31.6849 121.419 31.6921C121.387 31.6993 121.358 31.7137 121.332 31.7343C121.307 31.7548 121.287 31.781 121.273 31.8106C121.259 31.8403 121.253 31.8728 121.254 31.9054V31.9054ZM85.0035 13.1554C85.3535 13.1554 85.2035 12.6554 84.916 12.6054C76.3035 12.8554 66.9285 13.0429 58.5285 13.2304C58.5004 13.2349 58.4735 13.245 58.4494 13.2601C58.4252 13.2752 58.4044 13.295 58.3881 13.3184C58.3718 13.3417 58.3603 13.368 58.3543 13.3959C58.3484 13.4237 58.3481 13.4525 58.3535 13.4804C58.3607 13.5242 58.3815 13.5646 58.4129 13.596C58.4443 13.6274 58.4847 13.6482 58.5285 13.6554C64.641 14.0929 77.066 13.4304 85.0035 13.1554V13.1554ZM89.816 10.2929C90.1035 10.2929 90.191 9.79291 89.816 9.75541C87.016 9.41791 59.4035 9.86791 57.4785 10.2929C57.291 10.2929 57.3035 10.6679 57.4785 10.6679C64.566 10.6554 81.5535 10.1679 89.816 10.2929ZM35.4785 99.5804V99.5679V99.5804ZM36.0035 99.7929C36.9665 98.0117 37.7055 96.1181 38.2035 94.1554C38.4362 93.4809 38.4895 92.7574 38.358 92.0561C38.2265 91.3548 37.9148 90.6998 37.4535 90.1554C37.9072 89.0137 38.1405 87.7964 38.141 86.5679C37.891 84.5304 35.7285 84.6554 34.566 86.2179C29.8785 92.4679 24.7035 102.468 24.8535 110.155C24.766 110.518 24.9535 110.93 25.2785 110.63C30.8281 105.132 34.9331 98.3477 37.2285 90.8804C38.791 93.2054 36.3785 97.2179 35.4785 99.5679C35.366 99.8804 35.841 100.068 36.0035 99.7929V99.7929ZM25.3285 109.643C25.4202 108.256 25.6124 106.877 25.9035 105.518L27.8285 106.905C27.016 107.805 26.1785 108.743 25.3285 109.643ZM36.941 89.6429C36.0945 88.9326 35.078 88.4544 33.991 88.2554C34.4087 87.4924 34.9119 86.7795 35.491 86.1304C36.0535 85.6054 37.1285 85.3929 37.4535 86.2804C37.5638 87.4182 37.3877 88.5656 36.941 89.6179V89.6429ZM68.7535 25.9679C68.2035 26.1929 65.0035 30.9679 64.416 31.8054C63.6887 30.839 62.8495 29.962 61.916 29.1929C61.8639 29.1687 61.8047 29.1643 61.7496 29.1804C61.6944 29.1965 61.647 29.232 61.616 29.2804C61.5978 29.3288 61.5978 29.3821 61.616 29.4304C62.3288 30.5975 63.1671 31.6831 64.116 32.6679C64.15 32.7055 64.1915 32.7355 64.2377 32.756C64.284 32.7765 64.3341 32.7871 64.3848 32.7871C64.4354 32.7871 64.4855 32.7765 64.5318 32.756C64.578 32.7355 64.6195 32.7055 64.6535 32.6679V32.6054L68.7535 27.0054C69.3285 26.1929 69.166 25.7554 68.7535 25.9679ZM143.754 19.4054C144.016 19.4054 144.066 18.9054 143.754 18.8679C135.954 18.4801 128.138 18.5928 120.354 19.2054C120.091 19.2054 120.116 19.6679 120.354 19.6554C126.254 19.6054 137.316 19.7929 143.754 19.4054Z" fill="white"/>
<path d="M68.7538 33.5426C69.2538 33.3426 68.2538 29.6176 68.1163 29.0301C68.1122 29.0039 68.103 28.9787 68.0892 28.956C68.0753 28.9333 68.0571 28.9135 68.0357 28.8979C68.0142 28.8822 67.9898 28.8709 67.964 28.8646C67.9382 28.8584 67.9114 28.8573 67.8851 28.8614C67.8588 28.8655 67.8336 28.8747 67.8109 28.8886C67.7882 28.9024 67.7685 28.9206 67.7528 28.9421C67.7372 28.9635 67.7259 28.9879 67.7196 29.0137C67.7134 29.0395 67.7122 29.0664 67.7163 29.0926C67.8663 30.4301 68.0163 31.7801 68.2663 33.0926C66.1788 33.2551 64.2913 33.2426 62.2538 33.3301C61.8788 31.7051 61.5538 29.5801 61.0038 27.9676C62.5761 28.0998 64.1566 28.0998 65.7288 27.9676C66.7663 27.9676 66.6913 27.3176 65.8038 27.3301C65.2788 27.3301 60.8038 27.2426 60.8038 27.7801C60.2163 27.7801 61.4538 33.0176 61.5288 33.3676C61.5418 33.4299 61.5741 33.4865 61.6213 33.5292C61.6685 33.5719 61.7281 33.5985 61.7913 33.6051C61.9413 34.2551 68.5163 34.1551 68.7538 33.5426ZM144.454 29.1551C144.443 29.1065 144.416 29.063 144.377 29.0313C144.339 28.9997 144.291 28.9817 144.241 28.9801C136.666 28.7801 128.566 29.1426 120.891 29.1301C120.666 29.1301 120.654 29.5051 120.891 29.5301C127.616 29.9801 138.016 30.2551 144.291 29.4301C144.348 29.4127 144.396 29.3749 144.426 29.324C144.456 29.2732 144.466 29.213 144.454 29.1551V29.1551ZM61.9663 24.5051C63.7198 24.554 65.4745 24.4746 67.2163 24.2676C68.3038 24.5426 66.6413 17.7176 66.4413 17.4051C66.415 17.3462 66.3704 17.2974 66.3141 17.2659C66.2578 17.2344 66.1928 17.2218 66.1288 17.2301C65.0038 17.2301 59.7788 17.2301 59.0413 17.3926C58.1413 16.6676 59.4538 22.8301 59.6413 23.5676C60.0038 24.8051 60.8038 24.5051 61.9663 24.5051ZM59.1913 17.8176C61.4978 18.0993 63.8278 18.1328 66.1413 17.9176L66.9413 23.6926L60.3913 24.0301C60.4413 23.6051 59.3413 18.6426 59.1913 17.8176ZM138.529 22.0301C138.595 22.0301 138.659 22.0038 138.706 21.9569C138.753 21.91 138.779 21.8464 138.779 21.7801C138.779 21.7138 138.753 21.6502 138.706 21.6034C138.659 21.5565 138.595 21.5301 138.529 21.5301C136.979 21.2176 123.654 21.6926 120.891 21.9301C120.679 21.9301 120.679 22.2926 120.891 22.3051C122.391 22.3676 137.041 22.4051 138.529 22.0301ZM33.5663 61.6801C33.8038 61.6801 35.5663 60.6801 35.9788 62.3051C36.5538 64.5301 38.8038 63.1926 39.1663 61.4926C39.6288 59.3926 37.6288 57.7426 35.2663 57.7426C30.4663 57.7426 31.5663 61.9051 33.5663 61.6801ZM35.2663 58.2301C37.9663 58.3176 39.6288 60.8676 37.9913 62.3676C36.5913 63.6176 36.7413 61.8176 36.0663 61.1176C34.7163 59.8676 33.6413 61.3801 32.8788 60.7426C31.3163 59.4926 34.3038 58.1551 35.2663 58.2301ZM64.5413 37.8676C62.5788 37.8676 62.5038 37.5426 62.7538 39.4551C62.8288 39.9926 63.2163 43.7926 63.8663 43.8301C64.0038 44.4301 69.6163 44.2176 70.3288 44.0051C71.2913 44.0051 70.3288 41.0426 70.3288 40.7051C69.5038 36.3551 70.5288 37.7051 64.5413 37.8676ZM64.1788 43.5426C63.8663 41.9676 63.6288 39.8801 63.1788 38.3801C65.2255 38.5801 67.2898 38.5045 69.3163 38.1551C69.4435 39.8955 69.7153 41.6223 70.1288 43.3176C68.1788 43.4051 66.1538 43.5051 64.1788 43.5426ZM146.416 9.55513C144.116 9.34263 110.991 9.55513 106.791 9.88013C106.737 9.88936 106.689 9.91927 106.656 9.96356C106.623 10.0079 106.609 10.0631 106.616 10.1176C106.625 10.1607 106.647 10.2002 106.678 10.2314C106.709 10.2625 106.748 10.2838 106.791 10.2926C110.354 10.4801 143.866 10.3926 146.416 10.1051C146.489 10.1051 146.559 10.0762 146.611 10.0246C146.662 9.97301 146.691 9.90306 146.691 9.83013C146.691 9.7572 146.662 9.68725 146.611 9.63568C146.559 9.5841 146.489 9.55513 146.416 9.55513V9.55513ZM90.0038 18.7426C90.2913 18.6801 90.1913 18.2926 89.9413 18.2426L70.9538 18.7176C70.9263 18.7206 70.8996 18.7292 70.8755 18.743C70.8515 18.7569 70.8305 18.7755 70.8141 18.7979C70.7976 18.8202 70.786 18.8457 70.7799 18.8728C70.7739 18.8999 70.7735 18.9279 70.7788 18.9551C70.7861 18.9989 70.8069 19.0393 70.8382 19.0707C70.8696 19.1021 70.9101 19.1229 70.9538 19.1301C75.7163 19.4801 85.8663 19.5801 90.0038 18.7426ZM165.291 53.8801C165.379 54.8301 166.329 64.3051 166.679 64.9926C169.179 69.8676 178.379 69.9926 178.579 62.7801C178.929 59.7801 180.141 51.1676 179.666 49.0301C179.804 48.3301 180.529 45.2801 180.666 43.6676C180.666 43.4051 181.166 36.2676 180.166 37.3551C178.832 39.1321 177.648 41.0179 176.629 42.9926C176.454 43.7551 176.279 44.5051 176.091 45.2551C175.538 45.0466 174.964 44.8999 174.379 44.8176C174.379 44.3051 174.004 41.8051 173.829 40.8051C172.966 39.1301 172.079 37.6301 171.329 35.8926C170.266 33.2801 170.241 33.2301 169.941 36.1051C169.44 39.0339 169.44 42.0264 169.941 44.9551C164.279 46.1301 164.866 49.4676 165.279 53.8801H165.291ZM178.966 40.1301C179.119 40.278 179.302 40.3914 179.503 40.4626C179.703 40.5337 179.917 40.561 180.129 40.5426V43.6926C179.602 43.7437 179.071 43.6882 178.566 43.5292C178.061 43.3703 177.594 43.1113 177.191 42.7676C177.804 41.9051 178.441 41.0176 178.966 40.1301ZM177.166 43.4176C177.994 44.0063 178.988 44.317 180.004 44.3051C179.591 46.6301 179.179 48.9426 178.854 51.2801C178.429 52.8051 176.354 53.3551 175.004 53.5426C175.829 50.2426 176.454 46.6926 177.166 43.3801V43.4176ZM174.666 52.6426C174.605 52.9565 174.564 53.2737 174.541 53.5926L171.491 53.6676L170.241 41.8926C170.807 42.0633 171.405 42.0933 171.984 41.98C172.564 41.8667 173.107 41.6136 173.566 41.2426C173.566 41.2426 174.379 52.4551 174.666 52.6051V52.6426ZM170.391 37.8926C170.583 37.9426 170.783 37.9529 170.978 37.9228C171.174 37.8927 171.361 37.8229 171.529 37.7176L173.241 40.7926C172.792 41.1271 172.272 41.3531 171.721 41.4529C171.171 41.5526 170.604 41.5235 170.066 41.3676C170.045 40.1884 170.154 39.0104 170.391 37.8551V37.8926ZM179.054 52.2926C178.829 55.4426 178.429 62.0926 177.616 65.0676C176.179 68.9301 169.916 68.9926 167.154 65.0676C166.629 60.7301 166.104 56.3176 165.591 52.0426C167.929 55.4301 177.016 55.0176 179.054 52.2551V52.2926Z" fill="white"/>
<path d="M11.0162 66.0678C12.9187 67.0614 14.9273 67.8371 17.0037 68.3803C13.0162 73.8678 24.4287 81.6928 34.8662 77.5178C39.6537 75.6053 44.4412 69.5303 39.7537 65.3178C44.7537 61.2803 46.5162 55.4553 46.3037 49.0678C45.9787 39.2178 41.6287 31.9678 31.6662 29.6303C26.758 28.4817 21.6148 28.8791 16.9412 30.7678L15.0037 27.4178C15.6162 27.0928 16.2537 26.7803 16.8787 26.5053C18.5287 25.9428 18.0287 24.7303 17.0537 25.0928C-2.09629 32.0803 -6.52129 57.2678 11.0162 66.0678ZM17.1537 67.5053C16.8037 66.2553 17.7412 65.0053 17.3037 63.6428C16.3037 60.4053 12.1162 62.2803 11.0537 60.0928C9.89121 57.7053 12.9912 57.2928 13.6162 55.5803C13.7267 55.2805 13.7549 54.9566 13.6977 54.6422C13.6406 54.3278 13.5002 54.0345 13.2912 53.7928C11.4912 51.5428 7.32871 53.9178 8.51621 48.6678C9.41621 44.7053 13.2412 42.8303 16.0162 44.5803C18.7912 46.3303 20.4537 47.5053 23.9662 45.4553C29.8162 42.0178 29.0912 49.2053 27.3037 51.3803C26.3537 52.5553 24.6287 52.4928 23.3037 52.9928C18.9787 54.6178 19.0037 57.5303 22.4287 58.2428C23.7537 58.5178 25.4537 58.3928 26.4912 59.3928C29.3037 62.1303 23.4912 67.9803 21.6537 68.9428C20.6662 68.7428 17.6537 68.1553 17.1537 67.5053V67.5053ZM33.0162 30.7303C40.3787 33.0178 44.2662 38.3428 45.3162 45.9553C45.8153 49.2406 45.6923 52.5905 44.9537 55.8303C44.6537 56.2428 40.4287 57.4053 39.0662 55.6553C38.5402 54.948 38.189 54.1263 38.0412 53.2573C37.8935 52.3883 37.9535 51.4967 38.2162 50.6553C39.0287 48.5553 41.7912 46.7053 40.9412 44.5553C39.7662 41.5803 36.3287 45.6428 34.8787 44.8053C32.7037 43.5553 36.7787 41.1553 32.1287 40.2928C30.4162 39.9803 29.0162 40.6803 27.7537 38.7928C24.8662 34.4678 32.3787 30.7178 33.0162 30.6928V30.7303ZM18.7537 36.2678C18.8076 36.353 18.8894 36.417 18.985 36.4489C19.0807 36.4808 19.1844 36.4786 19.2787 36.4428C19.387 36.3983 19.4737 36.3134 19.5203 36.206C19.567 36.0987 19.57 35.9774 19.5287 35.8678L17.2537 31.4303C21.8901 29.5712 26.9945 29.2213 31.8412 30.4303C25.5912 32.4928 24.8537 39.5428 29.3412 40.7553C30.2912 41.0178 34.5412 40.6428 33.8037 42.4553C33.654 42.7494 33.5701 43.0724 33.5577 43.4022C33.5453 43.7319 33.6048 44.0604 33.7321 44.3648C33.8593 44.6692 34.0513 44.9423 34.2946 45.1652C34.5379 45.388 34.8268 45.5553 35.1412 45.6553C36.8912 45.9678 38.7662 43.3303 40.0537 44.4053C42.3037 46.2803 36.4287 49.1803 37.4287 53.3553C38.1787 56.5553 39.5037 57.5678 42.7537 57.1053C43.4656 57.0441 44.1561 56.831 44.7787 56.4803C42.0912 65.8928 32.0412 70.2303 22.8537 69.0928C24.7037 67.3928 27.5787 64.0178 27.8537 61.5928C28.2787 57.2928 23.3412 58.1553 21.5287 57.2053C19.0287 55.9553 22.6037 53.7803 24.8912 53.2803C25.6408 53.1569 26.3663 52.9165 27.0412 52.5678C30.7912 50.2678 29.7537 41.0178 24.3162 44.4303C19.6662 47.3428 18.2287 44.8678 16.0662 43.7553C12.6037 41.9928 7.85371 44.7678 7.61621 50.0053C7.47871 53.5678 10.4162 52.8053 12.1287 53.7553C12.4356 53.8704 12.6919 54.0905 12.852 54.3765C13.0122 54.6625 13.0659 54.996 13.0037 55.3178C12.6037 56.5678 10.7912 56.8178 10.2912 58.3303C10.0935 58.9202 10.1007 59.5596 10.3117 60.145C10.5227 60.7303 10.9251 61.2272 11.4537 61.5553C13.0912 62.5053 15.9912 61.6803 16.6787 63.9428C17.0162 65.0428 16.3537 66.1678 16.4287 67.2803C13.2395 66.1341 10.4312 64.1247 8.31686 61.4763C6.2025 58.8278 4.8651 55.6442 4.45371 52.2803C3.32871 43.7803 8.51621 35.5178 16.1412 31.9053C16.9287 33.3553 17.9162 34.8553 18.7537 36.2678V36.2678ZM7.50371 32.9303C9.38019 30.9845 11.5426 29.3364 13.9162 28.0428C14.6129 29.1117 15.2514 30.2175 15.8287 31.3553C11.9056 33.1779 8.64061 36.1669 6.47949 39.9141C4.31837 43.6614 3.36646 47.9844 3.75371 52.2928C4.01429 54.7623 4.78831 57.15 6.0261 59.3026C7.26388 61.4553 8.93807 63.3254 10.9412 64.7928C-1.00879 58.1553 -1.50879 42.5053 7.50371 32.9303ZM140.916 41.7428C139.841 41.5053 123.766 41.4303 121.491 41.7428C121.435 41.7428 121.381 41.7652 121.341 41.8051C121.301 41.8449 121.279 41.899 121.279 41.9553C121.279 42.0117 121.301 42.0657 121.341 42.1056C121.381 42.1454 121.435 42.1678 121.491 42.1678C122.354 42.2928 139.154 42.5803 140.916 42.1678C140.975 42.1549 141.027 42.1224 141.064 42.0758C141.101 42.0292 141.122 41.9713 141.122 41.9116C141.122 41.8518 141.101 41.7939 141.064 41.7473C141.027 41.7007 140.975 41.6683 140.916 41.6553V41.7428ZM146.254 12.9928C134.191 13.1303 118.604 12.7178 107.729 12.9928C107.429 12.9928 107.454 13.4178 107.729 13.4428C112.291 13.9428 142.579 13.9053 146.254 13.4428C146.289 13.4398 146.324 13.4295 146.356 13.4125C146.387 13.3956 146.415 13.3723 146.437 13.3442C146.46 13.3161 146.476 13.2837 146.485 13.2491C146.494 13.2145 146.496 13.1783 146.491 13.1428C146.471 13.0969 146.438 13.0581 146.396 13.0313C146.353 13.0046 146.304 12.9912 146.254 12.9928V12.9928ZM144.916 39.0303C137.604 38.8678 128.466 39.3178 120.679 39.1178C120.454 39.1178 120.404 39.4428 120.679 39.4678C125.466 39.9428 140.454 40.4178 144.966 39.5428C145.204 39.4803 145.229 39.0303 144.916 39.0303V39.0303Z" fill="white"/>
</svg>
