<svg width="238" height="230" viewBox="0 0 238 230" fill="none" xmlns="http://www.w3.org/2000/svg">
<path d="M113.255 33.1809C113.543 32.9434 113.568 32.2809 113.618 31.6309C114.018 24.1785 114.043 16.7108 113.693 9.2559C113.53 7.5934 113.468 7.5309 111.693 7.3934C106.893 6.9809 86.3176 7.3934 85.3676 8.2684C84.7176 8.8934 85.0426 30.9309 85.6301 32.9184C85.6741 33.0104 85.7408 33.0896 85.8239 33.1487C85.907 33.2077 86.0038 33.2446 86.1051 33.2559C87.6926 33.5184 111.893 34.3059 113.255 33.1809ZM85.6426 8.5434C86.7051 7.8559 110.168 7.7309 112.655 8.4184C113.293 11.4684 112.918 30.6059 112.555 32.4934C108.143 33.0934 88.8801 32.6934 86.3926 32.4309C85.7142 24.4876 85.4638 16.5136 85.6426 8.5434V8.5434ZM114.405 40.2934C114.386 40.1585 114.331 40.0315 114.245 39.9257C114.159 39.82 114.046 39.7397 113.918 39.6934C111.768 38.9184 87.2301 39.4309 86.2551 40.3684C85.6426 40.9434 85.8677 62.8684 86.5052 65.0184C86.5491 65.1104 86.6158 65.1896 86.6989 65.2487C86.782 65.3077 86.8788 65.3446 86.9801 65.3559C89.0301 65.6934 110.83 66.2184 113.705 65.4684C114.13 65.3559 114.268 65.1934 114.343 64.9184C114.843 63.0309 115.055 42.8434 114.405 40.2934V40.2934ZM113.43 64.5809C109.005 65.1809 89.8426 64.8059 87.2676 64.5809C86.6801 61.6434 86.2051 42.5184 86.5176 40.6934C87.6301 39.9434 111.243 39.9309 113.53 40.5559C114.118 43.3309 113.805 62.4684 113.43 64.5809V64.5809ZM146.805 32.9059C147.08 32.6809 147.105 32.0059 147.168 31.3559C147.543 23.9023 147.543 16.4345 147.168 8.9809C147.005 7.3184 146.93 7.2684 145.18 7.1184C140.368 6.7184 119.805 7.1184 118.855 7.9934C118.205 8.6059 118.518 30.6559 119.118 32.6434C119.154 32.7384 119.217 32.8208 119.299 32.8807C119.381 32.9407 119.479 32.9754 119.58 32.9809C121.305 33.2559 145.43 34.0309 146.805 32.9059ZM119.193 8.2684C121.693 7.5059 143.968 7.5184 146.193 8.1434C146.78 10.9434 146.518 30.0309 146.093 32.2184C141.668 32.8184 122.493 32.4309 119.93 32.2184C119.25 24.2544 119.003 16.2592 119.193 8.2684V8.2684ZM39.0552 81.7684C39.2302 82.2559 39.8802 82.4684 40.4177 82.5934C44.9927 83.7059 61.7926 83.1059 66.9801 82.1184C67.5301 82.0184 68.6301 81.8184 68.9301 81.3559C70.0801 79.5059 69.6176 49.7684 68.2426 48.1184C66.8676 46.4684 42.7051 46.7559 40.5801 48.3809C38.9801 49.6184 38.6052 80.4684 39.0552 81.7684V81.7684ZM41.1176 49.0184C43.1426 47.6059 66.9801 47.1934 67.9426 48.3559C69.1926 49.8559 69.0426 79.0934 68.1801 80.8559C65.8426 82.1059 42.9301 82.8934 39.9676 81.4559C39.5676 81.2184 39.9426 51.5809 41.1176 49.0184ZM8.50515 90.6309C8.60454 90.7798 8.73806 90.9029 8.8946 90.9899C9.05113 91.0769 9.22617 91.1252 9.40515 91.1309C13.8975 91.4976 18.415 91.4223 22.8927 90.9059C23.3016 90.8899 23.6952 90.7456 24.0176 90.4934C24.6926 89.6059 24.3426 77.1684 23.5801 76.4184C22.8176 75.6684 10.6176 75.6309 9.39265 76.4184C9.20548 76.5786 9.08141 76.8001 9.04265 77.0434C8.4777 81.5491 8.29788 86.0947 8.50515 90.6309V90.6309ZM23.2926 89.9684C21.0726 90.2776 18.8341 90.4363 16.5926 90.4434C16.76 90.1031 16.9478 89.7734 17.1551 89.4559C17.8973 88.4847 18.8638 87.7078 19.9719 87.1919C21.08 86.6759 22.2967 86.4363 23.5177 86.4934C23.5124 87.6552 23.4373 88.8156 23.2926 89.9684V89.9684ZM9.93015 77.0809C11.4301 76.4934 22.9427 76.3309 23.3177 76.6934C23.4308 77.0715 23.4979 77.4618 23.5177 77.8559C21.6052 78.1059 21.3051 81.7184 21.2551 83.6434C20.48 82.386 19.6196 81.1832 18.6801 80.0434C18.3511 79.78 17.9609 79.6041 17.5457 79.532C17.1304 79.4599 16.7037 79.4939 16.3051 79.6309C15.3926 80.0309 15.5676 81.1559 15.6926 82.0434C16.0136 83.1799 16.4667 84.2749 17.0426 85.3059C16.2926 84.7059 13.2926 82.2809 12.4426 82.1309C11.5926 81.9809 10.7676 82.0309 10.3426 82.7809C9.09265 84.9809 12.1051 88.6309 13.8926 90.4184C12.3887 90.438 10.8852 90.3545 9.39265 90.1684C9.24335 85.7986 9.42303 81.4238 9.93015 77.0809V77.0809Z" fill="white"/>
<path d="M4.05496 95.2309C4.22996 95.6434 4.80496 95.7934 5.30496 95.8809C9.05496 96.6559 22.555 96.2184 26.7425 95.5434C27.2175 95.4559 28.1175 95.3184 28.38 94.9684C29.355 93.6434 28.9425 72.9434 27.805 71.7434C26.8425 70.7434 7.21746 70.6559 5.37996 71.8559C5.13801 72.0887 4.98352 72.3977 4.94246 72.7309C3.97996 76.5059 3.67996 94.3059 4.05496 95.2309V95.2309ZM5.85496 72.5434C7.57996 71.6059 26.7175 71.2934 27.48 72.0184C28.2425 72.7434 28.355 92.3059 27.63 94.4059C25.2175 95.1809 10.3675 95.8059 4.94246 94.8559C4.69246 94.0059 4.91746 75.2184 5.85496 72.5434V72.5434ZM194.467 69.7184C194.953 70.2734 195.47 70.7993 196.017 71.2934C196.03 71.3146 196.047 71.3329 196.067 71.3471C196.088 71.3612 196.111 71.3709 196.135 71.3755C196.159 71.3801 196.184 71.3795 196.208 71.3737C196.233 71.368 196.255 71.3572 196.275 71.342C196.294 71.3269 196.31 71.3078 196.322 71.286C196.334 71.2642 196.341 71.2401 196.342 71.2155C196.344 71.1908 196.34 71.166 196.332 71.1429C196.323 71.1197 196.31 71.0985 196.292 71.0809C195.329 69.1921 193.968 67.5335 192.305 66.2184C192.273 66.1836 192.229 66.1627 192.183 66.1604C192.136 66.158 192.09 66.1744 192.055 66.2059C192.02 66.2374 191.999 66.2814 191.997 66.3283C191.995 66.3752 192.011 66.4211 192.042 66.4559C192.744 67.619 193.556 68.7115 194.467 69.7184V69.7184ZM181.78 74.4059C182.276 72.508 182.357 70.5254 182.017 68.5934C182.017 68.547 181.999 68.5025 181.966 68.4697C181.933 68.4368 181.889 68.4184 181.842 68.4184C181.796 68.4184 181.752 68.4368 181.719 68.4697C181.686 68.5025 181.667 68.547 181.667 68.5934C181.509 69.318 181.405 70.0534 181.355 70.7934C181.224 71.9874 181.25 73.1934 181.43 74.3809C181.405 74.6184 181.755 74.6434 181.78 74.4059ZM165.492 72.9934C166.055 72.1801 166.529 71.3084 166.905 70.3934C167.333 69.4941 167.648 68.5452 167.842 67.5684C167.837 67.538 167.823 67.5096 167.803 67.4861C167.783 67.4626 167.757 67.4449 167.728 67.4347C167.699 67.4245 167.667 67.4223 167.637 67.4282C167.606 67.4341 167.578 67.448 167.555 67.4684C167.43 67.6684 167.042 68.2434 166.805 68.7184C166.069 70.0372 165.53 71.4563 165.205 72.9309C165.183 72.9531 165.167 72.9809 165.159 73.0114C165.151 73.0418 165.152 73.0738 165.161 73.104C165.169 73.1342 165.186 73.1614 165.209 73.1828C165.232 73.2043 165.261 73.2191 165.291 73.2258C165.322 73.2325 165.354 73.2307 165.384 73.2208C165.414 73.2109 165.44 73.1931 165.461 73.1693C165.481 73.1455 165.495 73.1166 165.501 73.0857C165.506 73.0547 165.503 73.0228 165.492 72.9934V72.9934ZM88.08 159.218C94.6925 159.643 94.78 152.493 88.08 153.631C83.805 153.856 85.1175 158.993 88.08 159.218ZM88.08 154.006C93.6675 153.718 93.2175 158.581 88.08 158.268C86.305 158.181 84.7425 154.568 88.13 154.006H88.08ZM112.255 155.343C118.892 155.768 118.955 148.618 112.255 149.756C108.03 149.968 109.305 155.118 112.255 155.343ZM112.255 150.131C117.842 149.843 117.405 154.706 112.255 154.393C110.505 154.306 108.93 150.693 112.305 150.131H112.255ZM126.455 158.393C133.08 158.818 133.155 151.668 126.455 152.793C122.217 153.031 123.492 158.168 126.455 158.393ZM126.455 153.181C132.042 152.893 131.605 157.756 126.455 157.443C124.705 157.356 123.117 153.718 126.505 153.181H126.455ZM130.317 148.168C136.93 148.593 137.03 141.443 130.317 142.581C126.08 142.806 127.367 147.956 130.317 148.168ZM130.317 142.968C135.905 142.681 135.455 147.531 130.317 147.231C128.567 147.131 126.98 143.518 130.367 142.968H130.317ZM80.4675 132.668C82.1822 133.082 83.988 132.879 85.5675 132.093C88.0675 130.743 88.18 127.668 86.705 125.268C84.4175 121.518 79.655 121.906 77.955 124.593C77.2267 125.887 76.983 127.399 77.2675 128.856C77.4363 129.71 77.8182 130.507 78.3776 131.173C78.9371 131.84 79.656 132.354 80.4675 132.668ZM78.205 128.718C77.9503 127.482 78.1222 126.195 78.6925 125.068C79.2924 124.208 80.1713 123.581 81.1804 123.294C82.1896 123.007 83.2669 123.077 84.23 123.493C86.805 124.943 88.1675 129.818 85.13 131.306C83.7763 131.953 82.2451 132.129 80.78 131.806C80.1293 131.544 79.5536 131.125 79.1043 130.586C78.655 130.047 78.346 129.406 78.205 128.718V128.718Z" fill="white"/>
<path d="M80.8304 125.581C80.6804 125.331 79.8804 125.106 79.9429 125.868C80.0054 126.631 81.3054 126.343 80.8304 125.581ZM83.6179 125.606C83.8929 125.168 82.8054 124.356 82.6929 125.393C82.6554 125.731 83.1304 126.343 83.6179 125.606ZM80.5054 128.718C80.0429 129.031 81.4804 130.468 83.2554 129.668C83.5285 129.556 83.7653 129.371 83.9396 129.133C84.1139 128.894 84.2189 128.613 84.2429 128.318C84.2503 128.295 84.2529 128.27 84.2506 128.245C84.2483 128.22 84.2412 128.196 84.2296 128.174C84.218 128.152 84.2021 128.132 84.183 128.116C84.1638 128.1 84.1417 128.088 84.1179 128.081C84.0941 128.073 84.0691 128.071 84.0443 128.073C84.0194 128.075 83.9953 128.083 83.9733 128.094C83.9512 128.106 83.9317 128.122 83.9157 128.141C83.8998 128.16 83.8878 128.182 83.8804 128.206C83.4532 128.554 82.9455 128.789 82.4038 128.889C81.8622 128.99 81.3039 128.952 80.7804 128.781C80.7501 128.739 80.7054 128.709 80.6548 128.697C80.6041 128.686 80.551 128.693 80.5054 128.718V128.718ZM95.5929 135.143C96.7304 135.618 102.118 135.481 103.005 134.356C103.23 134.081 103.08 133.806 102.918 133.493C102.368 132.443 99.3054 127.318 98.2054 127.506C97.1054 127.693 96.0054 130.631 95.7054 131.593C95.4054 132.556 94.6804 134.756 95.5929 135.143V135.143ZM96.8429 130.368C97.0054 129.881 97.7054 127.981 98.2054 127.868C98.7054 127.756 101.955 133.743 102.03 133.868C100.054 134.39 97.9975 134.534 95.9679 134.293C96.0876 132.948 96.3991 131.626 96.8929 130.368H96.8429ZM128.043 70.0933C128.024 69.979 127.966 69.875 127.878 69.8C127.789 69.7249 127.677 69.6837 127.562 69.6837C127.446 69.6837 127.334 69.7249 127.246 69.8C127.157 69.875 127.099 69.979 127.08 70.0933C127.093 70.3861 127.143 70.6761 127.23 70.9558C127.241 71.025 127.265 71.0912 127.303 71.1499C127.341 71.2086 127.392 71.2584 127.45 71.296C127.509 71.3336 127.576 71.3581 127.645 71.3678C127.714 71.3775 127.785 71.3723 127.852 71.3523C127.919 71.3324 127.981 71.2983 128.033 71.2524C128.086 71.2064 128.128 71.1497 128.157 71.086C128.186 71.0223 128.2 70.9531 128.2 70.8832C128.2 70.8133 128.185 70.7443 128.155 70.6808C128.099 70.4891 128.061 70.2923 128.043 70.0933V70.0933ZM130.718 74.3308C131.038 74.1883 131.33 73.9893 131.58 73.7433C131.78 73.5558 131.693 73.3433 131.405 73.3933L130.568 73.5683C130.401 72.9596 130.297 72.3356 130.255 71.7058C130.255 71.2308 130.043 69.7058 129.793 69.6058C129.543 69.5058 129.48 69.9933 129.405 70.4183C129.18 71.8433 129.368 74.8558 130.718 74.3308V74.3308ZM132.78 69.7559C132.799 69.8702 132.857 69.9742 132.946 70.0492C133.034 70.1243 133.146 70.1655 133.262 70.1655C133.377 70.1655 133.489 70.1243 133.578 70.0492C133.666 69.9742 133.724 69.8702 133.743 69.7559V69.0683C133.727 68.9413 133.665 68.8247 133.568 68.7415C133.471 68.6582 133.346 68.6143 133.218 68.6183C133.09 68.631 132.971 68.6927 132.888 68.7905C132.804 68.8883 132.761 69.0147 132.768 69.1433C132.718 69.2308 132.78 69.7559 132.78 69.7559V69.7559ZM133.268 75.1184C133.093 75.1184 133.268 75.1183 132.33 75.8558C132.24 75.9296 132.144 75.9964 132.043 76.0559C131.118 76.5934 130.693 76.2933 130.605 76.5683C130.518 76.8433 131.255 77.2809 132.068 77.0809C133.393 76.7559 133.605 75.2184 133.268 75.1184V75.1184ZM42.7679 77.6433C42.9054 78.0683 43.4304 78.2558 43.8679 78.3558C47.4304 79.2558 60.2054 78.7433 64.0054 77.9933C64.4804 77.8933 65.2554 77.7308 65.5429 77.3433C66.4429 75.8558 66.0054 52.7683 64.9679 51.4683C63.9304 50.1683 45.6304 50.3309 43.9554 51.6309C42.7054 52.6309 42.4179 76.6183 42.7679 77.6433V77.6433ZM62.8929 66.3933C63.2656 66.2596 63.6636 66.2115 64.0575 66.2526C64.4513 66.2938 64.8308 66.423 65.1679 66.6309C65.2212 70.0437 65.0919 73.4569 64.7804 76.8559L64.5304 76.9434C63.6782 73.7612 61.9451 70.8843 59.5304 68.6433C60.562 67.7573 61.6899 66.99 62.8929 66.3558V66.3933ZM58.3054 56.3933C60.3679 57.7183 60.3054 61.1183 56.7054 61.1558C54.5179 61.1558 53.5804 60.1058 53.5804 58.8558C53.5673 58.3009 53.7091 57.7533 53.9899 57.2745C54.2707 56.7956 54.6793 56.4045 55.1699 56.1449C55.6605 55.8853 56.2138 55.7675 56.7676 55.8048C57.3215 55.842 57.854 56.0329 58.3054 56.3558V56.3933ZM45.9804 66.8933C49.6429 64.7058 52.3554 64.5808 55.9804 66.8933C59.2179 68.9808 62.7679 73.1433 63.6179 77.1558C59.8679 77.8308 45.4679 78.4059 43.6179 77.3934C43.4554 76.7184 43.3929 69.6433 43.3929 68.8683C44.1881 68.1153 45.0547 67.4412 45.9804 66.8558V66.8933ZM165.605 206.493C165.026 206.537 164.453 206.638 163.893 206.793C163.305 207.018 162.793 207.381 163.08 207.943C163.443 208.748 163.996 209.452 164.693 209.993C164.868 210.181 165.143 209.906 164.968 209.718C164.793 209.531 164.768 209.143 164.068 207.756C164.662 207.498 165.235 207.193 165.78 206.843C165.816 206.815 165.841 206.775 165.851 206.73C165.861 206.685 165.855 206.638 165.835 206.597C165.814 206.556 165.78 206.524 165.738 206.505C165.697 206.486 165.65 206.482 165.605 206.493ZM163.068 202.906C162.829 202.885 162.59 202.933 162.378 203.044C162.166 203.155 161.99 203.324 161.872 203.532C161.753 203.74 161.697 203.978 161.709 204.217C161.722 204.456 161.803 204.686 161.943 204.881C161.954 204.924 161.979 204.962 162.014 204.989C162.049 205.016 162.092 205.031 162.137 205.031C162.181 205.031 162.224 205.016 162.259 204.989C162.294 204.962 162.319 204.924 162.33 204.881C162.331 204.563 162.415 204.251 162.572 203.975C162.73 203.698 162.957 203.468 163.23 203.306C163.418 203.168 163.38 202.843 163.068 202.906V202.906ZM130.905 78.6183C130.775 78.6143 130.647 78.6528 130.54 78.7282C130.434 78.8036 130.354 78.9117 130.315 79.0361C130.275 79.1605 130.277 79.2944 130.321 79.4176C130.364 79.5407 130.447 79.6463 130.555 79.7184C130.686 79.8009 130.843 79.8301 130.994 79.7999C131.146 79.7696 131.279 79.6822 131.368 79.5558C131.424 79.4672 131.456 79.3655 131.462 79.2608C131.467 79.156 131.446 79.0515 131.4 78.9574C131.353 78.8633 131.283 78.7827 131.197 78.7233C131.11 78.6639 131.01 78.6278 130.905 78.6183V78.6183ZM133.105 79.4434C132.948 79.4584 132.802 79.5302 132.694 79.6452C132.586 79.7602 132.523 79.9106 132.518 80.0684C132.517 80.1848 132.55 80.2989 132.614 80.3964C132.677 80.4939 132.768 80.5702 132.876 80.6157C132.983 80.6613 133.101 80.674 133.215 80.6522C133.33 80.6304 133.435 80.5751 133.518 80.4933C133.61 80.4119 133.676 80.3039 133.704 80.1841C133.733 80.0643 133.725 79.9385 133.68 79.8237C133.635 79.709 133.555 79.611 133.453 79.5429C133.35 79.4749 133.229 79.4401 133.105 79.4434ZM133.068 77.5558C133.043 77.6448 133.039 77.7384 133.056 77.8293C133.073 77.9201 133.111 78.0058 133.166 78.0796C133.222 78.1534 133.294 78.2134 133.377 78.2548C133.459 78.2962 133.55 78.318 133.643 78.3183C133.731 78.3155 133.818 78.2943 133.898 78.2562C133.977 78.218 134.048 78.1637 134.106 78.0968C134.163 78.0298 134.206 77.9515 134.232 77.867C134.258 77.7825 134.266 77.6936 134.255 77.6058C134.228 77.472 134.156 77.3512 134.052 77.2626C133.948 77.174 133.818 77.1228 133.681 77.1171C133.545 77.1113 133.41 77.1514 133.299 77.2309C133.188 77.3104 133.107 77.4248 133.068 77.5558V77.5558ZM136.468 80.1308C136.597 80.1346 136.724 80.0955 136.829 80.0198C136.934 79.944 137.011 79.8358 137.048 79.7118C137.085 79.5879 137.08 79.4552 137.034 79.3343C136.988 79.2135 136.903 79.1112 136.793 79.0434C136.703 78.9884 136.6 78.9581 136.494 78.9556C136.389 78.9532 136.285 78.9786 136.192 79.0293C136.099 79.08 136.022 79.1542 135.967 79.2445C135.912 79.3347 135.883 79.4378 135.88 79.5434C135.884 79.6982 135.947 79.8457 136.056 79.9552C136.165 80.0647 136.313 80.1277 136.468 80.1308V80.1308ZM137.555 77.3433C137.639 77.3263 137.718 77.2915 137.787 77.2414C137.856 77.1913 137.914 77.1271 137.956 77.053C137.999 76.9788 138.025 76.8965 138.033 76.8115C138.041 76.7265 138.03 76.6408 138.003 76.5601C137.975 76.4794 137.93 76.4055 137.871 76.3435C137.813 76.2814 137.742 76.2326 137.663 76.2003C137.584 76.1679 137.499 76.1528 137.413 76.1559C137.328 76.159 137.244 76.1803 137.168 76.2183C137.038 76.2832 136.935 76.3933 136.88 76.5281C136.825 76.6629 136.82 76.8132 136.868 76.9509C136.915 77.0886 137.011 77.2044 137.138 77.2766C137.264 77.3488 137.413 77.3725 137.555 77.3433Z" fill="white"/>
<path d="M231.143 138.306C228.761 137.587 226.202 137.733 223.918 138.718C229.08 132.093 231.855 125.468 231.855 116.543C231.855 111.481 231.355 106.718 226.568 105.131C223.618 104.143 218.455 105.681 215.655 107.106C215.655 101.806 216.093 31.9432 214.193 26.8932C214.043 26.4557 213.193 26.2682 212.693 26.1432C207.305 24.8307 181.443 22.4807 180.193 23.5682C179.38 24.2682 179.655 29.5557 179.705 30.6057C178.018 30.6057 169.98 30.4932 168.905 31.7807C167.243 33.7432 158.393 56.5682 158.905 59.1057C158.93 59.249 159 59.3805 159.105 59.4807C164.405 64.6432 199.455 63.7057 201.055 60.4932C202.093 58.6182 195.055 33.8807 193.805 32.4682C192.555 31.0557 182.143 30.6807 180.155 30.6557C180.024 28.57 180.1 26.4765 180.38 24.4057C180.505 23.8807 180.593 23.9307 180.793 23.8932C184.143 23.2807 211.48 25.9807 213.53 27.2682C214.455 30.1182 214.468 48.3057 214.88 107.606C211.317 109.644 208.497 112.766 206.83 116.518C205.18 116.268 202.93 118.143 201.755 119.318C200.154 120.953 198.76 122.779 197.605 124.756C197.391 121.14 196.792 117.557 195.818 114.068C192.98 106.431 184.43 92.8182 178.468 98.5682C176.207 101.117 174.67 104.224 174.018 107.568C171.843 105.502 169.449 103.679 166.88 102.131C165.368 96.8158 162.025 92.2068 157.443 89.1182C155.58 87.8096 153.606 86.6677 151.543 85.7057C151.526 85.6659 151.505 85.6281 151.48 85.5932C150.23 84.1807 147.018 83.7557 145.105 83.6807C145.28 82.2432 144.043 75.9932 143.743 74.4682C144.115 74.4754 144.483 74.3803 144.805 74.1932C146.055 74.1182 150.955 73.8807 151.843 73.0932C152.006 72.907 152.111 72.6764 152.143 72.4307C152.351 71.1436 152.484 69.8456 152.543 68.5432C153.155 59.3057 152.743 59.7932 153.03 59.7932C156.98 61.2557 158.28 57.4432 153.03 55.5932V55.2182C154.568 54.8807 156.355 54.1682 155.643 52.7182C155.353 52.3101 154.966 51.9816 154.516 51.7632C154.065 51.5447 153.567 51.4432 153.068 51.4682C153.068 48.2932 153.905 3.85569 151.905 1.46819C149.668 -1.19431 81.3053 0.118195 78.9678 2.59319C77.5553 4.01819 78.4303 66.7932 80.0553 72.7682C80.1428 73.0807 80.4803 73.1432 80.8053 73.1932C86.2178 74.0682 118.305 74.4432 125.805 74.5182C125.964 75.325 126.169 76.1221 126.418 76.9057C126.992 78.3363 127.841 79.6402 128.918 80.7432C129.86 81.4017 130.97 81.7789 132.118 81.8307C131.743 82.6807 131.018 84.2557 130.643 85.0432C127.116 86.0821 123.751 87.605 120.643 89.5682C112.243 95.3557 106.03 106.131 101.305 114.968C100.421 116.718 99.6568 118.527 99.0178 120.381C93.8178 120.243 72.4428 120.993 71.8803 121.631C71.5928 121.906 71.8803 122.481 71.9553 122.993C72.9303 126.606 76.5678 138.381 78.0678 142.606C75.8053 142.968 73.5428 143.431 71.2803 143.856C71.22 143.689 71.1491 143.526 71.0678 143.368C71.0367 143.296 70.9914 143.23 70.9345 143.176C70.8775 143.121 70.8102 143.078 70.7364 143.05C70.6627 143.022 70.584 143.009 70.5052 143.012C70.4264 143.015 70.3489 143.034 70.2776 143.068C70.2062 143.101 70.1423 143.149 70.0897 143.208C70.0371 143.267 69.9969 143.336 69.9715 143.41C69.9461 143.485 69.936 143.564 69.9418 143.643C69.9476 143.721 69.9692 143.798 70.0053 143.868C70.0295 143.921 70.0503 143.975 70.0678 144.031C67.3928 144.393 65.8053 144.356 59.9053 145.193C59.8648 145.059 59.7775 144.943 59.6593 144.868C59.541 144.792 59.3995 144.761 59.2605 144.781C59.1215 144.801 58.9942 144.869 58.9015 144.975C58.8088 145.08 58.7569 145.215 58.7553 145.356C55.3303 145.868 52.2678 146.406 48.6303 147.081C48.5809 146.923 48.5224 146.769 48.4553 146.618C48.3921 146.476 48.2758 146.363 48.1311 146.305C47.9865 146.247 47.8247 146.247 47.6803 146.306C47.6086 146.336 47.5436 146.38 47.489 146.435C47.4344 146.49 47.3913 146.556 47.3622 146.628C47.3331 146.7 47.3187 146.777 47.3196 146.855C47.3206 146.933 47.337 147.009 47.3678 147.081C47.3678 147.156 47.3678 147.218 47.4553 147.293C44.3553 147.868 41.2053 148.468 38.1678 149.031V148.506C38.1433 148.353 38.0634 148.216 37.9434 148.119C37.8234 148.022 37.6718 147.973 37.5178 147.981C37.4405 147.988 37.3655 148.012 37.2971 148.048C37.2288 148.085 37.1684 148.136 37.1196 148.196C37.0708 148.257 37.0344 148.326 37.0126 148.401C36.9909 148.475 36.9841 148.553 36.9928 148.631C37.0053 148.835 37.0053 149.039 36.9928 149.243C35.4553 149.518 33.9053 149.768 32.3553 150.018C32.3082 149.891 32.2188 149.785 32.1022 149.716C31.9856 149.648 31.8489 149.622 31.7152 149.642C31.5815 149.663 31.459 149.729 31.3684 149.829C31.2778 149.93 31.2246 150.058 31.2178 150.193C20.9428 151.781 23.0928 151.268 20.2178 145.543C19.7309 144.232 18.9023 143.076 17.8178 142.193C17.646 142.094 17.4561 142.03 17.2593 142.005C17.0625 141.98 16.8627 141.995 16.6716 142.049C16.4806 142.102 16.3023 142.194 16.147 142.317C15.9918 142.441 15.8629 142.594 15.7678 142.768C14.9678 143.893 15.5303 147.681 15.7678 149.131C16.0053 150.581 17.2803 157.306 18.1553 158.181C18.4803 158.506 19.5428 158.531 20.4928 158.581V158.868C11.8178 159.681 0.817786 162.743 0.042786 171.468C-0.532214 178.006 4.76779 180.593 11.1553 181.981C10.7553 184.168 5.40529 212.731 5.69279 214.393C6.04279 216.281 10.5678 217.381 11.3303 215.343C12.5053 212.156 16.7928 186.256 17.3553 182.843C23.7496 183.424 30.1885 183.298 36.5553 182.468C37.1303 185.868 41.3928 211.618 42.5678 214.806C43.3178 216.831 47.8553 215.731 48.1928 213.856C48.4928 212.193 43.1928 183.931 42.6803 181.131C49.7928 179.006 57.0428 174.656 56.0553 167.268C65.1553 166.856 75.5678 165.731 84.5678 164.556C84.5592 166.167 84.9364 167.757 85.6678 169.193C86.5553 170.856 89.7428 171.993 91.5303 172.568C91.2053 174.306 85.1178 206.668 85.4303 208.431C85.7428 210.193 90.3053 211.406 91.0553 209.381C92.3053 206.068 96.8553 178.281 97.5678 174.131C111.418 176.993 117.843 176.156 122.805 175.593C122.93 177.081 125.305 207.831 126.093 209.343C126.918 211.068 131.58 210.943 131.78 208.793C132.093 205.331 129.28 178.168 129.018 174.781C136.637 173.813 144.123 171.984 151.33 169.331C152.83 175.043 156.643 189.331 156.968 190.493C153.339 191.918 150.27 194.479 148.218 197.793C146.015 198.775 143.87 199.881 141.793 201.106C140.645 201.61 139.542 202.208 138.493 202.893C137.501 203.521 136.65 204.346 135.993 205.318C135.92 205.479 135.883 205.654 135.883 205.831C135.883 206.007 135.92 206.182 135.993 206.343C136.297 206.963 136.722 207.515 137.243 207.968C139.53 209.956 140.693 209.018 145.043 215.231C147.268 218.393 148.08 222.431 150.868 225.843C152.83 228.243 153.805 230.843 158.368 229.681C160.868 229.056 162.243 227.968 165.655 227.043C167.393 226.581 169.18 226.243 170.918 225.718C181.693 222.493 179.155 223.368 186.53 222.318C187.78 222.131 189.118 221.843 190.405 221.643C192.663 221.459 194.928 221.392 197.193 221.443C197.478 221.369 197.733 221.209 197.925 220.986C198.117 220.763 198.237 220.486 198.268 220.193C198.377 219.537 198.407 218.869 198.355 218.206C198.483 216.685 198.105 215.165 197.28 213.881C203.055 214.881 218.268 213.681 219.543 212.931C219.661 212.87 219.757 212.774 219.818 212.656C220.568 211.043 221.63 196.618 221.643 191.093C222.062 191.027 222.479 190.947 222.893 190.856C223.768 190.643 223.893 186.556 223.343 185.443C223.298 185.335 223.23 185.237 223.144 185.157C223.057 185.077 222.955 185.017 222.843 184.981C219.268 184.168 209.48 184.368 205.63 184.518C205.49 179.861 204.984 175.222 204.118 170.643C208.752 169.578 213.257 168.015 217.555 165.981C225.568 162.018 230.218 160.456 235.58 152.718C239.418 147.218 237.48 140.406 231.143 138.306V138.306ZM193.505 32.6682C194.755 33.9182 200.593 56.4182 200.493 59.8932C200.418 62.7682 164.98 63.6432 159.868 58.9057C159.93 54.9932 168.268 33.7432 169.505 32.2432C170.743 30.7432 191.88 30.9182 193.505 32.6682V32.6682ZM218.68 106.831C220.768 106.143 224.18 105.331 226.268 106.031C230.593 107.468 230.893 112.006 230.893 116.543C230.893 125.968 227.718 132.693 222.005 139.581C219.38 141.028 216.987 142.861 214.905 145.018C216.029 140.338 216.304 135.495 215.718 130.718C215.621 129.869 215.441 129.032 215.18 128.218C216.051 125.583 217.129 123.021 218.405 120.556C220.418 116.806 221.23 116.868 220.905 116.556C220.889 116.537 220.869 116.522 220.846 116.512C220.823 116.502 220.799 116.496 220.774 116.496C220.749 116.496 220.725 116.502 220.702 116.512C220.679 116.522 220.659 116.537 220.643 116.556C217.998 119.541 215.98 123.027 214.705 126.806C213.543 123.706 210.543 118.143 207.605 116.806C208.656 114.464 210.184 112.368 212.091 110.65C213.998 108.932 216.242 107.632 218.68 106.831V106.831ZM202.355 119.968C203.416 118.769 204.801 117.901 206.343 117.468C208.718 117.093 214.293 125.768 214.755 130.893C215.418 136.14 214.992 141.468 213.505 146.543C212.254 147.907 211.089 149.347 210.018 150.856C207.655 154.206 206.393 154.881 204.418 160.243C204.755 146.968 205.805 129.918 205.805 129.356C205.818 129.327 205.823 129.295 205.82 129.264C205.817 129.233 205.807 129.203 205.789 129.177C205.772 129.151 205.748 129.129 205.721 129.115C205.693 129.1 205.662 129.093 205.63 129.093C205.418 129.093 205.418 129.356 205.393 129.556C205.055 132.743 203.805 153.718 203.555 161.856C201.343 151.193 196.055 147.168 194.268 144.581C193.58 135.968 196.18 126.056 202.355 119.968V119.968ZM177.355 129.556C178.605 132.993 180.843 137.881 183.605 140.243C180.754 139.644 177.796 139.79 175.018 140.668C175.655 138.431 177.018 132.243 177.38 129.518L177.355 129.556ZM173.293 143.718C173.271 143.381 173.354 143.044 173.53 142.756C176.03 139.456 189.518 139.368 197.28 149.781C201.035 155.085 203.108 161.396 203.23 167.893C199.768 162.043 187.768 150.568 180.03 147.893C180.006 147.885 179.981 147.882 179.956 147.883C179.931 147.885 179.906 147.891 179.884 147.902C179.861 147.913 179.841 147.928 179.824 147.947C179.808 147.966 179.795 147.988 179.787 148.012C179.778 148.036 179.775 148.061 179.776 148.086C179.778 148.111 179.784 148.136 179.795 148.158C179.806 148.181 179.822 148.201 179.841 148.218C179.86 148.235 179.881 148.247 179.905 148.256C189.018 151.593 203.343 167.118 203.155 170.281C202.382 170.266 201.608 170.316 200.843 170.431C199.759 170.43 198.676 170.346 197.605 170.181C194.18 169.593 191.98 168.018 186.768 163.118C183.099 159.763 179.693 156.132 176.58 152.256C175.393 150.193 173.255 146.131 173.293 143.718V143.718ZM174.793 108.056C175.369 104.759 176.849 101.687 179.068 99.1807C184.243 94.1807 192.38 107.643 194.868 114.343C195.923 118.256 196.552 122.271 196.743 126.318C194.318 131.57 193.191 137.327 193.455 143.106C189.88 137.706 184.905 125.968 183.093 116.856C182.755 115.243 181.393 106.731 181.393 105.743C181.543 105.493 181.018 105.206 180.993 105.743C181.296 111.264 182.104 116.745 183.405 122.118C185.317 128.815 187.993 135.27 191.38 141.356C194.08 146.356 194.618 144.431 188.655 141.693C187.446 141.164 186.19 140.746 184.905 140.443C184.238 139.953 183.618 139.401 183.055 138.793C178.118 133.081 173.593 117.168 174.793 108.068V108.056ZM80.8053 146.806C82.6428 146.906 84.6928 146.393 85.4553 144.743L94.3928 144.968C94.3103 145.774 94.5427 146.58 95.0413 147.219C95.5399 147.857 96.266 148.278 97.0678 148.393C97.8 148.489 98.5443 148.433 99.254 148.229C99.9637 148.025 100.624 147.676 101.193 147.206C101.489 146.945 101.72 146.617 101.865 146.25C102.011 145.883 102.068 145.486 102.03 145.093L107.918 145.181C108.23 145.631 125.718 143.593 127.28 142.856C128.055 142.493 127.83 141.218 127.38 140.493C127.53 140.493 127.455 140.493 127.63 140.781C127.736 141.041 127.914 141.267 128.143 141.431C130.284 141.692 132.456 141.439 134.48 140.693C134.88 140.418 134.83 140.093 134.743 139.581C145.843 138.006 144.918 138.331 151.218 136.881C151.568 136.806 146.843 138.443 144.03 139.956C142.673 140.671 141.412 141.557 140.28 142.593C137.43 145.331 131.155 164.993 126.143 165.943C120.021 166.969 113.788 167.146 107.618 166.468C107.796 166.031 107.84 165.551 107.747 165.089C107.654 164.627 107.426 164.202 107.093 163.868C106.571 163.39 105.961 163.019 105.296 162.776C104.631 162.534 103.925 162.425 103.218 162.456C101.043 162.456 99.9553 163.793 100.343 165.531C94.6214 164.607 88.9736 163.275 83.4428 161.543C82.8928 159.968 81.0928 148.718 80.8053 146.806V146.806ZM80.6053 144.556L84.3553 144.718C83.9035 145.162 83.3576 145.498 82.7582 145.701C82.1587 145.904 81.5211 145.97 80.8928 145.893C80.8428 145.756 80.7428 145.206 80.6053 144.556ZM101.105 145.081C101.111 145.164 101.111 145.247 101.105 145.331C101.069 145.637 100.961 145.931 100.789 146.187C100.617 146.443 100.387 146.656 100.118 146.806C99.1985 147.335 98.1348 147.558 97.0803 147.443C96.571 147.338 96.107 147.077 95.753 146.696C95.399 146.316 95.1726 145.834 95.1053 145.318C95.0991 145.206 95.0991 145.093 95.1053 144.981L101.105 145.081ZM112.718 135.856L109.705 136.231C118.893 123.931 113.68 129.481 112.718 135.856ZM109.105 137.106L112.855 136.681C113.168 137.231 116.168 138.206 116.743 138.393C116.633 138.602 116.541 138.819 116.468 139.043C113.78 138.843 110.955 138.656 108.03 138.556L109.105 137.106ZM133.868 139.968C132.166 140.452 130.398 140.663 128.63 140.593C127.283 137.493 126.131 134.312 125.18 131.068C126.612 129.815 128.329 128.931 130.18 128.493C130.73 129.806 133.805 138.643 133.868 139.968V139.968ZM127.105 139.631C120.08 140.068 118.355 140.318 117.243 140.043C117.168 137.006 122.38 135.431 125.405 134.943C126.005 136.781 126.63 138.456 127.105 139.618V139.631ZM112.668 142.368C114.093 142.168 125.168 140.693 126.593 141.031C126.766 141.33 126.849 141.673 126.83 142.018C125.105 142.543 108.418 144.768 108.268 144.781C108.108 144.296 108.024 143.791 108.018 143.281V143.181C108.643 143.168 106.305 143.243 112.668 142.356V142.368ZM107.305 139.393C109.805 139.493 112.418 139.631 116.305 139.943C116.305 140.281 116.305 140.593 116.655 140.843C117.005 141.093 117.905 140.731 112.38 141.768C110.821 141.979 109.287 142.352 107.805 142.881C107.055 139.093 107.018 139.731 107.305 139.381V139.393ZM106.755 166.081C100.318 165.406 100.755 165.631 100.743 165.356C100.706 165.026 100.76 164.692 100.898 164.39C101.037 164.088 101.256 163.83 101.53 163.643C102.93 162.731 107.555 163.831 106.755 166.068V166.081ZM150.63 85.7557C150.293 86.0182 138.668 94.8557 136.955 95.9307C136.089 94.5803 135.133 93.2899 134.093 92.0682C135.493 90.5182 144.918 84.0307 144.918 84.0307C145.318 84.0307 149.155 84.4432 150.63 85.7432V85.7557ZM125.905 87.4682C127.434 86.8501 129.005 86.3405 130.605 85.9432C133.105 92.0057 132.455 90.6807 132.88 91.7557C131.055 92.5764 129.277 93.4987 127.555 94.5182C126.793 92.7057 125.655 89.3807 125.905 87.4682ZM152.155 50.0432V51.6182C148.405 52.1057 148.405 52.8682 148.405 52.3807C150.443 51.2182 151.755 50.9057 152.168 49.9682L152.155 50.0432ZM147.255 59.7432C147 59.5162 146.714 59.3268 146.405 59.1807C146.218 59.0807 146.405 59.1807 146.405 58.8932C146.452 58.6622 146.452 58.4242 146.405 58.1932C146.716 58.275 147.034 58.3253 147.355 58.3432C147.293 58.7182 147.28 59.2432 147.268 59.6932L147.255 59.7432ZM143.18 53.0307C142.78 53.5682 142.305 54.1182 141.93 54.6807C142.483 52.4889 143.635 50.4939 145.255 48.9182C145.789 48.5747 146.299 48.1946 146.78 47.7807C148.33 45.9932 145.53 44.1682 143.255 46.2057C141.565 47.6579 140.408 49.6333 139.968 51.8182C139.643 53.4807 140.13 53.2807 139.53 53.1307C138.981 52.9321 138.38 52.9321 137.83 53.1307C137.43 51.9557 134.805 51.9682 133.918 52.6057C133.555 52.8682 133.805 52.8182 133.518 52.6057C132.958 52.4484 132.371 52.4173 131.798 52.5146C131.225 52.6119 130.681 52.8351 130.205 53.1682C130.093 53.2432 129.693 53.7432 129.468 53.9807C128.976 53.9561 128.485 54.0416 128.03 54.2307C127.56 54.446 127.192 54.8362 127.005 55.3182V55.6057C126.782 55.5651 126.553 55.5651 126.33 55.6057C125.488 55.9569 124.819 56.6262 124.468 57.4682C124.264 57.8513 124.206 58.2956 124.305 58.7182C123.218 59.3057 122.08 60.1557 122.268 61.3807C122.372 61.6883 122.529 61.9758 122.73 62.2307C122.418 62.4557 121.568 62.5557 121.743 64.4557L120.805 64.3807C120.155 61.0932 119.755 40.7057 120.08 40.4807C121.568 39.7932 144.68 39.7057 147.068 40.3682C147.349 43.1923 147.466 46.0305 147.418 48.8682C145.74 49.9318 144.301 51.3322 143.193 52.9807L143.18 53.0307ZM151.093 72.4057C149.557 72.8158 147.981 73.0547 146.393 73.1182C146.613 72.9576 146.78 72.7352 146.874 72.4792C146.967 72.2233 146.983 71.9454 146.918 71.6807C147.163 71.6342 147.393 71.5293 147.589 71.3748C147.785 71.2202 147.941 71.0207 148.043 70.7932C148.181 70.4223 148.181 70.0141 148.043 69.6432C147.968 69.4682 147.893 69.6432 148.28 69.4307C148.513 69.3208 148.719 69.1623 148.885 68.9659C149.052 68.7696 149.174 68.5398 149.244 68.2923C149.313 68.0447 149.329 67.785 149.29 67.5308C149.252 67.2765 149.159 67.0335 149.018 66.8182C149.21 66.5965 149.334 66.3237 149.374 66.0329C149.414 65.7421 149.368 65.446 149.243 65.1807C149.037 64.8175 148.722 64.5287 148.343 64.3557C148.529 64.0436 148.608 63.679 148.567 63.3178C148.527 62.9566 148.369 62.6186 148.118 62.3557C148.118 61.2807 148.218 59.9307 148.268 58.4182C149.557 58.4304 150.821 58.7702 151.943 59.4057C151.868 61.4432 151.593 70.5057 151.105 72.3557L151.093 72.4057ZM80.8553 72.4057C79.1803 65.2182 78.1553 4.04319 79.2303 2.94319C81.3053 0.668194 146.668 -0.169306 151.305 2.09319C151.534 2.90987 151.681 3.74736 151.743 4.59319C152.643 13.7807 152.38 39.5932 152.218 49.0557C151.63 47.6682 149.78 47.8057 148.38 48.3432C148.412 45.579 148.275 42.8155 147.968 40.0682C147.954 39.9314 147.901 39.8015 147.814 39.6948C147.728 39.5881 147.611 39.5093 147.48 39.4682C145.293 38.6807 120.793 39.2057 119.818 40.1307C119.218 40.7182 119.43 62.6307 120.08 64.7932C120.12 64.885 120.184 64.964 120.265 65.0214C120.347 65.0788 120.443 65.1123 120.543 65.1182C120.893 65.1182 121.705 65.2307 121.98 65.2432C122.193 65.6307 122.53 65.7057 122.718 65.8682C122.607 65.9599 122.521 66.0774 122.466 66.2104C122.412 66.3433 122.391 66.4877 122.405 66.6307C122.473 67.2793 122.725 67.8951 123.13 68.4057C123.73 69.1182 124.28 68.9057 124.893 68.9057C125.018 69.9432 125.28 71.6557 125.668 73.5557C116.718 73.5682 84.9053 73.0932 80.8678 72.3182L80.8553 72.4057ZM133.193 81.1557C133.052 81.0395 132.875 80.9774 132.693 80.9807C131.609 80.9606 130.55 80.659 129.618 80.1057C128.627 79.1002 127.834 77.9171 127.28 76.6182C126.309 73.3188 125.697 69.9241 125.455 66.4932C125.568 64.9432 127.13 63.0307 129.955 62.4432C132.183 62.0516 134.477 62.3345 136.543 63.2557C138.205 63.9182 140.505 66.5682 141.43 68.0057C141.473 68.0653 141.537 68.1062 141.609 68.1202C141.681 68.1341 141.756 68.12 141.818 68.0807C142.21 67.8274 142.63 67.6178 143.068 67.4557C143.441 67.3686 143.833 67.431 144.16 67.6297C144.487 67.8283 144.723 68.1473 144.818 68.5182C145.468 69.9932 143.03 72.4557 142.693 72.9307C142.646 73.0556 142.646 73.1933 142.693 73.3182C143.382 76.6824 143.875 80.084 144.168 83.5057C143.755 83.7432 143.243 84.1307 138.98 87.3307C137.147 88.5007 135.393 89.791 133.73 91.1932C133.268 89.7182 132.093 87.1182 131.493 85.8057C133.468 81.3807 133.493 81.4057 133.205 81.1182L133.193 81.1557ZM102.13 115.406C107.13 105.931 114.955 92.0557 125.455 87.7932C125.407 90.4526 125.944 93.0901 127.03 95.5182C127.072 95.5775 127.127 95.6259 127.191 95.6594C127.255 95.6928 127.327 95.7103 127.399 95.7103C127.471 95.7103 127.543 95.6928 127.607 95.6594C127.671 95.6259 127.726 95.5775 127.768 95.5182C128.249 95.1073 128.783 94.7626 129.355 94.4932C129.589 95.3921 129.987 96.2398 130.53 96.9932C130.255 98.5682 125.243 119.193 125.53 120.406C126.416 122.702 127.588 124.877 129.018 126.881C129.293 127.256 129.593 127.543 129.98 127.231C131.866 125.32 133.436 123.122 134.63 120.718C134.705 120.456 134.73 120.631 133.868 97.4432C134.28 96.9682 135.118 95.9682 135.505 95.3932C136.53 96.8307 135.955 96.6432 136.318 96.9307C136.68 97.2182 136.893 97.0557 137.205 96.9307C139.255 95.7557 149.705 87.6807 151.343 86.1182C153.378 87.0471 155.323 88.1601 157.155 89.4432C165.368 94.6932 167.155 103.881 168.018 113.556C168.593 120.356 167.73 126.131 162.705 130.456C159.387 133.146 155.481 135.017 151.305 135.918C148.58 136.593 136.73 138.331 134.48 138.643C133.493 135.55 132.35 132.509 131.055 129.531C135.143 127.756 142.48 125.143 146.655 123.731C146.728 123.711 146.791 123.666 146.834 123.604C146.878 123.543 146.898 123.468 146.893 123.393C146.618 119.893 146.255 110.756 147.605 107.506C147.705 107.281 147.343 107.131 147.243 107.356C145.793 110.668 145.993 119.556 146.193 123.168C141.905 124.543 134.818 126.918 130.693 128.706C130.518 128.331 130.505 128.156 130.155 128.118C129.093 128.031 125.005 129.768 124.443 130.831C124.193 131.293 124.955 133.631 125.218 134.468C122.618 134.693 118.968 135.556 117.243 137.556C115.989 137.2 114.775 136.718 113.618 136.118C114.168 132.368 117.193 126.406 119.093 123.243C119.818 121.993 120.73 113.881 120.818 112.543C120.887 111.348 120.887 110.151 120.818 108.956C120.807 108.913 120.782 108.875 120.747 108.847C120.712 108.82 120.668 108.805 120.624 108.805C120.58 108.805 120.536 108.82 120.501 108.847C120.466 108.875 120.441 108.913 120.43 108.956C120.355 109.731 120.218 110.631 120.055 111.656C119.98 112.218 119.093 121.356 118.18 122.906C115.28 127.018 109.918 134.543 106.818 138.518C106.705 138.018 102.98 121.343 102.255 120.893C101.512 120.658 100.735 120.544 99.9553 120.556C100.566 118.793 101.293 117.073 102.13 115.406V115.406ZM72.8178 122.331C76.7303 121.931 100.318 120.743 101.855 121.506C101.93 122.093 103.568 126.406 104.98 133.118C106.043 138.118 107.48 143.118 107.755 144.781C107.105 144.781 80.6553 143.731 79.4303 143.531C78.4803 141.393 73.4553 124.831 72.8178 122.331V122.331ZM18.8053 157.381C18.0553 156.131 15.4803 144.756 16.5678 143.231C17.9678 141.281 20.3178 148.356 21.0928 149.743C22.5928 152.681 25.1928 152.006 31.5553 150.993C31.7803 151.656 31.8553 152.243 32.4303 152.243C32.5265 152.241 32.6208 152.217 32.7053 152.171C32.7899 152.125 32.8622 152.059 32.9161 151.98C32.97 151.9 33.004 151.809 33.0152 151.713C33.0263 151.617 33.0144 151.521 32.9803 151.431C32.8803 151.181 32.8053 150.943 32.7428 150.743C37.5303 149.981 37.0178 149.943 37.0303 150.143C37.0303 150.299 37.0922 150.448 37.2024 150.559C37.3125 150.669 37.462 150.731 37.6178 150.731C37.7736 150.731 37.923 150.669 38.0332 150.559C38.1434 150.448 38.2053 150.299 38.2053 150.143V149.856C41.4053 149.281 44.5928 148.606 47.7928 148.068C47.7928 148.243 47.8803 148.406 47.9428 148.568C47.9942 148.716 48.1021 148.837 48.2427 148.905C48.3834 148.973 48.5453 148.982 48.6928 148.931C48.8403 148.879 48.9614 148.771 49.0294 148.631C49.0973 148.49 49.1067 148.328 49.0553 148.181C49.0553 148.068 49.0553 147.956 48.9553 147.856C52.4428 147.206 55.4678 146.606 58.8678 146.156V147.006C58.8743 147.083 58.8961 147.158 58.9316 147.227C58.9672 147.295 59.016 147.357 59.0752 147.406C59.1344 147.456 59.2029 147.494 59.2767 147.518C59.3504 147.541 59.4281 147.55 59.5053 147.543C59.5824 147.537 59.6575 147.515 59.7263 147.479C59.7951 147.444 59.8562 147.395 59.9061 147.336C59.956 147.277 59.9937 147.208 60.0172 147.134C60.0407 147.061 60.0494 146.983 60.0428 146.906V145.993C66.2928 145.081 67.4303 145.193 70.4428 144.743L70.6553 145.331C70.7281 145.456 70.8437 145.55 70.9807 145.597C71.1178 145.644 71.2671 145.639 71.4011 145.584C71.5351 145.529 71.6447 145.428 71.7098 145.299C71.7749 145.169 71.7911 145.021 71.7553 144.881C71.7082 144.775 71.6665 144.666 71.6303 144.556C73.8928 144.181 76.1428 143.706 78.4178 143.306C78.8178 144.356 78.7678 144.343 79.9928 144.443C80.1303 144.443 80.5803 149.556 82.2303 158.731C68.1803 159.506 41.2428 159.981 27.9803 157.881C27.1803 157.756 25.9303 157.706 26.0553 157.706C24.6178 155.793 21.9803 152.156 20.8553 154.231C20.3341 155.225 20.1624 156.365 20.3678 157.468C19.8455 157.477 19.3233 157.448 18.8053 157.381V157.381ZM32.7178 159.431C31.257 159.793 29.8207 160.248 28.4178 160.793C27.8248 160.134 27.2697 159.441 26.7553 158.718C28.0553 158.843 28.8678 159.081 32.6928 159.431H32.7178ZM10.4803 214.968C10.2053 215.718 8.18029 215.493 7.16779 214.768C6.38029 214.193 6.11779 216.806 11.6928 182.056C13.4234 182.403 15.1719 182.653 16.9303 182.806C13.2678 201.531 11.0803 213.306 10.4803 214.968ZM47.2678 213.093C47.2678 213.656 47.4303 213.843 46.8553 214.268C45.8678 214.981 43.8178 215.243 43.5303 214.481C42.9053 212.806 40.4678 199.681 37.1053 182.406C38.8462 182.124 40.5698 181.744 42.2678 181.268C43.6928 190.181 47.1803 212.118 47.2678 213.031V213.093ZM27.2678 176.568C20.1178 176.568 4.89279 176.306 1.29279 170.093C3.14279 162.831 13.3053 160.481 20.7553 159.718C21.3819 162.136 22.1499 164.515 23.0553 166.843C23.4967 167.934 24.3244 168.824 25.3803 169.343C26.2304 169.566 27.1193 169.599 27.9836 169.439C28.8479 169.279 29.6662 168.931 30.3803 168.418C47.7678 166.618 41.1553 167.818 53.8803 167.381C49.2678 174.518 35.9053 176.518 27.2803 176.506L27.2678 176.568ZM38.6553 166.731C38.3428 166.731 30.2053 167.393 29.9053 167.568C29.3046 168.003 28.6192 168.307 27.8934 168.46C27.1677 168.613 26.4179 168.611 25.6928 168.456C24.8802 168.032 24.2462 167.331 23.9053 166.481C23.1428 164.568 19.9428 155.818 21.7178 154.718C23.0553 154.893 27.0553 161.356 28.0303 161.818C28.1096 161.859 28.1974 161.88 28.2865 161.88C28.3756 161.88 28.4635 161.859 28.5428 161.818C30.815 160.929 33.1561 160.226 35.5428 159.718C51.1029 160.531 66.6978 160.405 82.2428 159.343C82.3869 160.23 82.5873 161.107 82.8428 161.968C82.8636 162.019 82.8958 162.065 82.9369 162.102C82.9781 162.139 83.0271 162.166 83.0803 162.181C84.3303 162.581 85.8678 163.081 87.7803 163.618C54.7303 167.706 47.6553 165.993 38.6678 166.668L38.6553 166.731ZM90.2053 209.056C89.9303 209.806 87.8928 209.568 86.8928 208.843C86.1178 208.293 85.7303 211.518 91.9678 172.706C93.5428 173.193 95.3178 173.656 97.2053 174.056C92.9428 195.843 90.8428 207.331 90.2178 208.993L90.2053 209.056ZM130.868 208.743C130.793 209.531 128.78 209.843 127.618 209.406C126.693 209.056 127.143 211.768 123.318 175.556C125.068 175.356 126.83 175.131 128.605 174.881C130.055 195.481 131.043 206.956 130.88 208.718L130.868 208.743ZM151.83 169.193C153.493 168.543 155.143 167.843 156.743 167.081L162.255 188.868C160.755 189.137 159.285 189.556 157.868 190.118C156.305 184.543 153.393 174.531 151.843 169.131L151.83 169.193ZM167.255 189.381C170.264 189.492 173.243 190.022 176.105 190.956C177.122 191.238 178.123 191.572 179.105 191.956C182.17 193.355 184.923 195.353 187.205 197.831C189.43 200.456 189.93 203.868 189.705 207.331C189.543 209.418 188.193 210.781 186.555 212.106C186.38 210.693 184.055 209.606 182.705 209.393C182.505 209.393 182.48 209.468 183.018 209.168C183.979 208.635 184.749 207.813 185.218 206.818C185.393 206.631 185.105 206.368 184.943 206.556C183.58 207.493 182.855 208.243 181.018 209.393C180.893 209.393 180.918 209.693 180.118 209.656C179.004 209.393 177.862 209.267 176.718 209.281C176.152 207.857 175.939 206.319 176.096 204.795C176.252 203.272 176.775 201.809 177.618 200.531C179.768 197.643 180.58 198.693 180.58 198.156C180.58 197.318 175.105 198.831 175.168 205.506C175.214 206.825 175.583 208.113 176.243 209.256C174.756 209.329 173.293 209.659 171.918 210.231C171.63 209.968 170.43 210.593 169.655 210.231C170.316 207.994 170.562 205.656 170.38 203.331C170.194 201.943 169.607 200.64 168.693 199.581C167.672 198.417 166.386 197.516 164.943 196.956C161.968 195.881 160.955 197.393 159.193 197.956C158.901 198.054 158.585 198.054 158.293 197.956C157.168 197.593 154.13 196.706 153.468 197.718C152.955 198.481 153.705 199.606 154.193 200.456C154.68 201.306 154.843 201.356 154.03 203.418C153.788 204.102 153.47 204.756 153.08 205.368C152.443 206.031 150.305 206.518 149.905 207.293C149.093 208.793 152.18 210.306 152.755 211.043C153.33 211.781 154.33 213.143 154.868 213.718C156.905 215.943 161.893 216.456 164.48 215.631C165.729 215.237 166.856 214.532 167.755 213.581C168.543 214.243 168.393 215.281 168.18 216.318C168.055 216.918 167.418 217.268 166.93 217.568C165.325 218.605 163.424 219.088 161.518 218.943C161.021 218.782 160.54 218.577 160.08 218.331C158.833 218.034 157.642 217.535 156.555 216.856C155.611 215.9 154.507 215.118 153.293 214.543C147.38 213.031 146.255 205.931 148.118 200.356C150.418 193.281 159.63 189.181 167.268 189.318L167.255 189.381ZM163.18 215.293C164.43 213.143 163.718 210.293 162.368 208.293C160.743 205.793 159.293 206.668 158.18 206.093C156.605 205.268 156.368 204.343 155.743 203.893C155.443 203.697 155.114 203.55 154.768 203.456C155.06 202.82 155.241 202.14 155.305 201.443C155.218 200.593 153.843 198.768 154.055 198.356C154.718 198.043 157.18 198.731 157.88 198.968C159.218 199.418 160.755 198.156 161.93 197.718C163.868 197.081 166.58 198.718 167.893 200.218C170.03 202.718 169.555 205.781 168.918 208.968C168.748 210.483 168.102 211.905 167.074 213.03C166.045 214.155 164.686 214.926 163.193 215.231L163.18 215.293ZM160.755 211.418C160.855 211.593 160.618 211.831 160.405 211.606C160.243 211.445 160.123 211.247 160.055 211.029C159.987 210.811 159.975 210.58 160.018 210.356C160.038 210.132 160.124 209.92 160.264 209.744C160.404 209.569 160.592 209.438 160.805 209.368C161.143 209.256 161.18 209.568 161.055 209.668C160.88 209.908 160.764 210.185 160.714 210.478C160.664 210.771 160.682 211.071 160.768 211.356L160.755 211.418ZM197.53 218.293C197.53 218.993 197.68 220.093 197.218 220.543C196.98 220.781 193.705 220.268 190.355 220.756C189.105 220.943 187.768 221.231 186.48 221.406C179.268 222.431 181.48 221.593 170.718 224.843C168.993 225.356 167.23 225.693 165.493 226.156C162.118 227.068 160.655 228.181 158.218 228.781C154.33 229.756 153.655 227.631 151.718 225.281C148.993 221.956 148.205 217.981 145.918 214.743C141.418 208.381 140.243 209.331 137.93 207.356C137.475 206.981 137.101 206.517 136.83 205.993C136.791 205.927 136.77 205.852 136.77 205.774C136.77 205.697 136.791 205.622 136.83 205.556C137.44 204.802 138.156 204.141 138.955 203.593C139.968 202.921 141.034 202.331 142.143 201.831C143.868 200.893 146.18 199.456 147.68 198.806C144.843 204.806 145.855 213.806 152.93 215.506C153.382 215.659 153.804 215.888 154.18 216.181C155.057 216.99 156.021 217.698 157.055 218.293C157.905 218.668 158.868 218.868 159.718 219.181C160.411 219.591 161.19 219.832 161.993 219.887C162.796 219.941 163.601 219.806 164.343 219.493C165.717 219.079 166.993 218.39 168.093 217.468C168.323 217.229 168.483 216.93 168.555 216.606C168.78 215.356 168.88 214.193 167.93 213.418C168.601 212.596 169.109 211.654 169.43 210.643C169.866 210.803 170.336 210.847 170.793 210.768C168.918 212.306 169.468 213.631 171.88 214.243C174.205 214.819 176.617 214.959 178.993 214.656C181.343 214.443 184.505 214.581 186.405 213.131C188.305 211.681 190.23 209.993 190.468 207.406C190.705 204.818 190.33 204.218 190.705 205.031C191.443 206.606 192.018 208.268 192.868 209.756C194.318 212.256 197.018 213.706 197.405 216.656C197.49 217.177 197.54 217.703 197.555 218.231L197.53 218.293ZM219.093 212.256C219.093 212.256 219.093 212.181 219.093 212.256C219.343 212.718 200.868 214.231 196.468 212.881C196.28 212.656 196.093 212.431 195.88 212.206C194.63 208.043 192.993 196.743 192.493 192.931C202.123 192.967 211.747 192.395 221.305 191.218C221.168 194.768 219.793 210.306 219.105 212.193L219.093 212.256ZM222.843 185.706C223.336 187.263 223.336 188.936 222.843 190.493C222.318 191.318 193.268 192.381 191.055 191.818C190.448 190.366 190.22 188.783 190.393 187.218C190.393 187.218 190.968 186.956 191.568 186.818C197.805 185.368 222.243 184.668 222.905 185.643L222.843 185.706ZM204.893 184.631C201.53 184.768 194.205 185.156 191.043 185.968C190.48 186.118 189.693 186.343 189.543 186.856C189.168 188.043 189.605 191.618 190.443 192.518C190.705 192.818 191.455 192.843 192.005 192.881C192.468 197.518 193.543 206.106 194.505 210.681C192.443 208.256 192.005 205.531 190.293 202.843C189.98 200.781 189.116 198.842 187.793 197.231C185.418 194.631 182.544 192.535 179.343 191.068C178.393 190.681 177.405 190.381 176.255 190.031C172.02 188.562 167.499 188.104 163.055 188.693C162.743 187.443 158.68 172.681 157.068 166.881C165.105 162.906 169.98 155.718 172.993 147.268C173.737 149.185 174.653 151.03 175.73 152.781C177.105 155.031 189.393 167.656 194.218 169.806C196.287 170.661 198.52 171.045 200.755 170.931C201.525 170.908 202.293 170.842 203.055 170.731C203.33 171.906 204.03 175.231 204.955 184.568L204.893 184.631ZM234.755 152.243C229.505 159.818 224.843 161.356 217.105 165.193C213.07 167.131 208.848 168.655 204.505 169.743C205.693 166.831 209.055 163.193 211.18 160.993C216.421 155.678 221.963 150.67 227.78 145.993C227.82 145.963 227.846 145.919 227.853 145.87C227.86 145.82 227.848 145.77 227.818 145.731C227.788 145.691 227.744 145.665 227.694 145.658C227.645 145.651 227.595 145.663 227.555 145.693C215.543 153.843 206.305 164.443 204.118 168.518C204.147 166.989 204.059 165.459 203.855 163.943C204.348 161.656 205.142 159.445 206.218 157.368C207.473 155.19 208.925 153.131 210.555 151.218C214.918 145.181 223.668 136.831 230.793 139.218C236.605 141.106 238.255 147.218 234.818 152.181L234.755 152.243Z" fill="white"/>
<path d="M54.543 150.53C54.6429 150.529 54.7408 150.503 54.828 150.454C54.9152 150.405 54.9888 150.336 55.0422 150.251C55.0956 150.167 55.127 150.07 55.1337 149.971C55.1404 149.871 55.1221 149.771 55.0805 149.68C54.843 149.155 54.718 148.655 54.3805 148.043C54.304 147.907 54.1778 147.807 54.0285 147.762C53.8792 147.718 53.7186 147.734 53.5805 147.805C53.5121 147.842 53.4517 147.892 53.4027 147.952C53.3537 148.012 53.3171 148.082 53.295 148.156C53.2729 148.23 53.2658 148.308 53.274 148.386C53.2823 148.463 53.3057 148.537 53.343 148.605C53.893 149.618 53.8805 150.53 54.543 150.53ZM43.418 151.868C43.4276 152.023 43.4968 152.168 43.611 152.273C43.7252 152.377 43.8755 152.434 44.0305 152.43C44.1077 152.427 44.1834 152.409 44.2535 152.376C44.3235 152.344 44.3865 152.298 44.4387 152.241C44.491 152.184 44.5315 152.117 44.558 152.045C44.5844 151.972 44.5963 151.895 44.593 151.818C44.593 150.568 44.868 149.568 43.9305 149.505C43.7734 149.521 43.6289 149.598 43.5282 149.72C43.4276 149.842 43.379 149.998 43.393 150.155C43.4555 150.755 43.393 151.218 43.418 151.868V151.868ZM65.368 148.605C65.3745 148.683 65.3962 148.758 65.4318 148.827C65.4674 148.895 65.5162 148.956 65.5754 149.006C65.6346 149.056 65.7031 149.094 65.7768 149.117C65.8506 149.141 65.9283 149.15 66.0055 149.143C66.0826 149.136 66.1577 149.115 66.2265 149.079C66.2953 149.044 66.3563 148.995 66.4063 148.936C66.4562 148.876 66.4939 148.808 66.5174 148.734C66.5408 148.66 66.5495 148.583 66.543 148.505C66.543 147.918 66.543 147.393 66.443 146.718C66.4016 146.578 66.3108 146.459 66.1875 146.381C66.0643 146.303 65.917 146.273 65.7732 146.296C65.6294 146.319 65.4988 146.394 65.4058 146.506C65.3129 146.618 65.2639 146.76 65.268 146.905C65.3555 147.468 65.318 147.993 65.368 148.605Z" fill="white"/>
</svg>
