<svg width="229" height="238" viewBox="0 0 229 238" fill="none" xmlns="http://www.w3.org/2000/svg">
<path d="M77.9387 181.339C80.0224 180.601 82.1573 180.016 84.3262 179.589L84.5887 180.552C84.6181 180.665 84.6873 180.764 84.7837 180.831C84.8801 180.897 84.9973 180.927 85.1137 180.914L93.7012 179.914C96.0637 174.527 100.401 166.364 100.464 166.239C100.401 164.202 100.464 162.489 100.464 160.539C95.5512 162.364 86.4637 165.827 81.7137 168.039C81.6063 168.108 81.5233 168.209 81.4762 168.328C81.4291 168.447 81.4204 168.578 81.4512 168.702C81.4512 168.702 81.5387 169.014 81.6512 169.464C79.3262 169.464 72.3637 169.127 70.6887 170.714C70.4283 171.077 70.3003 171.518 70.3262 171.964C70.2262 173.689 71.0887 187.089 72.4637 191.027C73.1762 193.089 74.6762 192.864 75.7012 190.889C76.8876 187.915 77.6492 184.788 77.9637 181.602C77.9637 181.439 77.9262 181.452 77.9387 181.339V181.339ZM76.5012 170.152C78.0262 170.027 78.5012 170.052 81.7762 169.952C82.3637 172.177 83.5762 176.752 84.2012 179.089C81.9958 179.431 79.8189 179.936 77.6887 180.602C77.0249 177.154 76.6279 173.66 76.5012 170.152Z" fill="white"/>
<path d="M192.989 60.7512C193.301 60.3137 192.901 59.7512 192.564 59.3137C193.52 58.3304 194.58 57.4543 195.726 56.7012C197.66 55.7374 199.428 54.4715 200.964 52.9512C201.601 52.2887 202.801 50.9262 202.351 50.1262C201.901 49.3262 201.101 49.2762 200.014 49.7387C200.485 49.244 200.869 48.6736 201.151 48.0512C201.501 47.0762 200.676 46.2887 198.889 47.0137C199.539 45.9762 199.689 44.8887 198.589 44.3637C197.701 43.9387 196.401 44.9512 195.651 45.6137C194.179 46.9005 192.796 48.2871 191.514 49.7637C190.726 48.1137 189.476 46.2137 187.914 46.8137C186.351 47.4137 187.564 50.1012 188.364 51.5637L185.526 53.5262C185.097 53.2947 184.613 53.1866 184.126 53.2137C180.901 53.7637 166.089 65.0387 164.589 65.0387C163.439 65.0387 147.014 57.1637 132.814 54.8887C132.786 54.8036 132.735 54.7279 132.667 54.6704C132.598 54.6129 132.515 54.5759 132.426 54.5637C129.95 54.1411 127.438 53.9528 124.926 54.0012C124.85 54.0064 124.776 54.028 124.709 54.0647C124.642 54.1014 124.584 54.1523 124.539 54.2137H123.489C123.239 53.2012 122.314 50.8637 121.989 49.9637C122.839 49.2262 124.014 48.8512 124.626 47.6637C125.751 45.4637 125.701 41.6387 125.389 39.1887C126.801 38.1137 126.839 36.3887 126.514 34.6262C126.389 33.9137 126.001 32.3012 125.401 31.9012C125.064 31.6762 124.351 31.9012 123.739 32.1262C123.126 30.7012 123.126 31.3512 123.376 30.7762C123.492 30.5112 123.56 30.2276 123.576 29.9387C124.239 30.1387 125.614 28.8137 125.139 27.0637C124.89 26.4373 124.584 25.8348 124.226 25.2637C124.401 24.8387 124.776 24.3262 123.601 22.7637C123.095 22.2179 122.438 21.8349 121.714 21.6637H121.139C120.724 21.0616 120.115 20.6202 119.414 20.4137C118.355 20.1438 117.233 20.3009 116.289 20.8512C116.039 21.0387 115.839 21.2887 115.589 21.4637C115.024 21.1205 114.375 20.939 113.714 20.939C113.053 20.939 112.404 21.1205 111.839 21.4637C111.508 21.5936 111.207 21.7889 110.953 22.0381C110.7 22.2873 110.499 22.5851 110.364 22.9137C109.751 22.7024 109.102 22.6211 108.456 22.6749C107.81 22.7287 107.183 22.9164 106.614 23.2262C104.454 24.3972 102.839 26.3669 102.114 28.7137C102.094 29.0676 102.094 29.4224 102.114 29.7762H101.976C100.101 29.5012 97.7138 33.9512 99.6263 37.4137C99.8513 37.8262 100.139 38.2137 100.414 38.6637C101.214 39.9137 100.901 40.2887 102.689 41.8137C103.214 42.2637 103.301 42.2262 103.626 42.5012C103.951 42.7762 103.826 42.6387 104.014 43.3387C104.116 43.7511 104.299 44.1391 104.552 44.4802C104.805 44.8214 105.124 45.1089 105.489 45.3262C105.622 46.5489 106.143 47.6967 106.976 48.6012C107.24 48.8965 107.548 49.1495 107.889 49.3512C107.981 49.403 108.083 49.433 108.189 49.4387C108.564 51.7637 109.026 54.7887 109.226 56.0762L108.114 56.6762C106.658 57.2619 105.243 57.9425 103.876 58.7137C103.769 58.7879 103.693 58.8993 103.664 59.0262C102.339 59.7262 101.089 60.3887 100.376 60.8137C90.4513 66.7012 62.2638 105.514 61.9763 107.289C61.9446 107.39 61.9446 107.499 61.9763 107.601C62.3803 108.246 62.8726 108.831 63.4388 109.339C63.2643 109.657 63.0547 109.955 62.8138 110.226C60.3138 111.864 56.5638 114.301 54.5513 116.476C54.4102 116.602 54.3043 116.763 54.2441 116.942C54.1839 117.121 54.1715 117.313 54.2081 117.498C54.2447 117.684 54.329 117.857 54.4528 118C54.5765 118.143 54.7354 118.251 54.9138 118.314C55.2888 118.439 55.3513 118.401 57.7888 117.064C57.1189 117.651 56.571 118.365 56.1763 119.164C56.0138 119.851 56.6388 120.251 57.4263 120.126C57.8694 120.01 58.2913 119.824 58.6763 119.576C58.4508 119.924 58.3309 120.33 58.3309 120.745C58.3309 121.16 58.4508 121.566 58.6763 121.914C59.9263 123.489 63.2013 118.526 64.9263 117.301C65.6263 118.189 66.5763 120.264 68.0888 119.714C69.4013 119.226 67.9638 116.339 68.0888 115.501C68.5974 115.013 69.1405 114.562 69.7138 114.151C70.6781 114.866 71.7806 115.373 72.9513 115.639C75.0138 115.639 96.5388 93.9137 98.1763 92.1762C97.5888 97.7012 94.6263 121.414 95.2513 126.026C95.5388 128.114 100.551 128.414 102.664 128.526C102.026 143.526 101.601 166.251 101.489 166.489C98.1763 173.626 97.2763 175.576 96.1638 177.739C94.1388 181.614 85.6138 195.914 84.6513 199.164C84.5138 199.676 84.5013 199.876 85.0388 200.826C83.428 202.52 81.933 204.32 80.5638 206.214C79.8763 207.464 82.8263 219.114 84.9138 223.239C85.3888 224.164 86.1638 225.589 87.2013 225.551C90.3263 225.439 90.3138 214.214 90.2263 211.076C90.2258 210.98 90.1903 210.886 90.1263 210.814C90.6927 209.968 91.3106 209.158 91.9763 208.389C92.3737 208.662 92.7916 208.905 93.2263 209.114C93.6513 209.301 94.1263 208.976 94.4763 208.689C98.6388 205.414 121.089 177.439 125.901 164.239C128.089 158.214 131.001 149.889 131.826 143.989C132.331 140.258 132.377 136.48 131.964 132.739C131.964 132.686 131.985 132.635 132.022 132.597C132.06 132.56 132.111 132.539 132.164 132.539C132.217 132.539 132.268 132.56 132.305 132.597C132.343 132.635 132.364 132.686 132.364 132.739C132.99 136.502 133.112 140.331 132.726 144.126C131.801 152.314 125.339 169.376 121.889 175.651C124.864 175.101 130.914 173.901 133.839 173.026C143.589 170.064 152.589 161.226 153.376 151.301C153.631 146.626 153.631 141.939 153.376 137.264C153.292 130.809 152.453 124.386 150.876 118.126C153.526 116.689 155.951 115.001 156.739 113.451C158.426 110.139 153.964 91.0762 152.989 85.7262C158.326 86.3137 167.414 87.3762 171.651 84.0637C176.501 80.1637 186.976 69.1887 192.989 60.7512ZM89.5513 210.389C87.3013 209.026 84.1513 205.789 83.6763 203.251C84.1888 202.601 84.7263 202.001 85.2263 201.326C86.9203 203.911 89.0325 206.197 91.4763 208.089C90.7898 208.817 90.147 209.585 89.5513 210.389ZM188.926 51.9137C188.991 51.8725 189.037 51.808 189.056 51.7336C189.075 51.6592 189.064 51.5806 189.026 51.5137C188.589 50.7012 187.276 47.8387 188.189 47.5137C188.714 47.3137 189.176 47.6387 189.564 48.0762C190.156 48.8269 190.616 49.6721 190.926 50.5762C190.949 50.6497 190.992 50.7156 191.05 50.7667C191.108 50.8178 191.178 50.8522 191.254 50.8664C191.33 50.8805 191.408 50.8737 191.48 50.8469C191.552 50.82 191.616 50.774 191.664 50.7137C192.914 49.3262 195.839 46.1637 197.489 45.3137C198.739 44.6637 199.039 45.8637 195.976 48.6637C195.273 49.2001 194.597 49.7716 193.951 50.3762C193.916 50.4253 193.897 50.4844 193.897 50.545C193.897 50.6056 193.916 50.6647 193.951 50.7137C193.951 51.0387 194.214 51.4012 194.664 51.0637C195.75 50.1099 196.899 49.2289 198.101 48.4262C198.715 47.9902 199.429 47.7151 200.176 47.6262C199.801 48.7762 196.314 51.9012 196.014 52.2512C195.919 52.3365 195.861 52.4557 195.853 52.5832C195.845 52.7108 195.887 52.8363 195.97 52.933C196.054 53.0297 196.172 53.0897 196.299 53.1001C196.427 53.1105 196.553 53.0705 196.651 52.9887C198.039 52.0887 200.464 49.9887 201.301 50.3012C202.139 50.6137 199.651 52.9387 199.026 53.4887C195.439 56.6012 196.364 54.6012 192.214 58.8262C190.407 56.8474 188.333 55.1308 186.051 53.7262L188.926 51.9137ZM134.614 111.701C134.401 109.976 134.139 108.114 133.814 106.176L134.351 105.464C136.851 102.251 137.601 97.1387 137.364 93.1262C138.701 98.9887 139.764 104.751 140.576 110.476L134.614 111.701ZM116.026 68.9012C112.739 66.4012 107.451 62.0887 104.376 59.1387L109.376 56.6387C113.968 60.9273 117.898 65.8727 121.039 71.3137C125.841 80.1366 129.404 89.5798 131.626 99.3762L113.801 74.1637L116.126 69.3387C116.157 69.2644 116.164 69.1824 116.146 69.104C116.128 69.0256 116.086 68.9548 116.026 68.9012ZM124.476 54.7262C124.551 54.8637 125.414 56.7012 126.726 59.9137C126.726 60.0512 126.489 63.1762 126.376 64.2762C124.781 63.6438 123.276 62.8032 121.901 61.7762C122.176 60.6887 123.414 55.7512 123.501 54.6387L124.476 54.7262ZM120.039 68.1512C120.126 67.9262 120.214 67.6262 120.314 67.2762L121.151 67.7137C121.626 68.0262 121.439 67.0762 121.864 69.8262C121.864 70.2887 121.989 70.8012 122.014 71.3637C121.439 70.3262 120.726 69.2137 120.051 68.1512H120.039ZM119.339 67.1012C116.977 63.7517 114.289 60.6448 111.314 57.8262L120.726 61.9137C120.364 62.7762 119.839 65.4137 119.351 67.1012H119.339ZM128.951 74.4262C127.701 71.0137 126.739 67.2012 126.264 66.2012C126.292 65.8894 126.292 65.5756 126.264 65.2637C126.445 65.331 126.634 65.3731 126.826 65.3887C126.947 65.3901 127.064 65.3478 127.156 65.2697C127.248 65.1916 127.308 65.083 127.326 64.9637C127.426 64.5512 127.589 62.4637 127.614 62.0012C131.25 71.1819 134.286 80.5892 136.701 90.1637C129.639 75.1387 130.726 79.4887 128.964 74.4262H128.951ZM139.289 98.2887C136.439 84.6262 131.426 67.5887 125.726 54.9637C127.82 54.9649 129.909 55.1321 131.976 55.4637C133.039 64.9637 132.151 64.6387 132.864 65.0137C133.576 65.3887 137.864 67.1137 138.501 67.3762C138.439 68.3387 139.339 95.8637 139.301 98.2887H139.289ZM124.901 32.7012C125.553 34.1233 125.783 35.7024 125.564 37.2512C125.462 37.6454 125.253 38.0036 124.96 38.286C124.666 38.5684 124.3 38.7639 123.903 38.8507C123.505 38.9375 123.091 38.9122 122.707 38.7777C122.322 38.6432 121.983 38.4047 121.726 38.0887C121.13 36.8323 120.681 35.511 120.389 34.1512C120.726 33.7137 124.326 32.8387 124.901 32.7012ZM107.701 45.2012C107.245 44.9933 106.777 44.8097 106.301 44.6512C105.982 44.5199 105.697 44.3172 105.468 44.0585C105.239 43.7999 105.072 43.4923 104.98 43.1592C104.888 42.8262 104.874 42.4766 104.938 42.1372C105.003 41.7978 105.144 41.4776 105.351 41.2012C106.139 40.5387 106.851 40.5762 107.501 41.5637C107.914 42.3262 107.901 42.3887 108.089 42.4637C108.143 42.4874 108.201 42.4994 108.26 42.4987C108.318 42.4981 108.376 42.4849 108.43 42.4601C108.483 42.4352 108.53 42.3992 108.568 42.3546C108.607 42.31 108.635 42.2577 108.651 42.2012C108.837 41.4188 108.866 40.6076 108.739 39.8137C108.589 38.9512 108.564 35.1262 108.589 35.0012C108.954 35.1937 109.364 35.2844 109.776 35.2637C112.039 35.1762 112.489 34.0137 113.389 33.0637C114.426 33.1637 114.639 33.6637 115.814 33.0637C116.364 32.7508 116.869 32.3638 117.314 31.9137C117.673 32.0608 118.02 32.2364 118.351 32.4387C119.1 32.799 119.945 32.9096 120.762 32.7544C121.579 32.5992 122.324 32.1862 122.889 31.5762C123.026 31.8387 123.151 32.1012 123.264 32.3762C122.115 32.7327 121.034 33.2776 120.064 33.9887C119.851 34.2512 120.164 35.6762 120.239 36.0137C119.192 36.1455 118.178 36.4719 117.251 36.9762C117.064 36.3262 116.651 35.1137 116.001 34.7762C115.806 34.7164 115.597 34.7164 115.401 34.7762C114.276 34.9512 110.239 36.1637 109.751 36.8262C109.326 37.2887 110.539 40.8637 110.914 41.4512C112.351 43.6762 116.564 43.0262 117.351 40.4262C117.546 39.5537 117.546 38.6488 117.351 37.7762C117.714 37.7762 118.801 37.3887 118.926 37.3512C119.789 39.2887 120.039 39.4012 121.039 41.4887C120.901 41.6012 120.676 41.7887 120.489 41.9137C119.601 42.5012 119.414 42.4012 119.464 42.6512C119.478 42.7009 119.511 42.7435 119.554 42.7711C119.598 42.7987 119.65 42.8094 119.701 42.8012C120.226 42.7263 120.739 42.5834 121.226 42.3762C121.518 42.2673 121.759 42.0534 121.901 41.7762C122.251 40.9887 120.314 38.0262 119.551 37.1387C119.701 37.1387 120.051 36.8887 120.314 36.7512C120.664 38.1512 120.901 39.2512 122.251 39.8012C122.641 39.9485 123.057 40.0156 123.474 39.9984C123.891 39.9812 124.3 39.8802 124.676 39.7012C124.876 41.9012 124.839 45.4762 123.789 47.4262C123.251 48.4387 121.926 48.8262 121.076 49.6637C120.826 49.9012 120.989 50.2387 121.076 50.6012C122.464 54.4637 122.489 54.4512 122.414 54.9512C122.046 57.0265 121.532 59.0732 120.876 61.0762C120.564 60.9387 117.051 59.0762 110.176 56.4012C109.964 54.9887 108.826 47.4512 108.464 46.0637C108.489 45.5762 108.426 45.4637 107.701 45.1387V45.2012ZM116.451 40.1012C116.051 41.4637 114.164 42.0512 112.814 41.6762C111.464 41.3012 111.376 40.6137 110.739 38.9887C110.44 38.3679 110.234 37.7068 110.126 37.0262C110.539 36.5762 115.051 35.6512 115.614 35.5637C116.403 36.9134 116.699 38.4951 116.451 40.0387V40.1012ZM67.5388 115.151C67.0638 115.614 67.7013 117.126 67.8013 118.439C67.8013 118.551 67.8013 119.039 67.7263 119.076C67.0388 119.301 66.4013 118.264 66.0138 117.639C65.6263 117.014 65.2388 116.164 64.6263 116.389C63.3763 116.976 60.4763 120.826 59.3388 121.226C58.7638 120.126 62.0513 116.989 62.1638 116.814C62.212 116.733 62.2373 116.641 62.2369 116.548C62.2364 116.454 62.2103 116.362 62.1613 116.282C62.1124 116.202 62.0424 116.137 61.9591 116.094C61.8758 116.051 61.7823 116.032 61.6888 116.039C61.4638 116.039 61.3138 116.239 60.9638 116.551C59.8992 117.59 58.6807 118.459 57.3513 119.126C58.5566 117.743 59.8466 116.437 61.2138 115.214C61.2813 115.144 61.3288 115.058 61.3513 114.964C61.3513 114.964 61.0888 114.301 60.5763 114.564C59.8513 114.964 56.3263 117.001 55.2138 117.526C55.0638 117.426 55.1513 117.276 55.2138 117.126C56.9763 114.964 60.8513 112.339 63.2263 110.676C63.5051 110.389 63.737 110.06 63.9138 109.701C65.5586 111.232 67.3133 112.64 69.1638 113.914C68.5937 114.288 68.0507 114.701 67.5388 115.151ZM96.6263 126.514C96.3513 126.339 96.1513 126.176 96.1138 125.951C95.4263 120.851 99.2513 91.9512 99.1888 90.8137C99.1888 90.747 99.1755 90.6809 99.1496 90.6195C99.1237 90.558 99.0857 90.5023 99.038 90.4557C98.9902 90.4091 98.9336 90.3725 98.8715 90.3481C98.8094 90.3238 98.743 90.3121 98.6763 90.3137C98.0388 90.3137 99.1638 90.3137 83.2388 105.564C82.1888 106.551 74.1638 114.226 72.8263 114.739C70.9888 114.601 64.0763 109.089 62.9513 107.351C65.1263 102.951 91.5013 66.7512 100.626 61.2137C101.326 60.7887 102.526 60.1262 103.839 59.4262C104.293 59.8543 104.782 60.2432 105.301 60.5887C108.201 63.3387 112.239 66.7637 115.301 69.3387L112.914 74.0762C112.878 74.1389 112.859 74.2101 112.859 74.2825C112.859 74.3549 112.878 74.426 112.914 74.4887C132.301 102.301 132.014 101.989 132.139 101.989C133.382 108.416 134.155 114.925 134.451 121.464C134.451 123.226 134.451 123.076 134.526 122.951C134.601 122.826 134.526 123.039 134.526 123.039C131.501 126.339 101.564 129.414 96.6263 126.514ZM165.726 85.1012C160.064 85.8887 153.664 84.7137 152.426 84.6637C151.739 81.3314 150.368 78.1777 148.401 75.4012C148.371 75.3608 148.327 75.3331 148.278 75.3239C148.228 75.3146 148.177 75.3243 148.134 75.3512C148.092 75.378 148.061 75.42 148.048 75.4687C148.034 75.5173 148.04 75.5691 148.064 75.6137C148.789 77.0887 151.214 83.4512 151.814 85.0012C151.626 85.6012 157.464 109.739 155.814 112.989C154.339 115.926 145.751 119.626 142.651 120.689C142.038 113.73 141.037 106.811 139.651 99.9637C140.076 96.3637 139.526 74.9637 139.364 67.0512C139.359 66.9593 139.328 66.8706 139.275 66.7954C139.222 66.7202 139.149 66.6615 139.064 66.6262L133.451 64.2637C133.426 61.2932 133.238 58.3263 132.889 55.3762C146.901 57.8012 163.226 65.8137 164.589 65.8262C166.564 65.8262 181.239 54.5762 184.276 54.1262C185.626 53.9137 191.426 58.9762 192.101 60.3762C186.176 68.6512 175.764 79.5262 170.939 83.2887C169.385 84.328 167.59 84.952 165.726 85.1012Z" fill="white"/>
<path d="M115.163 37.6013C115.148 37.5192 115.116 37.441 115.07 37.3712C115.024 37.3013 114.965 37.2412 114.896 37.1941C114.827 37.1471 114.75 37.1142 114.668 37.0972C114.586 37.0802 114.502 37.0795 114.42 37.0951C114.337 37.1107 114.259 37.1423 114.189 37.1881C114.12 37.2339 114.059 37.293 114.012 37.3621C113.965 37.4311 113.932 37.5088 113.915 37.5906C113.898 37.6724 113.898 37.7567 113.913 37.8388C114.163 39.0888 114.213 39.3763 114.763 39.3763C114.867 39.3767 114.97 39.3511 115.061 39.3019C115.153 39.2527 115.231 39.1814 115.288 39.0945C115.345 39.0077 115.379 38.9079 115.388 38.8043C115.397 38.7007 115.38 38.5966 115.338 38.5013C115.301 38.3013 115.188 37.7138 115.163 37.6013ZM118.988 45.8763C119.801 46.1138 120.576 45.7263 120.551 45.5263C120.526 45.3263 120.551 45.4263 119.451 45.0138C118.713 44.7388 117.901 43.7638 117.613 43.9138C117.326 44.0638 117.763 44.8638 117.863 45.0138C118.131 45.4195 118.527 45.7234 118.988 45.8763ZM141.851 34.0013C140.213 40.8638 139.013 46.6888 138.813 47.8513C138.68 48.3571 138.655 48.8851 138.738 49.4013C139.401 50.8138 147.963 53.6013 149.051 53.0513C150.138 52.5013 152.963 46.1388 156.251 39.5763C158.265 39.6407 160.28 39.494 162.263 39.1388C164.352 38.7557 166.384 38.1132 168.313 37.2263C172.538 35.2763 177.163 26.9263 177.788 22.7263C178.257 18.1664 177.291 13.5738 175.026 9.58881C164.538 -8.59869 133.776 1.1888 136.276 21.3888C136.99 26.0109 138.913 30.3622 141.851 34.0013ZM149.476 48.8888C149.476 49.0888 149.251 49.0638 148.226 48.8888C146.129 48.6253 144.099 47.977 142.238 46.9763C141.363 46.5013 141.126 46.4013 141.213 46.1888C141.301 45.9763 141.488 46.0513 142.838 46.4263C142.963 46.4263 146.838 47.6763 147.951 48.0638C149.388 48.7138 149.476 48.7138 149.476 48.8888ZM149.251 28.5513C150.586 28.6205 151.916 28.345 153.113 27.7513C154.226 28.2905 155.43 28.617 156.663 28.7138C154.563 32.6263 150.301 40.6013 148.926 44.8513L143.626 43.3888C144.876 40.3138 147.638 33.1138 149.226 28.5513H149.251ZM148.813 27.5138C147.88 27.3728 147.019 26.9297 146.362 26.2523C145.705 25.5749 145.288 24.7008 145.176 23.7638C144.826 21.2638 146.426 18.4638 148.838 19.1263C150.351 19.5388 150.538 20.7388 150.276 22.2513C150.051 23.3513 149.238 26.1138 148.788 27.4638L148.813 27.5138ZM152.213 24.5138C152.347 23.6959 152.654 22.9159 153.113 22.2263C153.332 21.8504 153.652 21.5433 154.036 21.34C154.421 21.1368 154.854 21.0454 155.288 21.0763C156.213 21.3513 156.613 23.1013 155.851 24.2013C155.118 25.1738 154.206 25.9969 153.163 26.6263C152.805 26.4158 152.519 26.1005 152.345 25.7229C152.17 25.3453 152.116 24.9233 152.188 24.5138H152.213ZM140.726 8.62631C146.326 1.88881 156.863 -0.786194 164.476 1.98881C168.611 3.40836 172.09 6.28264 174.263 10.0763C176.418 13.8683 177.34 18.2369 176.901 22.5763C176.326 26.4638 171.901 34.5388 168.013 36.3263C164.459 37.9476 160.581 38.7343 156.676 38.6263C156.251 38.6263 155.801 38.6263 155.638 38.9263C154.901 40.4263 153.551 43.3263 152.226 46.0513C151.311 45.6095 150.362 45.2417 149.388 44.9513C150.838 40.8013 155.413 32.6513 157.588 28.7013C159.473 28.8628 161.367 28.5356 163.088 27.7513C163.553 27.5065 163.939 27.1342 164.2 26.678C164.461 26.2218 164.586 25.7006 164.561 25.1757C164.536 24.6508 164.362 24.1439 164.059 23.7144C163.756 23.285 163.337 22.9509 162.851 22.7513C160.913 21.8013 159.176 24.0763 158.163 25.9888C157.888 26.4888 157.576 27.0763 157.226 27.7388C156.215 27.6724 155.218 27.4662 154.263 27.1263C155.214 26.4582 156.057 25.6489 156.763 24.7263C157.159 24.1286 157.36 23.4229 157.337 22.7064C157.315 21.9899 157.071 21.2981 156.638 20.7263C156.299 20.3319 155.827 20.075 155.311 20.0036C154.796 19.9323 154.272 20.0515 153.838 20.3388C152.963 20.8767 152.261 21.6559 151.818 22.5827C151.374 23.5095 151.208 24.5447 151.338 25.5638C151.474 26.1391 151.784 26.6585 152.226 27.0513C151.406 27.3909 150.526 27.561 149.638 27.5513C150.138 26.0763 150.951 23.4138 151.163 22.3263C151.297 21.7063 151.326 21.0685 151.251 20.4388C151.154 19.8982 150.903 19.3971 150.528 18.9958C150.154 18.5944 149.671 18.3098 149.138 18.1763C146.101 17.3138 143.863 20.6763 144.301 23.8138C144.424 24.9382 144.907 25.9928 145.677 26.8213C146.447 27.6499 147.463 28.2083 148.576 28.4138C146.976 32.9138 144.476 40.1763 143.226 43.2763L140.476 42.5638C142.238 33.7138 142.451 33.9263 142.201 33.8138C139.361 30.1926 137.543 25.876 136.938 21.3138C136.644 19.0516 136.829 16.7528 137.481 14.5668C138.134 12.3808 139.239 10.3568 140.726 8.62631ZM158.076 27.8138C158.951 26.2263 160.701 22.7513 162.401 23.6013C162.741 23.7383 163.037 23.9656 163.257 24.2585C163.477 24.5515 163.614 24.8991 163.651 25.2638C163.626 27.4638 160.201 27.8513 158.026 27.8138H158.076ZM205.926 33.3263C207.432 32.4404 209.211 32.138 210.926 32.4763C212.809 32.51 214.608 33.263 215.954 34.5809C217.3 35.8988 218.09 37.6816 218.163 39.5638C217.031 38.9067 215.707 38.6595 214.413 38.8638C211.276 39.1388 207.176 40.8388 207.726 43.8638C208.176 46.3638 211.476 46.0263 213.976 45.3513C216.476 44.6763 218.463 43.4513 218.976 41.0388C222.013 43.2513 222.726 47.1263 222.851 50.9138C222.851 50.9669 222.872 51.0177 222.909 51.0552C222.947 51.0927 222.998 51.1138 223.051 51.1138C223.104 51.1138 223.155 51.0927 223.192 51.0552C223.23 51.0177 223.251 50.9669 223.251 50.9138C223.338 46.6763 222.576 42.5263 219.113 40.1138C219.149 39.0285 218.964 37.9473 218.569 36.9356C218.175 35.9239 217.579 35.0028 216.819 34.228C216.058 33.4532 215.148 32.8408 214.143 32.428C213.139 32.0152 212.061 31.8105 210.976 31.8263C209.24 31.5729 207.471 31.9356 205.976 32.8513C205.513 33.0763 205.726 33.4138 205.926 33.3263ZM217.326 42.2888C215.913 44.1388 211.913 45.1013 210.063 44.7888C209.376 44.6763 208.813 44.3888 208.663 43.6763C208.213 41.1763 212.526 39.8138 215.101 39.7263C216.149 39.6459 217.195 39.914 218.076 40.4888C217.981 41.1423 217.723 41.7615 217.326 42.2888ZM200.201 18.7138C201.538 17.0638 200.638 14.1888 196.901 14.1763C195.451 14.1763 194.751 15.6513 194.851 17.0638C195.076 20.4263 198.863 20.3263 200.201 18.7138ZM195.726 17.0013C195.726 16.1763 196.113 15.1013 196.976 15.1138C198.988 15.1138 199.913 16.0513 199.913 17.0888C199.863 19.4513 195.563 20.6763 195.726 17.0013ZM195.213 158.714C184.226 154.326 179.126 175.564 170.151 193.814C170.094 194.581 170.119 195.352 170.226 196.114C170.226 198.026 170.438 210.689 171.551 212.126C171.851 212.701 173.113 212.126 173.701 211.764C178.69 208.675 183.393 205.144 187.751 201.214C187.788 201.171 187.816 201.122 187.833 201.068C187.85 201.014 187.856 200.957 187.851 200.901C190.176 197.589 198.888 180.339 201.001 171.689C202.476 165.564 201.013 161.001 195.213 158.714ZM199.138 174.589C193.256 173.835 187.569 171.978 182.376 169.114C185.301 163.576 188.913 157.264 194.876 159.639C201.513 162.276 201.376 167.739 199.138 174.551V174.589ZM178.338 207.089C177.954 206.767 177.535 206.49 177.088 206.264C175.399 205.405 173.448 205.217 171.626 205.739C171.501 204.251 170.788 194.576 170.788 194.489C180.151 197.914 177.263 196.426 186.538 201.039C185.563 201.964 181.901 204.526 178.338 207.064V207.089ZM184.788 170.914C186.007 171.58 187.259 172.185 188.538 172.726C185.673 177.227 183.141 181.931 180.963 186.801C178.863 191.189 178.938 191.164 176.801 195.951C175.551 195.551 174.301 195.176 173.051 194.801C174.401 192.114 184.001 172.464 184.788 170.889V170.914ZM177.288 196.076C181.351 188.789 185.488 179.726 189.038 172.889C190.288 173.414 191.538 173.839 192.788 174.214C192.126 175.464 190.188 178.789 189.676 179.751C189.163 180.714 184.026 190.839 183.663 191.614C183.088 192.864 181.513 196.351 181.026 197.464C179.751 196.901 178.526 196.476 177.238 196.051L177.288 196.076ZM181.476 197.626C182.238 196.239 185.376 190.414 185.763 189.664C186.351 188.501 192.901 175.114 193.263 174.339C194.413 174.664 195.626 174.939 196.401 175.089C194.113 181.339 187.526 193.376 185.151 199.314C182.988 198.301 182.501 198.051 181.426 197.601L181.476 197.626ZM182.238 169.476L184.476 170.726C179.967 178.405 176.039 186.411 172.726 194.676L170.851 194.101C178.113 178.626 178.451 176.601 182.188 169.451L182.238 169.476ZM187.388 200.401L185.501 199.501C187.538 195.501 193.913 185.239 196.826 175.176C197.526 175.301 198.213 175.414 198.876 175.501C195.664 184.072 191.807 192.388 187.338 200.376L187.388 200.401ZM148.226 208.514C148.724 208.101 149.08 207.543 149.244 206.917C149.408 206.291 149.371 205.63 149.138 205.026C149.032 204.155 148.633 203.346 148.006 202.733C147.379 202.119 146.561 201.737 145.688 201.65C144.815 201.562 143.939 201.775 143.202 202.252C142.466 202.73 141.915 203.444 141.638 204.276C140.038 203.239 138.301 202.139 136.638 201.089C137.888 199.426 141.563 200.164 141.938 201.526C141.947 201.579 141.976 201.627 142.019 201.659C142.062 201.69 142.116 201.703 142.169 201.695C142.223 201.687 142.27 201.658 142.302 201.614C142.333 201.571 142.347 201.517 142.338 201.464C142.151 199.289 137.626 198.014 135.801 200.576C134.188 199.589 132.188 198.389 130.513 197.476C131.951 196.226 135.163 196.926 135.513 198.226C135.53 198.271 135.561 198.308 135.603 198.331C135.644 198.354 135.692 198.362 135.739 198.353C135.785 198.344 135.827 198.319 135.857 198.282C135.887 198.245 135.902 198.199 135.901 198.151C135.738 196.126 131.551 194.764 129.651 196.989C128.855 196.543 128.017 196.174 127.151 195.889C126.992 195.823 126.818 195.805 126.65 195.836C126.481 195.867 126.325 195.946 126.201 196.064C123.038 200.001 112.376 210.226 107.451 211.414C107.327 211.432 107.21 211.483 107.112 211.561C107.015 211.64 106.939 211.742 106.893 211.859C106.848 211.975 106.834 212.102 106.852 212.226C106.871 212.349 106.922 212.466 107.001 212.564C108.082 213.661 109.321 214.592 110.676 215.326C109.426 216.576 108.451 217.701 107.726 218.514C107.351 218.914 107.151 226.564 107.476 228.251C107.524 228.417 107.631 228.559 107.776 228.651C109.351 229.726 129.638 238.501 131.713 237.326C133.101 236.539 149.663 219.301 149.926 218.776C150.326 217.951 150.188 212.451 150.163 210.251C150.063 209.589 148.826 208.876 148.226 208.514ZM108.226 225.026V222.239C113.413 224.739 125.288 229.839 129.788 231.264C130.938 231.639 131.038 231.589 131.638 231.264C135.076 229.064 147.213 215.389 149.438 213.301V215.939C142.688 222.701 131.226 234.551 131.013 233.876C129.776 233.801 109.301 225.526 108.226 225.026ZM147.913 204.301C148.363 205.058 148.604 205.921 148.613 206.801C148.609 207.081 148.54 207.357 148.412 207.606C148.284 207.855 148.101 208.072 147.876 208.239C146.826 207.539 144.838 206.239 142.488 204.714C143.776 202.176 146.638 202.139 147.863 204.301H147.913ZM107.913 212.301C113.238 210.726 123.351 200.976 126.751 196.751C127.569 196.979 128.358 197.302 129.101 197.714C127.851 200.039 129.188 202.589 129.663 202.226C129.926 202.026 129.451 201.951 129.376 200.726C129.344 199.831 129.546 198.944 129.963 198.151C131.688 199.051 133.713 200.226 135.426 201.214C134.376 203.551 135.638 205.864 136.076 205.526C136.513 205.189 135.876 205.264 135.801 204.039C135.77 203.235 135.924 202.436 136.251 201.701C138.013 202.739 139.813 203.814 141.463 204.826C141.209 205.449 141.108 206.124 141.169 206.794C141.23 207.464 141.451 208.11 141.813 208.676C141.83 208.698 141.85 208.716 141.873 208.729C141.897 208.742 141.923 208.751 141.949 208.755C141.976 208.758 142.003 208.756 142.029 208.749C142.055 208.742 142.079 208.73 142.101 208.714C142.122 208.697 142.14 208.677 142.153 208.654C142.167 208.63 142.176 208.605 142.179 208.578C142.183 208.551 142.181 208.524 142.174 208.498C142.167 208.472 142.155 208.448 142.138 208.426C141.914 207.93 141.803 207.389 141.813 206.844C141.824 206.299 141.957 205.764 142.201 205.276C145.113 207.051 147.463 208.539 148.188 209.026C148.051 209.151 135.013 220.751 130.576 224.201C127.663 223.439 112.376 215.851 107.913 212.301ZM108.388 219.264C114.051 221.764 126.913 227.564 129.876 228.126C130.388 228.226 130.588 228.264 131.563 227.489C135.726 224.151 149.263 209.989 149.388 210.139C149.394 210.176 149.394 210.214 149.388 210.251V212.751C146.601 214.989 131.101 231.264 130.851 230.489C129.601 230.489 109.288 222.201 108.251 221.739C108.226 221.214 108.338 219.814 108.388 219.264ZM131.151 236.489C129.901 237.201 110.863 229.464 108.313 227.889C108.217 227.092 108.172 226.291 108.176 225.489C113.651 228.189 129.576 234.914 131.038 234.851C133.176 234.739 148.288 217.726 149.363 216.539C149.376 217.177 149.313 217.815 149.176 218.439C148.963 218.851 131.976 236.026 131.151 236.489ZM27.5882 166.026C27.6757 167.364 27.7382 168.526 27.7382 169.614C27.7382 169.78 27.8041 169.939 27.9213 170.056C28.0385 170.173 28.1975 170.239 28.3632 170.239C28.529 170.239 28.688 170.173 28.8052 170.056C28.9224 169.939 28.9882 169.78 28.9882 169.614C28.9882 168.451 28.9257 167.301 28.8382 165.939C28.8266 165.773 28.7497 165.619 28.6243 165.51C28.4988 165.401 28.3353 165.346 28.1695 165.358C28.0037 165.369 27.8494 165.446 27.7404 165.572C27.6314 165.697 27.5766 165.861 27.5882 166.026ZM218.051 140.964C217.969 140.969 217.889 140.99 217.816 141.026C217.743 141.062 217.677 141.112 217.624 141.174C217.57 141.236 217.529 141.307 217.504 141.385C217.479 141.463 217.469 141.545 217.476 141.626C217.551 142.776 217.626 144.014 217.626 145.214C217.626 145.38 217.692 145.539 217.809 145.656C217.926 145.773 218.085 145.839 218.251 145.839C218.417 145.839 218.575 145.773 218.693 145.656C218.81 145.539 218.876 145.38 218.876 145.214C218.876 143.964 218.801 142.714 218.713 141.539C218.709 141.457 218.688 141.377 218.651 141.304C218.615 141.231 218.565 141.165 218.503 141.112C218.441 141.058 218.37 141.017 218.292 140.992C218.214 140.967 218.132 140.957 218.051 140.964ZM24.3507 162.914C24.5165 162.914 24.6755 162.848 24.7927 162.731C24.9099 162.614 24.9757 162.455 24.9757 162.289C24.9757 162.123 24.9099 161.964 24.7927 161.847C24.6755 161.73 24.5165 161.664 24.3507 161.664C22.8382 161.664 21.5757 161.776 20.3257 161.751C20.1588 161.751 19.9985 161.817 19.8793 161.934C19.7601 162.05 19.6915 162.209 19.6882 162.376C19.6882 162.542 19.7541 162.701 19.8713 162.818C19.9885 162.935 20.1475 163.001 20.3132 163.001C21.6007 163.026 23.0132 162.976 24.3507 162.914ZM214.176 137.264C212.676 137.264 211.413 137.351 210.151 137.364C209.985 137.364 209.826 137.43 209.709 137.547C209.592 137.664 209.526 137.823 209.526 137.989C209.526 138.155 209.592 138.314 209.709 138.431C209.826 138.548 209.985 138.614 210.151 138.614C211.501 138.614 212.901 138.614 214.251 138.514C214.417 138.504 214.572 138.428 214.682 138.304C214.792 138.18 214.848 138.017 214.838 137.851C214.828 137.686 214.753 137.531 214.629 137.42C214.504 137.31 214.341 137.254 214.176 137.264ZM27.2507 155.189C27.3257 156.339 27.4007 157.576 27.4007 158.776C27.4039 158.941 27.4708 159.098 27.5873 159.215C27.7039 159.331 27.861 159.398 28.0257 159.401C28.1915 159.401 28.3505 159.335 28.4677 159.218C28.5849 159.101 28.6507 158.942 28.6507 158.776C28.6507 157.526 28.5757 156.276 28.5007 155.101C28.4891 154.936 28.4122 154.781 28.2868 154.672C28.1613 154.563 27.9978 154.508 27.832 154.52C27.6662 154.532 27.5119 154.609 27.4029 154.734C27.2939 154.859 27.2391 155.023 27.2507 155.189ZM218.538 134.376C218.538 133.126 218.463 131.876 218.376 130.701C218.364 130.536 218.287 130.381 218.162 130.272C218.036 130.163 217.873 130.108 217.707 130.12C217.541 130.132 217.387 130.209 217.278 130.334C217.169 130.459 217.114 130.623 217.126 130.789C217.201 131.939 217.276 133.176 217.276 134.376C217.276 134.542 217.342 134.701 217.459 134.818C217.576 134.935 217.735 135.001 217.901 135.001C218.068 135.001 218.228 134.936 218.347 134.819C218.466 134.702 218.535 134.543 218.538 134.376ZM36.4757 162.751C36.5578 162.748 36.6385 162.729 36.7131 162.694C36.7877 162.66 36.8548 162.611 36.9105 162.551C36.9662 162.49 37.0095 162.42 37.0379 162.342C37.0662 162.265 37.0791 162.183 37.0757 162.101C37.0631 161.938 36.9891 161.785 36.8686 161.674C36.748 161.562 36.5898 161.501 36.4257 161.501C34.9132 161.564 33.6507 161.614 32.3882 161.589C32.2225 161.589 32.0635 161.655 31.9463 161.772C31.8291 161.889 31.7632 162.048 31.7632 162.214C31.7632 162.38 31.8291 162.539 31.9463 162.656C32.0635 162.773 32.2225 162.839 32.3882 162.839C33.7257 162.864 35.1257 162.814 36.4757 162.751ZM226.301 137.101C225.051 137.164 223.663 137.201 222.276 137.201C222.193 137.198 222.111 137.211 222.034 137.241C221.956 137.27 221.886 137.314 221.826 137.372C221.767 137.429 221.719 137.497 221.687 137.573C221.655 137.649 221.638 137.731 221.638 137.814C221.638 137.981 221.704 138.141 221.821 138.26C221.937 138.379 222.096 138.448 222.263 138.451C223.688 138.451 224.838 138.451 226.351 138.351C226.433 138.348 226.513 138.329 226.588 138.294C226.663 138.26 226.73 138.211 226.786 138.151C226.841 138.09 226.885 138.02 226.913 137.942C226.941 137.865 226.954 137.783 226.951 137.701C226.935 137.539 226.86 137.388 226.741 137.277C226.621 137.166 226.464 137.104 226.301 137.101ZM7.75074 125.714C7.91324 125.839 43.1632 120.614 44.6757 119.689C44.7595 119.628 44.8264 119.546 44.8701 119.452C44.9138 119.358 44.933 119.255 44.9257 119.151C44.9257 117.539 42.8132 102.401 41.8007 98.6263C41.6757 98.1638 41.5507 97.7013 41.2632 97.5388C39.3507 96.3888 5.65075 102.739 3.63825 104.039C3.5837 104.071 3.53658 104.114 3.49996 104.166C3.46334 104.218 3.43805 104.277 3.42575 104.339C3.00074 105.851 6.66324 124.964 7.75074 125.714ZM4.18825 104.639C6.58825 103.551 37.1757 97.9513 40.6757 98.3888C41.5257 100.576 43.8007 116.601 43.9507 118.951C42.2132 119.464 8.22574 125.301 8.10074 125.326C7.97574 125.351 7.96325 125.501 7.70075 124.714C6.60075 121.414 4.12575 107.464 4.18825 104.639Z" fill="white"/>
<path d="M47.4261 120.801C47.4941 120.675 47.5245 120.532 47.5136 120.389C47.5136 118.401 44.6636 96.3388 43.6511 94.5763C43.5718 94.4464 43.4594 94.3398 43.3255 94.2673C43.1915 94.1949 43.0408 94.1592 42.8886 94.1638C38.7011 93.6513 3.37612 100.551 1.05112 102.164C0.726123 102.389 0.776123 102.951 0.813623 103.551C1.01362 106.839 4.56362 128.464 5.81362 128.339C5.95112 128.339 5.90112 128.239 5.57612 128.901C3.62612 132.914 -0.073877 145.764 0.00112303 148.351C0.00112303 149.439 0.251122 150.851 1.32612 150.776C9.03862 149.826 46.8511 143.826 57.7261 141.589C58.1511 141.501 58.4261 141.114 58.4136 140.476C58.2853 139.414 57.9633 138.385 57.4636 137.439C55.9386 134.576 49.6136 123.239 47.4261 120.801ZM5.88862 127.951C4.91362 126.701 1.32612 105.164 1.60112 102.776C4.35112 101.351 39.2011 94.6138 42.8511 95.1638C43.8511 97.9138 46.4386 117.776 46.6011 120.164C42.1761 121.689 11.5386 126.639 5.88862 127.951ZM6.43862 128.326C7.48862 128.064 43.2511 122.076 46.5261 121.214C48.3136 122.876 56.3886 137.239 56.9136 138.464C49.7386 139.714 7.17612 146.826 0.913622 147.776C1.00112 143.989 4.88862 130.751 6.43862 128.326Z" fill="white"/>
<path d="M11.1382 141.289C12.2257 141.126 35.3007 138.351 43.6382 136.089C43.6895 136.076 43.7336 136.043 43.7605 135.997C43.7875 135.951 43.7952 135.897 43.7819 135.845C43.7686 135.794 43.7355 135.75 43.6898 135.723C43.6441 135.696 43.5895 135.688 43.5382 135.701C41.9007 136.039 21.9256 138.701 11.1131 140.901C11.0833 140.896 11.0526 140.898 11.0234 140.906C10.9942 140.914 10.9672 140.929 10.9446 140.949C10.9219 140.969 10.9042 140.994 10.8927 141.022C10.8812 141.051 10.8762 141.081 10.8782 141.111C10.8801 141.141 10.8889 141.171 10.904 141.197C10.919 141.224 10.9398 141.246 10.9649 141.263C10.9899 141.281 11.0185 141.292 11.0486 141.296C11.0786 141.301 11.1092 141.298 11.1382 141.289ZM28.0006 54.314C27.5337 55.3686 27.1411 56.4546 26.8256 57.564C26.8071 57.742 26.8561 57.9205 26.9631 58.064C28.2256 59.964 41.1631 74.5515 44.5381 76.6015C45.0006 76.889 45.5506 77.089 45.8881 76.6765C48.3399 73.6258 51.5395 71.2616 55.1757 69.814C58.1352 68.7669 61.2381 68.1809 64.3756 68.0765C66.8756 67.8515 67.3132 67.6015 68.2757 65.964C69.411 63.809 70.9174 61.871 72.7256 60.239C75.0313 58.223 77.5905 56.5169 80.3382 55.164C80.4618 55.0939 80.5585 54.9845 80.6129 54.8531C80.6673 54.7217 80.6761 54.576 80.6382 54.439C80.2156 53.3637 79.6569 52.3471 78.9756 51.414C79.4256 51.264 79.9257 51.1265 79.9257 50.6765C79.9257 49.4265 69.0257 33.6515 66.0007 30.6765C65.6882 30.364 65.2381 29.9515 64.8256 29.9765C58.5756 30.3265 52.4881 36.2265 48.9632 41.3765C44.9257 41.2265 42.3131 40.864 37.7132 42.8015C34.4658 44.1799 31.538 46.2141 29.1131 48.7765C28.7381 49.164 26.1882 51.864 26.1507 52.0765C26.1132 52.289 26.1881 52.289 28.0006 54.314ZM78.0006 53.964C72.7881 54.8515 69.4631 59.189 67.0131 63.9015C65.9256 66.0015 66.0256 66.1015 64.8756 66.0765C62.8647 65.9626 60.8475 66.0379 58.8507 66.3015C57.386 66.5204 55.946 66.8804 54.5507 67.3765C51.3757 68.5015 47.7382 72.1015 45.8007 74.7765C45.7595 74.8315 45.7072 74.8772 45.6471 74.9106C45.5871 74.944 45.5206 74.9643 45.4522 74.9702C45.3837 74.9761 45.3148 74.9674 45.2499 74.9448C45.185 74.9222 45.1256 74.8861 45.0756 74.839C41.0131 70.6515 33.8257 63.3015 30.2132 59.0765C30.0382 58.889 30.3382 58.614 30.5132 58.814C32.8507 61.314 38.8881 67.3015 45.3631 73.814C47.5506 71.0265 50.9257 67.6515 54.2632 66.4765C56.0831 65.8273 57.9769 65.4074 59.9007 65.2265C61.7022 65.0897 63.5116 65.0897 65.3131 65.2265C66.0506 64.3765 69.7007 54.7265 77.9757 53.6515C77.9999 53.6693 78.0198 53.6923 78.0339 53.7188C78.048 53.7453 78.056 53.7747 78.0572 53.8047C78.0584 53.8347 78.0528 53.8646 78.0408 53.8922C78.0289 53.9198 78.0109 53.9443 77.9881 53.964H78.0006ZM64.8131 30.989C67.3131 32.739 77.4881 47.8015 78.8131 50.439C76.514 51.1675 74.2944 52.1265 72.1881 53.3015C70.1936 54.3013 68.4472 55.7335 67.0763 57.4938C65.7053 59.254 64.7442 61.2978 64.2632 63.4765C59.7757 56.1765 53.5132 48.139 49.3507 42.2265C49.6007 42.064 56.6256 31.4765 64.8131 30.989ZM37.9882 43.489C42.5507 41.6515 45.0757 42.0765 48.8507 42.239C52.6007 48.639 59.3381 57.664 63.7756 63.5765C59.68 62.6073 55.3701 63.2001 51.6881 65.239C49.4756 66.489 46.7756 69.489 45.1131 71.3515C42.7131 69.4265 28.8631 54.6765 26.6381 52.1765C30.0631 48.3015 33.2257 45.389 37.9882 43.439V43.489ZM15.1132 75.2765C14.8042 75.0597 14.439 74.9372 14.0618 74.9239C13.6846 74.9105 13.3116 75.007 12.9881 75.2015C12.7526 75.3065 12.54 75.457 12.3626 75.6442C12.1852 75.8314 12.0464 76.0517 11.9541 76.2925C11.8618 76.5334 11.8179 76.7901 11.8248 77.0479C11.8317 77.3057 11.8893 77.5597 11.9944 77.7952C12.0995 78.0308 12.2499 78.2433 12.4371 78.4208C12.6243 78.5982 12.8446 78.737 13.0855 78.8293C13.3263 78.9216 13.583 78.9655 13.8408 78.9586C14.0986 78.9517 14.3526 78.894 14.5882 78.789C14.9645 78.7067 15.3069 78.512 15.57 78.2307C15.8331 77.9493 16.0045 77.5947 16.0614 77.2137C16.1184 76.8327 16.0582 76.4435 15.8888 76.0975C15.7195 75.7515 15.449 75.4652 15.1132 75.2765ZM14.2882 77.7765C13.4132 78.0515 12.8881 77.7765 12.6756 77.3515C12.2756 76.464 12.7757 75.1015 14.0757 75.5015C14.9882 75.839 15.7257 77.3765 14.2882 77.839V77.7765ZM78.6757 18.0765C79.0382 18.814 80.7256 18.539 81.4631 18.3015C81.8506 18.1765 82.1006 18.039 82.1381 17.664C82.2506 16.7265 82.3757 8.60147 81.9507 7.81397C81.9067 7.7314 81.8394 7.66363 81.7571 7.61915C81.6749 7.57468 81.5813 7.55548 81.4882 7.56397C80.1545 7.56027 78.8276 7.75404 77.5507 8.13897C77.0382 8.45147 78.2257 17.2515 78.6757 18.0765ZM77.8131 8.43897C78.9678 8.27379 80.1356 8.21937 81.3007 8.27647C81.3757 9.20147 81.1756 17.214 81.1631 17.339C80.635 17.5282 80.0712 17.5966 79.5131 17.539C79.4256 17.2515 79.2757 16.4765 79.0882 15.5015C78.5374 13.1718 78.1117 10.8142 77.8131 8.43897ZM13.9007 64.7265C14.0206 64.7879 14.1534 64.8199 14.2882 64.8199C14.4229 64.8199 14.5557 64.7879 14.6756 64.7265C15.1586 64.4286 15.5416 63.9934 15.7757 63.4765C15.8074 63.3938 15.8172 63.3042 15.8041 63.2166C15.791 63.1289 15.7553 63.0462 15.7006 62.9765C15.1006 62.264 8.55065 54.6765 7.75065 55.1515C6.76842 55.7874 5.83651 56.4978 4.96315 57.2765C4.92795 57.308 4.89975 57.3465 4.88037 57.3895C4.86099 57.4326 4.85087 57.4793 4.85065 57.5265C4.82565 58.1765 12.1007 64.0015 13.9007 64.7265ZM7.90065 55.4765C8.81315 56.139 11.8881 59.939 14.7381 63.3015C14.6155 63.4945 14.4637 63.6674 14.2882 63.814C11.2917 61.8962 8.43081 59.7745 5.72565 57.464C6.40379 56.752 7.13054 56.0879 7.90065 55.4765ZM27.5382 27.9015C27.8132 23.0515 30.6382 20.8015 33.5882 20.2265C32.7506 23.3015 32.8881 27.3015 35.9256 27.814C37.3756 28.0515 38.0881 27.3015 39.1381 26.4265C43.6256 22.6765 40.0006 18.9265 34.9381 19.189C36.8256 14.014 41.1882 9.80147 46.9757 9.66397C47.0287 9.66397 47.0796 9.6429 47.1171 9.60539C47.1546 9.56789 47.1756 9.51702 47.1756 9.46397C47.1756 9.41093 47.1546 9.36006 47.1171 9.32255C47.0796 9.28505 47.0287 9.26397 46.9757 9.26397C40.7257 9.13897 35.8132 13.639 33.8757 19.264C30.5382 19.839 27.2256 22.339 27.1381 27.8265C27.1332 27.8527 27.1335 27.8797 27.139 27.9059C27.1445 27.932 27.1551 27.9568 27.1702 27.9789C27.1853 28.0009 27.2046 28.0198 27.227 28.0344C27.2493 28.049 27.2744 28.059 27.3006 28.064C27.3269 28.0689 27.3539 28.0686 27.38 28.0631C27.4062 28.0576 27.431 28.047 27.4531 28.0319C27.4751 28.0168 27.494 27.9975 27.5086 27.9752C27.5232 27.9528 27.5332 27.9277 27.5382 27.9015ZM34.6506 20.0765C36.5131 19.9515 39.2881 20.5265 40.0506 22.214C40.4881 23.1765 40.0507 24.364 38.5007 25.664C38.0798 26.0855 37.5998 26.4435 37.0757 26.7265C35.2007 27.5265 33.1256 25.214 34.6506 20.0765ZM38.2257 196.864C37.018 196.54 35.7578 196.462 34.5193 196.633C33.2808 196.803 32.0889 197.22 31.0139 197.858C29.9388 198.497 29.0023 199.344 28.2594 200.349C27.5165 201.355 26.9823 202.499 26.6882 203.714C26.1329 206.239 26.6032 208.88 27.9956 211.058C29.3881 213.236 31.5886 214.771 34.1131 215.326C36.6377 215.882 39.2794 215.411 41.4572 214.019C43.6349 212.627 45.1704 210.426 45.7257 207.901C45.9629 206.684 45.9567 205.431 45.7076 204.216C45.4584 203.001 44.9712 201.847 44.274 200.821C43.5768 199.795 42.6834 198.917 41.6453 198.238C40.6073 197.559 39.445 197.092 38.2257 196.864ZM42.0882 207.051C41.5866 209.052 40.3859 210.807 38.7031 211.999C37.0204 213.191 34.9666 213.742 32.9131 213.551C31.0281 212.815 29.4633 211.437 28.4938 209.661C27.5244 207.884 27.2126 205.823 27.6131 203.839C28.0809 201.79 29.2704 199.978 30.9643 198.734C32.6582 197.49 34.7432 196.897 36.8381 197.064C38.7418 197.85 40.3069 199.283 41.2581 201.11C42.2093 202.937 42.4855 205.041 42.0381 207.051H42.0882Z" fill="white"/>
<path d="M54.8766 200.426C53.7884 200.051 52.6222 199.96 51.4891 200.164C51.0195 199.087 50.4415 198.061 49.7641 197.101C50.5766 196.364 52.8016 194.314 52.2641 193.351C50.3512 191.063 48.0801 189.1 45.5391 187.539C44.4781 186.944 43.3097 186.566 42.1016 186.426C41.3016 186.539 39.4016 189.651 38.9766 190.351C38.7016 190.351 37.7266 190.039 37.6516 190.001C37.6516 189.101 37.3891 185.851 36.5766 185.476C35.668 185.142 34.7245 184.911 33.7641 184.789C32.8766 184.651 24.8891 186.114 24.3016 187.189C23.9141 187.914 24.8141 190.651 25.0766 191.414C24.4025 191.785 23.755 192.202 23.1391 192.664C21.8891 193.551 22.2266 193.514 22.0016 193.414C21.7297 193.284 21.4383 193.199 21.1391 193.164C20.1406 192.578 18.9698 192.357 17.8266 192.539C16.6766 192.914 13.9641 199.089 13.5266 200.676C13.3834 201.076 13.3447 201.507 13.4141 201.926C13.7141 202.751 15.7141 203.414 16.5516 203.676C16.3203 205.285 16.3203 206.918 16.5516 208.526C15.4516 208.826 13.1641 209.501 13.2891 210.626C13.4141 211.751 16.3391 219.176 17.5516 219.764C18.2158 220.135 18.9503 220.364 19.708 220.435C20.4657 220.506 21.2299 220.418 21.9516 220.176C22.3581 219.973 22.7506 219.744 23.1266 219.489C23.6266 219.864 24.1516 220.201 24.6891 220.526C24.3016 221.489 23.4391 223.639 23.7141 224.614C23.8516 225.126 24.2641 225.289 24.8391 225.501C26.4266 226.076 34.9766 228.126 36.2766 227.901C36.7641 227.826 37.0266 227.314 37.1766 226.826C37.4543 225.717 37.6177 224.581 37.6641 223.439C38.3061 223.375 38.9444 223.279 39.5766 223.151C39.9627 223.831 40.4566 224.443 41.0391 224.964C41.6766 225.414 42.2141 225.189 42.9391 224.726C43.2891 225.176 43.8141 225.801 44.3766 225.864C45.7891 226.026 51.6266 220.526 52.2266 219.401C52.7266 218.464 50.9016 216.789 50.0891 216.051C50.9681 214.728 51.658 213.29 52.1391 211.776C53.0407 211.912 53.9531 211.962 54.8641 211.926C55.2766 211.926 55.7516 211.776 55.9266 211.389C56.6891 209.651 56.4641 203.064 55.9266 201.389C55.8516 200.901 55.2891 200.576 54.8766 200.426ZM55.1766 201.576C55.6016 203.201 55.7391 209.339 55.1141 210.926C54.0334 211.033 52.9429 210.982 51.8766 210.776C51.7628 210.757 51.6457 210.781 51.5486 210.843C51.4514 210.905 51.3812 211.002 51.3516 211.114C50.8538 212.804 50.0809 214.4 49.0641 215.839C48.9917 215.934 48.959 216.054 48.973 216.173C48.987 216.291 49.0465 216.4 49.1391 216.476C50.0161 217.171 50.7613 218.018 51.3391 218.976C50.7141 220.001 45.8266 224.476 44.4766 224.851C44.2766 224.851 43.7266 224.101 43.5891 223.901C43.1274 223.207 42.7099 222.485 42.3391 221.739C42.285 221.63 42.1922 221.545 42.0789 221.501C41.9656 221.457 41.8399 221.457 41.7266 221.501C38.1016 222.864 36.7266 222.064 36.7266 222.964C36.7282 224.311 36.5086 225.65 36.0766 226.926C33.139 226.607 30.2462 225.961 27.4516 225.001C27.5866 223.667 27.9591 222.367 28.5516 221.164C28.9266 220.326 27.4266 220.564 24.6266 217.714C24.5365 217.63 24.4182 217.584 24.2954 217.584C24.1725 217.584 24.0542 217.63 23.9641 217.714C22.7141 218.739 21.0891 219.739 20.7641 219.576C20.1266 219.264 17.1891 212.601 17.0141 211.251C17.9032 210.632 18.9125 210.206 19.9766 210.001C20.0901 209.969 20.1881 209.897 20.2525 209.798C20.3168 209.699 20.3432 209.58 20.3266 209.464C20.0203 207.693 20.0203 205.884 20.3266 204.114C20.3457 204.005 20.3228 203.892 20.2625 203.8C20.2022 203.707 20.109 203.64 20.0016 203.614C19.0593 203.367 18.152 203.001 17.3016 202.526C17.0266 202.326 17.0516 202.339 17.0766 202.126C17.8857 199.208 19.1832 196.448 20.9141 193.964C21.5891 193.776 23.4141 195.114 24.0391 195.589C24.1044 195.652 24.1918 195.687 24.2829 195.687C24.3739 195.687 24.4613 195.652 24.5266 195.589C25.101 194.993 25.7194 194.441 26.3766 193.939C28.2766 192.501 28.7891 192.689 28.6266 192.189C28.052 190.934 27.7292 189.58 27.6766 188.201C27.8703 188.04 28.0902 187.913 28.3266 187.826C29.4936 187.365 30.6926 186.989 31.9141 186.701C33.3947 186.288 34.9165 186.041 36.4516 185.964C36.7141 186.076 36.9516 187.214 37.0141 187.564C37.4766 190.064 37.1641 190.576 37.5266 190.614C41.0891 190.964 41.8141 191.951 42.0641 191.514C42.7573 190.302 43.5651 189.159 44.4766 188.101C44.7391 187.839 44.7266 187.714 45.5141 188.164C47.8667 189.701 49.9738 191.585 51.7641 193.751C51.9516 194.076 50.3266 195.801 49.1391 196.814C48.7266 197.176 49.3141 197.339 50.3891 199.389C51.4641 201.439 51.2141 202.014 51.7891 201.889C52.8976 201.623 54.0383 201.518 55.1766 201.576ZM228.664 97.1261C226.044 96.0559 223.296 95.329 220.489 94.9636C218.439 94.6386 216.027 94.3136 213.989 94.0511C215.952 91.2761 221.764 84.2511 222.739 82.5386C223.014 82.0761 222.489 81.4261 222.102 81.0386C219.927 78.7136 215.727 77.8386 212.502 77.3386C210.652 77.0386 202.927 76.0886 201.614 76.7136C200.039 77.4636 188.389 94.9636 188.039 97.6261C188.039 98.0761 188.189 98.2511 188.627 98.4136C190.464 99.0886 198.752 100.139 200.602 100.576C198.102 104.951 186.989 119.739 185.902 121.826C185.639 122.351 185.802 122.664 186.114 122.764C187.239 123.21 188.397 123.57 189.577 123.839C190.027 123.976 191.014 123.364 192.452 122.489C198.902 118.614 226.577 100.339 228.702 97.9761C228.76 97.9207 228.806 97.8533 228.837 97.7785C228.867 97.7037 228.881 97.6232 228.877 97.5426C228.874 97.4619 228.853 97.383 228.816 97.3112C228.779 97.2393 228.727 97.1762 228.664 97.1261ZM201.802 112.126C191.177 119.139 187.589 121.189 187.464 121.276C189.177 118.664 199.814 104.089 201.639 100.601C201.671 100.534 201.687 100.46 201.687 100.386C201.687 100.311 201.67 100.238 201.637 100.171C201.605 100.104 201.558 100.045 201.5 99.9979C201.442 99.9513 201.374 99.9182 201.302 99.9011C200.052 99.4511 190.952 98.4761 188.802 97.7136C189.077 95.3886 200.427 77.8136 201.802 77.1136C203.177 76.4136 216.514 78.0011 219.014 79.7886C217.702 82.3511 210.452 91.3261 209.277 93.4136C209.039 93.8386 208.964 94.2511 209.427 94.3636C209.889 94.4761 221.639 95.8511 224.202 96.6886C221.077 99.3011 205.302 109.776 201.802 112.076V112.126ZM121.614 35.7011C121.614 35.8136 121.689 35.9511 121.877 36.6761C121.926 36.8334 122.034 36.9655 122.178 37.0448C122.323 37.124 122.493 37.1442 122.652 37.1011C122.811 37.0547 122.945 36.947 123.025 36.8017C123.104 36.6563 123.123 36.4853 123.077 36.3261C122.952 35.8386 122.839 35.4261 122.764 35.2261C122.691 35.0889 122.57 34.9837 122.424 34.931C122.278 34.8784 122.117 34.8821 121.973 34.9414C121.83 35.0007 121.713 35.1114 121.647 35.2519C121.581 35.3923 121.569 35.5525 121.614 35.7011Z" fill="white"/>
</svg>
