<svg width="238" height="218" viewBox="0 0 238 218" fill="none" xmlns="http://www.w3.org/2000/svg">
<path d="M156.506 31.8459C158.594 32.9834 160.881 31.2209 159.744 31.4459C158.809 31.5757 157.857 31.4279 157.006 31.0209C157.418 29.4478 157.653 27.8337 157.706 26.2085C157.306 22.271 155.769 31.3709 156.506 31.8459V31.8459ZM162.506 33.621C161.256 34.871 159.706 35.7835 160.994 35.646C162.719 35.471 163.881 33.7585 163.256 32.8585C162.756 33.1835 163.081 33.0335 162.506 33.621ZM161.056 25.046C160.681 25.496 161.056 26.5084 161.144 26.9584C161.171 27.0815 161.243 27.1898 161.346 27.2618C161.45 27.3338 161.576 27.3641 161.701 27.3468C161.826 27.3294 161.939 27.2656 162.019 27.1681C162.099 27.0706 162.139 26.9467 162.131 26.8209C161.994 25.6959 161.719 24.271 161.056 25.046V25.046ZM154.081 27.346C153.669 24.471 152.831 25.7085 152.906 26.1835C153.006 28.1085 154.219 28.321 154.081 27.346ZM160.306 23.0585C167.156 23.721 160.081 20.771 159.706 22.9585L160.306 23.0585ZM117.106 74.4835C115.681 74.9835 115.969 76.4959 117.731 75.8334C121.335 74.3864 125.12 73.44 128.981 73.0209C128.981 83.1709 128.469 87.1085 129.056 87.3835C129.694 87.1335 130.219 73.521 130.181 72.3835C130.069 70.2835 119.344 73.6835 117.106 74.4835ZM105.006 88.5335C103.169 92.471 99.9188 97.846 103.906 99.2085C106.144 99.9585 115.619 99.2085 113.806 94.121C112.206 89.571 107.131 84.096 105.006 88.5335V88.5335ZM167.906 114.921C166.219 114.433 151.419 111.646 150.694 112.358C149.119 113.946 157.856 113.046 167.631 115.883C167.759 115.92 167.896 115.904 168.012 115.84C168.128 115.775 168.214 115.667 168.25 115.54C168.286 115.412 168.271 115.275 168.206 115.159C168.142 115.043 168.034 114.957 167.906 114.921ZM169.294 107.708C165.009 106.685 160.649 106.007 156.256 105.683C156.124 105.7 156.003 105.769 155.921 105.874C155.839 105.98 155.802 106.113 155.819 106.246C155.835 106.379 155.904 106.499 156.009 106.581C156.115 106.663 156.249 106.7 156.381 106.683C160.638 107.023 164.863 107.687 169.019 108.671C169.146 108.707 169.283 108.692 169.399 108.627C169.515 108.563 169.601 108.455 169.637 108.327C169.674 108.2 169.658 108.063 169.594 107.947C169.529 107.831 169.421 107.745 169.294 107.708V107.708ZM71.9062 36.0835C70.3188 36.2585 69.8312 35.8084 69.6937 36.1584C69.3562 38.4709 75.4062 35.9835 71.9062 36.0835ZM66.6562 26.6709C66.6562 23.5584 65.6562 24.4834 65.6562 26.6709C65.6562 26.8036 65.7089 26.9307 65.8027 27.0245C65.8965 27.1183 66.0236 27.171 66.1562 27.171C66.2889 27.171 66.416 27.1183 66.5098 27.0245C66.6036 26.9307 66.6562 26.8036 66.6562 26.6709V26.6709ZM75.5188 25.496C75.5294 25.5608 75.5528 25.6229 75.5874 25.6787C75.6221 25.7345 75.6674 25.783 75.7208 25.8213C75.7742 25.8596 75.8346 25.887 75.8986 25.902C75.9626 25.9169 76.0289 25.9191 76.0938 25.9084C76.1586 25.8978 76.2207 25.8744 76.2765 25.8398C76.3323 25.8051 76.3808 25.7598 76.4191 25.7064C76.4574 25.653 76.4848 25.5926 76.4998 25.5286C76.5147 25.4646 76.5169 25.3983 76.5062 25.3335C76.0437 22.3209 75.1563 23.221 75.5188 25.496Z" fill="white"/>
<path d="M215.007 144.496C224.344 137.346 224.032 124.196 223.757 123.771C227.344 120.021 227.444 109.146 226.407 106.909C225.007 103.871 231.257 77.0961 221.057 69.6336C221.957 69.2336 223.669 68.2086 223.794 66.8711C224.019 64.2336 221.532 63.8086 219.632 62.6836C211.694 58.0211 211.194 47.6836 195.644 43.8586C195.069 42.7961 194.944 42.6086 194.482 41.8336C205.732 42.6086 204.282 36.4461 202.344 34.9211C201.124 34.2159 199.817 33.6737 198.457 33.3086C203.194 31.3211 203.057 25.3586 196.957 25.9086C196.232 25.9711 198.582 24.0461 196.669 21.5836C196.239 20.9194 195.632 20.3885 194.917 20.0506C194.201 19.7127 193.405 19.5813 192.619 19.6711C192.619 15.4836 190.607 13.7836 188.219 13.7836C191.732 8.63364 187.044 2.89614 180.469 6.08364C182.032 2.45864 177.869 -4.06636 168.332 3.49614C167.732 0.871137 159.432 -1.86636 158.532 1.97114C158.069 3.93364 154.782 -1.55386 148.782 2.94614C147.144 4.19614 146.282 6.25864 148.207 6.90864C142.244 7.34614 139.957 12.8961 144.582 14.0961C145.582 14.3586 142.682 15.0336 143.144 18.7586C143.494 21.6086 146.019 23.2461 148.082 21.6836C148.769 21.1711 148.569 21.0586 148.507 21.5961C148.49 21.8071 148.515 22.0192 148.582 22.22C148.649 22.4208 148.756 22.6061 148.896 22.7647C149.036 22.9234 149.206 23.0522 149.397 23.1435C149.588 23.2348 149.795 23.2867 150.007 23.2961C150.196 24.391 150.484 25.4664 150.869 26.5086C146.344 26.5086 143.657 30.4086 144.857 32.3086C146.244 34.4836 148.682 33.0336 145.632 34.6086C139.719 37.6711 141.207 42.7461 144.832 42.7086C148.457 42.6711 146.082 41.3336 146.644 44.9586C146.994 47.3461 150.869 49.6836 154.144 46.6836C155.069 47.7961 155.257 48.5086 156.382 49.0836C146.994 55.3336 150.269 58.3711 138.094 70.6461C136.682 72.0836 136.269 71.5461 135.594 72.2086C134.919 72.8711 135.844 76.8461 139.344 76.5586C135.507 87.8086 139.344 84.3461 133.794 84.9336C133.669 84.9336 135.257 68.5211 135.044 66.2586C134.919 65.1461 134.694 65.1711 122.144 68.0336C122.557 59.6586 122.469 42.3461 121.744 42.1711C121.619 42.1711 112.582 42.1711 112.582 41.9336C112.382 41.1336 112.969 37.6961 112.807 37.0461C112.657 36.6211 112.157 36.6336 111.757 36.3711C106.907 33.1461 113.007 34.9086 113.469 34.4336C114.144 33.6836 113.469 26.1211 114.719 26.1211C115.969 26.7836 114.969 33.1086 115.444 33.7086C116.982 35.0586 115.932 27.9211 117.594 28.1211C118.507 28.2961 117.469 33.4461 117.819 34.2961C118.957 35.9211 118.557 31.7961 119.907 30.4586C121.482 29.6961 119.832 41.7086 119.657 41.9586C120.294 42.4586 123.094 27.3836 119.419 29.7586C118.344 30.4586 119.419 29.4586 118.632 27.7961C118.194 26.9336 116.944 26.7961 116.244 28.0211C115.582 23.6461 113.394 24.7086 113.057 27.7836C112.732 33.5836 112.869 32.7086 112.769 33.7461C109.457 32.4961 106.982 35.4336 111.844 37.1211C112.607 37.3836 111.844 40.1586 112.082 41.7461C112.082 42.0086 112.219 41.9211 111.569 41.8586C108.894 41.5836 100.894 64.4711 98.4316 67.7586C101.844 72.7586 100.707 73.4961 100.394 72.6711C97.0066 65.6711 82.8941 51.0086 67.2066 45.7086C65.9566 45.3086 66.2566 45.7086 65.9566 44.0836C65.0441 42.7461 78.3817 49.6086 77.2067 29.4836C82.8442 29.6711 82.0191 20.8461 77.3066 20.5961C80.4191 16.7836 79.4442 13.6461 76.3067 10.3086C74.9192 0.308635 64.1692 0.0836365 54.6067 3.73364C52.3442 4.59614 51.9442 5.94614 50.7817 7.94614C49.6567 8.12114 49.1442 7.30864 46.9692 8.55864C40.3567 12.3711 41.9692 23.1461 47.4442 27.4961C46.4567 30.3586 47.3192 33.5336 51.0442 33.2711C51.0442 45.2461 52.1317 42.4711 46.4317 43.4586C5.80665 50.4961 -5.54335 99.7461 12.0692 116.096C13.0442 117.009 8.76915 123.121 16.3942 127.459C16.6384 133.011 17.9632 138.463 20.2942 143.509C22.0317 147.259 22.0942 146.446 21.9192 146.996C14.4942 170.621 0.344152 212.796 0.119152 213.796C-0.693348 217.409 2.85665 218.459 4.49415 215.684C5.21915 214.434 25.2317 160.309 27.8067 153.259C28.9722 154.185 30.1864 155.049 31.4442 155.846C30.9067 165.459 27.8317 207.096 28.3817 209.496C28.4844 210.08 28.7791 210.613 29.2191 211.011C29.6591 211.408 30.2192 211.647 30.8105 211.69C31.4019 211.733 31.9907 211.578 32.4837 211.248C32.9766 210.919 33.3454 210.434 33.5317 209.871C33.7192 209.246 37.7192 181.734 40.1442 160.209C54.5192 166.071 70.8067 166.784 73.7442 166.821C76.2442 216.709 75.8692 213.709 81.1441 212.184C82.0691 211.909 82.0941 212.184 82.2441 206.271C84.7441 208.421 95.7441 217.059 99.0816 217.709C100.082 217.896 101.007 215.896 99.6941 213.584C92.0691 200.171 91.2316 206.359 98.2441 197.496C99.0316 199.409 102.082 207.184 103.244 207.371C106.182 207.696 105.057 214.084 106.857 214.146C110.057 214.271 126.644 213.121 127.944 211.284C128.494 210.521 127.307 208.884 125.782 208.196C109.232 202.159 115.969 213.409 114.707 177.971C114.707 177.071 121.844 168.809 125.244 158.309C127.132 152.471 125.244 149.946 126.182 147.059C128.244 140.246 124.594 141.671 132.107 141.284C133.707 144.384 134.894 142.534 135.769 146.284C136.656 150.298 138.51 154.036 141.169 157.171C141.656 151.448 142.918 145.818 144.919 140.434C146.169 140.321 144.757 139.109 141.907 157.934C142.019 158.059 141.544 192.234 143.032 192.934C144.201 193.308 145.417 193.519 146.644 193.559C146.344 193.796 146.544 202.034 146.407 202.034C146.407 202.346 136.282 205.634 135.157 210.721C135.007 211.834 134.982 212.296 136.144 212.296C140.007 212.084 152.994 208.846 153.844 208.846C153.844 210.234 153.632 210.346 154.944 210.334C156.057 210.334 157.444 210.334 157.807 209.821C158.144 208.984 157.369 195.571 157.569 194.009C157.569 193.884 157.357 194.009 160.407 194.009C160.532 211.846 160.669 210.159 161.919 210.521C167.257 211.434 166.282 212.609 168.169 181.334C172.994 185.709 170.844 185.759 176.919 181.859C177.744 182.896 181.919 187.834 181.919 187.871C179.919 191.771 176.444 199.271 179.494 202.534C180.357 203.271 181.369 201.921 189.957 190.584C193.332 186.109 191.569 190.359 193.582 188.634C197.219 185.521 196.082 187.384 186.082 175.759C191.944 171.521 191.307 172.721 186.669 168.346C161.394 144.434 170.519 160.984 202.532 150.396C203.307 158.446 209.182 208.359 210.369 209.221C211.182 209.809 213.869 209.471 214.707 209.096C216.144 208.446 214.357 190.546 211.732 158.121C222.294 186.971 232.844 214.571 232.844 214.696C234.244 217.659 237.732 217.071 237.544 214.134C237.507 214.184 218.594 156.071 215.007 144.496ZM192.882 187.971C192.294 187.359 192.157 186.896 191.632 187.071C190.644 187.571 181.282 200.821 179.932 201.671C177.157 197.571 182.894 188.271 182.607 187.696C182.432 187.459 186.132 186.446 190.307 181.659C195.082 187.184 195.007 186.221 192.869 187.971H192.882ZM189.794 180.996C187.736 183.588 185.187 185.75 182.294 187.359C178.544 183.209 178.032 182.596 177.294 181.696C187.582 175.184 184.357 174.621 189.782 180.996H189.794ZM223.394 124.534C223.182 134.146 219.569 140.284 214.794 143.821C210.307 129.359 211.507 133.746 212.144 129.009C224.644 125.646 223.407 123.146 223.382 124.534H223.394ZM225.307 105.234C222.694 102.321 218.669 101.484 214.932 100.621C218.044 99.0336 221.707 97.0586 222.632 94.5836C223.882 90.4836 221.969 80.6211 221.194 78.2211C217.982 68.1586 215.882 71.3586 219.944 70.0711C228.169 75.6211 226.157 92.6586 225.294 105.234H225.307ZM176.419 105.434C169.144 106.271 173.082 108.009 171.419 108.984C170.244 109.659 169.844 111.071 171.744 111.484C173.144 111.796 172.994 111.484 172.344 111.896C170.944 112.734 170.582 114.759 175.819 114.234C175.219 115.384 172.207 121.171 171.382 122.196C171.082 122.571 150.594 121.296 137.069 119.696C137.182 119.571 150.332 103.009 153.519 100.171C153.819 100.034 176.019 102.671 176.144 102.671C175.897 103.594 175.99 104.574 176.407 105.434H176.419ZM172.582 113.296C171.644 112.046 177.944 112.334 176.519 110.971C176.394 110.896 164.369 110.309 177.019 108.909C177.134 108.882 177.236 108.815 177.306 108.72C177.375 108.624 177.408 108.507 177.397 108.389C177.386 108.271 177.333 108.162 177.248 108.08C177.162 107.999 177.05 107.951 176.932 107.946C174.682 108.009 173.282 108.421 172.832 107.946C172.094 106.509 176.332 106.521 177.044 106.259C178.294 105.921 176.032 103.759 177.232 102.509C177.857 101.946 179.669 105.534 179.932 105.771C183.569 108.184 197.957 86.0336 206.744 85.2086C208.919 84.9961 202.994 84.7336 200.569 87.0711C195.569 72.9211 195.694 73.4211 195.732 72.8711C195.894 70.6961 198.344 69.7711 200.457 70.1211C202.569 70.4711 203.019 71.8461 205.294 71.8586C206.458 71.8647 207.611 71.6365 208.685 71.1876C209.758 70.7388 210.731 70.0786 211.544 69.2461C213.153 69.9165 214.866 70.3014 216.607 70.3836C219.432 76.4336 220.419 77.0211 221.494 83.9086C222.057 87.4961 223.207 93.5711 220.682 95.9086C215.369 100.834 179.769 115.759 172.569 113.296H172.582ZM179.244 103.009C181.744 103.334 181.369 103.009 180.882 104.096C180.219 105.484 180.682 105.046 179.232 103.009H179.244ZM152.507 37.3211C145.969 35.2961 152.807 27.6211 152.507 30.0586C152.507 30.1836 152.144 30.2961 152.044 30.3586C150.794 31.0711 149.219 36.6086 154.769 36.8336C157.769 36.9711 154.444 37.9336 152.507 37.3211ZM152.807 29.8211C150.932 24.8211 150.857 25.6086 150.444 23.3211C152.944 23.0336 155.644 23.2336 154.019 22.2961C153.132 21.7836 152.257 22.3836 152.657 22.0461C156.407 18.4836 155.069 14.9086 155.819 16.8461C156.18 17.7028 156.751 18.4544 157.481 19.0309C158.21 19.6074 159.073 19.9902 159.99 20.1436C160.907 20.2971 161.847 20.2162 162.724 19.9084C163.602 19.6007 164.387 19.0762 165.007 18.3836C166.057 21.1711 167.232 22.6211 170.544 22.9461C172.757 23.1586 172.407 22.8836 173.244 22.0461C176.457 18.8336 179.494 25.1711 175.594 27.0461C174.169 27.5461 176.207 33.9711 180.019 32.3336C182.869 31.0836 182.094 25.1711 178.919 24.9336C177.744 24.8461 178.344 24.5461 178.532 24.5211C182.657 23.9336 184.407 31.0586 180.757 33.0836C177.407 34.9461 173.394 31.0586 174.894 27.1711C172.207 27.5336 172.219 31.0461 173.644 33.3586C173.819 33.6336 168.032 33.8586 168.569 38.0836C168.932 39.9086 171.069 40.3211 172.907 40.2836C168.994 49.4086 173.982 50.6836 178.307 46.3461C178.663 47.4983 179.177 48.596 179.832 49.6086C181.869 52.1961 159.994 58.6586 160.632 48.5836C161.865 47.8896 163.036 47.0908 164.132 46.1961C164.295 44.9491 164.266 43.6842 164.044 42.4461C163.482 39.1836 158.044 43.7961 152.757 29.7961L152.807 29.8211ZM168.294 72.7836C165.794 70.8586 162.044 56.4336 161.319 52.9711C170.857 58.5961 179.457 51.2086 178.969 52.2711C177.507 55.3461 169.769 70.5961 168.244 72.7586L168.294 72.7836ZM169.257 81.2961C164.694 81.8086 163.519 75.6711 167.019 74.1711C173.844 71.6461 175.844 80.5336 169.257 81.2961ZM158.307 49.7086C158.307 49.7086 159.432 49.1336 160.194 48.7086C160.069 51.5461 161.407 52.0586 158.307 49.6836V49.7086ZM136.507 74.5586C134.807 71.9836 137.032 73.5211 142.594 67.2836C146.932 62.4336 151.469 52.0211 156.982 49.7836C157.294 50.0586 158.969 51.3711 160.569 52.4836C161.507 58.5461 164.694 69.9836 167.044 72.9336C167.157 73.0711 161.482 74.8961 165.357 80.8336C172.157 86.2836 177.732 74.5836 170.107 73.0211C168.319 72.6711 169.307 75.0961 177.882 55.9961C180.382 50.3711 179.069 52.2461 181.169 50.6711C182.982 51.6586 188.019 51.9961 188.019 46.5961C192.269 50.1086 197.607 48.7711 196.207 45.0211C208.957 48.4836 210.494 56.0711 216.332 61.4211C220.082 64.8961 223.107 64.5211 222.807 66.7461C222.807 67.8336 219.182 70.6336 213.557 69.0586C211.632 68.5211 211.419 68.1211 211.057 68.5711C210.22 69.4771 209.178 70.1698 208.02 70.5917C206.861 71.0135 205.618 71.1522 204.394 70.9961C203.332 70.7211 202.732 70.0836 201.232 69.5461C199.194 68.9586 196.232 69.5461 195.319 71.6711C192.369 59.7961 193.182 58.2211 192.507 57.5461C189.882 60.2211 198.619 84.0711 199.807 87.6961C197.682 88.9461 192.182 94.4086 190.444 96.1461C190.007 96.5836 180.919 94.5086 150.732 94.3586C153.332 89.1711 157.669 85.8711 157.894 85.2461C157.969 84.8336 152.807 79.6461 153.757 73.9211C155.194 65.1711 158.944 60.3461 157.357 61.7836C154.357 66.4586 152.019 71.6961 153.182 77.2211C152.646 77.6061 152.027 77.8579 151.375 77.9557C150.723 78.0536 150.056 77.9946 149.432 77.7836C146.932 76.8461 146.332 73.0461 139.682 75.7836C139.091 75.946 138.464 75.9147 137.892 75.6942C137.321 75.4737 136.835 75.0757 136.507 74.5586ZM140.119 76.4836C142.394 76.0961 144.144 75.2336 145.657 76.1711C146.907 76.9461 149.282 80.5211 153.282 78.2711C154.382 79.8836 153.994 82.3211 156.769 85.1211C145.082 96.6711 152.182 99.9711 132.344 99.6836C132.644 96.6211 133.332 89.2961 133.669 85.3586C139.794 84.6336 135.832 88.7211 140.119 76.4836ZM133.994 66.5961C133.994 72.3211 131.382 100.134 130.744 105.821C124.832 107.796 86.0067 118.709 72.5442 120.821C72.8192 112.734 75.1941 88.8836 77.3691 81.0836C84.0691 77.7836 127.507 67.5461 133.994 66.5961ZM45.2442 108.234C48.9942 105.734 67.8191 101.621 73.5816 100.296C73.5816 100.596 73.3691 102.121 73.3316 102.421C43.1692 108.584 49.2067 109.946 45.2817 108.234H45.2442ZM78.9942 52.0961C71.8692 68.6586 71.4942 63.7711 77.8817 65.7586C78.5442 65.9711 68.7067 86.7586 68.6692 87.4461C67.1567 117.321 67.7442 81.0461 70.6942 51.1961C71.1067 47.0836 69.4566 46.2961 79.0066 52.0961H78.9942ZM70.8941 95.3711C70.8941 95.5037 70.8415 95.6309 70.7477 95.7247C70.6539 95.8185 70.5268 95.8711 70.3942 95.8711C70.2615 95.8711 70.1344 95.8185 70.0406 95.7247C69.9468 95.6309 69.8941 95.5037 69.8941 95.3711C69.8816 92.5461 70.8941 91.0711 70.8941 95.3711ZM66.2567 45.8461C71.9692 47.8086 70.6192 46.1086 69.7317 55.2586C69.7317 54.9961 68.5691 54.3086 65.8941 51.5836C67.0941 50.4961 66.5692 47.4336 66.2567 45.8461ZM66.4067 58.5461C67.2567 58.3336 67.3816 56.0461 67.4566 54.4711C70.2816 57.0961 69.6817 55.1461 69.0567 62.5086C67.3817 58.1211 67.3942 58.3836 67.1692 58.2836C66.8567 58.9086 65.1941 59.6836 64.3316 58.9961C64.2441 59.8836 64.7192 70.1211 64.7942 73.0086C44.3567 37.1461 57.7817 63.9461 61.7192 56.6961C65.3567 58.9711 64.0691 59.1336 66.4316 58.5461H66.4067ZM77.3442 21.2961C81.0942 21.2211 81.6692 28.3461 77.5067 28.5086C73.3442 28.6711 73.2442 21.3711 77.3442 21.2961ZM73.7567 16.4336C74.0567 17.4211 74.6067 19.4336 75.0067 21.2711C73.0192 22.9336 74.2567 24.2711 72.7817 24.4961C72.5067 23.7961 72.5067 23.3961 72.1317 23.7961C72.1317 24.8336 72.4692 24.5461 71.0692 24.8086C68.7067 25.2336 70.4692 24.9836 69.0317 23.3336C68.5226 22.6938 67.8476 22.2062 67.0803 21.9239C66.313 21.6416 65.4829 21.5755 64.6806 21.7329C63.8783 21.8903 63.1347 22.265 62.5309 22.8162C61.927 23.3675 61.4863 24.074 61.2567 24.8586C60.1692 24.8586 56.8067 24.7336 56.2567 24.6461C55.5067 22.4336 54.1567 14.5461 54.1442 14.4461C63.5067 20.2461 71.3692 18.4586 73.7567 16.4336ZM69.2567 27.6836C68.4817 30.0086 63.5192 30.8461 62.2692 27.1211C60.2817 21.2961 71.6442 20.4086 69.2317 27.6836H69.2567ZM48.9942 32.3211C47.3692 31.4836 46.9567 26.4461 49.8067 26.0711C51.6567 25.8461 52.6442 27.8961 53.3817 28.2336C55.2817 29.0836 56.4567 27.8961 56.4567 25.7961H61.1067C60.8442 32.2961 71.1066 32.0461 70.0191 25.9086C73.1441 25.7711 71.7317 23.7711 73.2567 30.5336C72.2567 31.0211 70.5567 31.2461 70.4817 31.5211C70.8317 32.0711 74.2317 31.7586 74.2317 30.4336C73.8442 28.1711 73.5567 26.8086 73.3567 26.0586C73.5813 26.758 73.9483 27.4034 74.4345 27.9541C74.9207 28.5048 75.5155 28.949 76.1817 29.2586C76.2567 30.2211 76.2692 30.9461 76.2942 32.2211C76.6817 47.4961 65.0441 41.6961 64.8941 43.4711C64.8941 44.0961 66.3816 49.7211 65.3316 50.7086C62.2316 49.9586 52.2317 43.5961 51.9192 42.7711C51.9067 28.4086 51.8817 33.7961 48.9942 32.3211ZM63.2692 51.0711C62.3517 53.3351 61.261 55.5249 60.0067 57.6211C51.6942 52.0586 50.7442 48.7961 47.8942 43.7961C54.6067 42.6461 47.8817 43.9086 63.2692 51.0836V51.0711ZM47.0192 44.1711C70.3692 84.1711 67.9817 77.1836 67.5317 83.6711C64.4567 81.7711 47.8942 71.3461 45.8567 69.6961C46.3442 68.2461 51.2441 63.7711 51.5191 62.9461C51.7941 62.1211 36.6567 47.0711 36.7067 47.0586C40.0414 45.829 43.4689 44.8677 46.9567 44.1836L47.0192 44.1711ZM28.9817 100.421C31.0192 100.909 30.5442 101.246 30.9817 100.534C36.3942 91.7836 38.8567 75.3836 39.0942 75.1836C39.8192 76.0711 37.9692 90.8836 31.7692 100.184C30.5942 101.946 30.5817 100.184 33.9942 104.196C43.7567 101.809 60.6441 100.046 73.8316 98.6586C73.8316 98.9836 73.7317 99.5086 73.6942 99.9086C65.1317 101.621 38.5816 105.909 44.0816 111.259C45.8066 112.721 71.2067 122.509 72.4442 121.259C85.3317 119.609 128.194 107.996 131.344 106.684C131.682 106.459 131.644 106.984 132.269 100.571C139.669 100.821 142.269 101.821 146.907 98.4336C148.252 97.4606 149.463 96.3131 150.507 95.0211C162.819 95.1711 177.419 95.6586 189.694 97.0461C177.369 109.659 184.444 102.871 181.194 102.434C175.732 101.684 153.307 99.6211 153.444 99.8336C153.094 99.3461 136.894 117.996 135.944 119.721C134.994 121.446 171.169 123.846 171.944 123.034C172.719 122.221 176.282 115.384 176.944 114.171C183.294 113.346 191.944 112.146 213.757 101.284C232.632 106.009 226.669 114.796 217.507 118.234C214.307 119.484 183.594 128.359 142.207 131.446C66.5316 137.084 21.0942 121.446 23.5442 121.446C24.1567 121.446 24.4317 120.646 25.4942 118.671C30.8442 123.384 44.4192 127.534 41.0567 123.184C41.7529 123.286 42.4604 123.286 43.1567 123.184C44.4817 122.884 44.5692 121.621 43.5067 120.684C42.9692 120.221 42.8942 120.371 43.3692 120.334C45.4442 120.184 45.5692 118.571 43.9567 117.659C41.7817 116.409 37.9567 116.546 36.8567 114.546C36.0567 113.096 38.9067 111.634 37.9192 110.046C37.2317 108.946 36.1317 109.396 35.0567 110.121C32.8817 111.634 33.6692 111.759 32.1067 110.321C34.9567 108.334 35.8567 109.309 35.3942 107.896C34.8594 106.335 33.9619 104.923 32.7755 103.775C31.5891 102.628 30.1476 101.778 28.5692 101.296C18.1817 99.1711 14.5067 106.296 14.1817 106.296C13.4817 104.409 19.8067 98.2711 28.9192 100.396L28.9817 100.421ZM36.6317 115.621C38.1192 117.484 44.2442 117.834 44.1317 119.184C43.6067 120.609 36.6941 117.134 37.0066 118.971C37.2066 119.521 37.6067 119.234 40.0567 120.084C44.8692 121.771 44.6067 123.521 37.3567 121.071C36.0192 120.621 35.8317 121.071 36.0442 121.559C36.2567 122.046 40.7442 123.009 40.4942 124.059C40.2317 124.871 29.7317 121.809 25.7442 118.271C27.202 115.318 29.2681 112.707 31.8067 110.609C32.8192 111.596 33.2442 112.046 33.4942 111.959C33.7442 111.871 37.3442 108.721 37.4817 110.709C37.5067 112.059 34.6192 113.171 36.5692 115.596L36.6317 115.621ZM16.9317 127.746C27.9442 133.834 28.3317 126.759 22.2942 146.009C19.0819 140.42 17.2238 134.157 16.8692 127.721L16.9317 127.746ZM3.54415 215.334C3.09415 216.209 1.04415 216.871 1.56915 214.084C3.85665 202.259 19.6067 160.334 26.8942 131.759C29.6442 132.621 31.4942 133.134 34.2567 133.846C32.1942 139.584 4.05665 214.546 3.54415 215.334ZM33.0192 207.146C32.4567 210.896 29.5692 211.109 29.2692 207.071C28.9192 201.709 30.6942 187.671 31.8942 156.159C34.3516 157.645 36.9172 158.944 39.5692 160.046C39.0817 163.859 34.6692 196.184 33.0192 207.146ZM80.9941 211.196C76.6941 212.846 77.5692 214.446 74.4317 166.821C75.0192 166.821 78.5941 166.884 81.7691 166.609C81.4066 189.471 81.4816 208.046 80.9941 211.196ZM28.0567 152.609C33.5442 137.609 27.6692 146.496 43.1692 154.009C56.9192 160.671 69.3191 161.509 84.6316 161.296C85.3566 163.346 85.8816 164.884 85.9941 165.046C71.3191 167.746 42.0067 163.796 28.0567 152.609ZM82.3066 203.671C83.0441 160.434 80.4566 167.034 86.3316 166.021C88.6691 172.484 89.8191 175.546 90.6316 177.734C82.5566 199.596 82.8317 198.509 83.6317 198.984C84.7692 199.734 84.5066 198.684 82.3066 203.671ZM97.7816 196.546C96.2154 198.604 94.5467 200.581 92.7816 202.471C89.8766 201.298 87.0645 199.906 84.3691 198.309C84.2566 198.234 89.7191 181.971 90.8691 178.309C97.0816 195.046 97.9191 196.371 97.7816 196.546ZM113.307 204.171C112.682 204.359 105.957 205.971 103.444 206.384C72.3191 142.246 100.657 165.571 62.8567 159.434C54.1067 157.996 42.1192 154.334 35.2942 147.871C30.0442 142.871 31.0192 144.746 34.7442 133.996C36.7442 134.396 64.1441 141.859 108.344 141.859C114.732 158.246 114.219 198.796 113.307 204.171ZM114.557 176.071C113.944 166.884 113.394 152.984 109.319 141.846C123.632 141.921 121.932 141.346 122.519 142.084C130.132 151.621 121.469 166.296 114.569 176.071H114.557ZM125.244 146.484C123.482 140.471 120.444 141.921 126.044 141.621C125.904 143.259 125.641 144.885 125.257 146.484H125.244ZM135.107 143.134C131.982 140.871 133.644 141.296 134.982 141.221C135.082 143.221 135.257 143.234 135.119 143.134H135.107ZM156.807 209.384C154.219 209.384 154.719 209.984 154.657 208.521C154.569 206.709 140.444 211.434 135.907 211.434C136.332 207.684 143.407 204.334 146.857 202.821C146.857 202.821 147.644 202.821 150.307 203.109C158.932 204.021 156.819 200.196 156.819 209.384H156.807ZM146.807 193.696C152.682 194.196 157.044 193.959 157.032 194.084C156.819 195.646 157.032 202.146 156.782 202.196C153.561 202.806 150.253 202.776 147.044 202.109C146.857 193.234 146.957 194.221 146.807 193.696ZM15.7942 125.921C13.7942 124.671 12.1567 123.559 13.1067 117.296C29.6317 131.296 126.857 144.459 214.944 119.934C224.944 117.146 226.419 112.021 226.407 112.434C226.082 123.821 222.757 125.571 212.732 128.259C129.157 150.621 35.7317 138.946 15.7942 125.921ZM161.682 209.521C161.357 207.434 161.257 196.496 161.232 194.046C163.857 193.971 163.069 196.146 164.457 178.296C164.544 178.371 165.707 157.471 166.469 151.796C166.569 151.009 166.894 150.821 166.869 151.796C166.869 152.421 166.869 153.246 166.807 154.296C165.769 183.334 164.307 178.046 167.182 180.546C165.007 211.071 166.007 211.171 161.682 209.521ZM170.982 153.709C170.682 153.709 171.194 154.096 167.057 150.321C169.744 149.959 193.307 149.821 205.269 140.509C206.282 143.346 206.044 142.684 207.857 147.671C197.194 152.159 182.219 154.234 170.982 153.709ZM210.894 208.459C210.707 208.234 204.132 161.071 202.907 150.334C209.582 148.209 207.382 146.384 210.832 155.834C214.094 205.909 216.257 211.146 210.894 208.459ZM233.982 214.809C233.669 214.259 204.582 137.309 202.607 131.434C205.107 130.834 208.294 130.034 210.194 129.534C217.169 158.284 234.432 203.621 236.007 214.109C236.394 216.659 234.907 216.521 233.982 214.809Z" fill="white"/>
</svg>
