<svg width="493" height="493" viewBox="0 0 493 493" fill="none" xmlns="http://www.w3.org/2000/svg">
<path d="M445.707 0.50391C444.867 0.22266 443.973 0 443.02 0C442.348 0 441.676 0.0546893 440.949 0.113281C440.278 0.113281 439.606 0 438.879 0H116.649C87.3601 0 63.5591 23.801 63.5591 53.09V406.73L8.2891 406.726C3.6953 406.726 0 410.421 0 415.015V439.601C0 468.89 23.801 492.691 53.09 492.691L353.53 492.687C354.147 492.687 354.706 492.633 355.264 492.574C355.823 492.574 356.44 492.687 356.999 492.687C357.725 492.687 358.456 492.574 359.128 492.406C385.784 489.605 406.616 466.98 406.616 439.652L406.838 87.242H483.725C488.319 87.242 492.014 83.5467 492.014 78.9529V53.1909C492.018 26.1479 471.803 3.85894 445.705 0.499939L445.707 0.50391ZM53.0872 476.054C32.9822 476.054 16.5752 459.702 16.5752 439.542V423.304H303.965V439.601C303.965 453.769 309.567 466.593 318.582 476.113H53.0822L53.0872 476.054ZM390.037 415.8V439.542C390.037 459.085 374.58 475.046 355.318 475.94C335.998 475.045 320.599 459.085 320.599 439.542V414.956C320.599 410.362 316.904 406.667 312.31 406.667L80.1301 406.671V53.0807C80.1301 32.9757 96.4821 16.5687 116.642 16.5687H404.652C395.582 26.0882 390.035 38.9127 390.035 53.0807V415.011C389.98 415.292 390.035 415.515 390.035 415.796L390.037 415.8ZM475.439 70.6199H406.56V53.1469C406.56 33.7129 421.849 17.8109 441.001 16.7489C460.153 17.8114 475.442 33.7179 475.442 53.1469L475.439 70.6199Z" fill="black"/>
<path d="M167.327 107.684L132.999 142.012L117.878 127.227C114.632 124.036 109.367 124.09 106.175 127.34C102.984 130.586 103.039 135.852 106.288 139.043L127.288 159.594C128.913 161.161 130.984 161.946 133.058 161.946C135.187 161.946 137.316 161.106 138.937 159.54L179.035 119.388C182.281 116.142 182.281 110.876 179.035 107.685C175.785 104.493 170.574 104.439 167.328 107.685L167.327 107.684Z" fill="black"/>
<path d="M167.327 209.834L132.999 244.162L117.878 229.377C114.632 226.186 109.367 226.241 106.175 229.491C102.984 232.737 103.039 238.002 106.288 241.194L127.288 261.745C128.913 263.311 130.984 264.096 133.058 264.096C135.187 264.096 137.316 263.256 138.937 261.69L179.035 221.538C182.281 218.292 182.281 213.026 179.035 209.835C175.785 206.585 170.574 206.585 167.328 209.835L167.327 209.834Z" fill="black"/>
<path d="M167.327 311.974L132.999 346.302L117.878 331.517C114.632 328.326 109.367 328.38 106.175 331.63C102.984 334.876 103.039 340.142 106.288 343.333L127.288 363.884C128.913 365.451 130.984 366.236 133.058 366.236C135.187 366.236 137.316 365.396 138.937 363.83L179.035 323.678C182.281 320.432 182.281 315.166 179.035 311.975C175.785 308.725 170.574 308.725 167.328 311.975L167.327 311.974Z" fill="black"/>
<path d="M315.057 105.284H212.857C208.263 105.284 204.568 108.979 204.568 113.573C204.568 118.167 208.263 121.862 212.857 121.862H315.057C319.651 121.862 323.346 118.167 323.346 113.573C323.346 108.979 319.651 105.284 315.057 105.284Z" fill="black"/>
<path d="M212.857 162.004H274.009C278.603 162.004 282.298 158.309 282.298 153.715C282.298 149.121 278.603 145.426 274.009 145.426L212.857 145.43C208.263 145.43 204.568 149.125 204.568 153.719C204.568 158.309 208.267 162.004 212.857 162.004V162.004Z" fill="black"/>
<path d="M315.057 206.304H212.857C208.263 206.304 204.568 209.999 204.568 214.593C204.568 219.187 208.263 222.882 212.857 222.882H315.057C319.651 222.882 323.346 219.187 323.346 214.593C323.346 209.999 319.651 206.304 315.057 206.304V206.304Z" fill="black"/>
<path d="M212.857 263.034H274.009C278.603 263.034 282.298 259.339 282.298 254.745C282.298 250.151 278.603 246.456 274.009 246.456L212.857 246.46C208.263 246.46 204.568 250.155 204.568 254.749C204.568 259.339 208.267 263.034 212.857 263.034V263.034Z" fill="black"/>
<path d="M315.057 307.884H212.857C208.263 307.884 204.568 311.579 204.568 316.173C204.568 320.767 208.263 324.462 212.857 324.462H315.057C319.651 324.462 323.346 320.767 323.346 316.173C323.346 311.579 319.651 307.884 315.057 307.884Z" fill="black"/>
<path d="M274.007 348.044H212.855C208.261 348.044 204.566 351.739 204.566 356.333C204.566 360.927 208.261 364.622 212.855 364.622H274.007C278.601 364.622 282.296 360.927 282.296 356.333C282.296 351.739 278.601 348.044 274.007 348.044Z" fill="black"/>
</svg>
