<svg width="499" height="501" viewBox="0 0 499 501" fill="none" xmlns="http://www.w3.org/2000/svg">
<path d="M360.08 220.783V479.503H20.1601V20.3026H360.08V40.4626H380.24V10.2246C380.24 7.42378 379.119 5.18548 377.439 2.94338C375.76 1.26368 372.959 0.142578 370.158 0.142578H10.0781C7.2773 0.142578 4.4804 0.705076 2.8008 2.94338C0.558604 4.62308 0 7.42388 0 10.2246V490.145C0 492.945 1.1211 495.184 2.8008 497.426C4.4805 499.105 7.2813 500.227 10.082 500.227H370.722C373.523 500.227 375.761 499.105 378.003 497.426C379.683 495.746 380.804 492.945 380.804 490.145L380.8 220.785L360.08 220.783Z" fill="black"/>
<path d="M399.28 57.8242C397.6 56.1445 394.799 55.0234 391.999 55.0234C389.198 55.0234 386.96 56.1445 384.718 58.3828L188.168 262.783C184.246 266.705 184.246 273.424 188.726 277.342L231.847 318.783C233.527 320.463 236.328 321.584 239.128 321.584C241.929 321.584 244.167 320.463 246.41 318.224L442.97 113.264C446.891 109.342 446.891 102.623 442.411 98.7052L399.28 57.8242ZM238 296.944L210 269.506L392.56 79.1062L421.119 106.547L238 296.944Z" fill="black"/>
<path d="M495.6 44.3824L452.479 2.94143C448.557 -0.980475 441.838 -0.980475 437.92 2.94143L405.998 35.9804C402.076 39.9023 402.076 46.6214 405.998 50.5394L449.119 91.9804C450.799 93.6601 453.6 94.7812 456.4 94.7812C459.201 94.7812 461.439 93.6601 463.681 91.4218L495.603 58.3828C497.283 56.7031 498.404 53.9023 498.404 51.1016C498.4 48.8633 497.279 46.0625 495.6 44.3828L495.6 44.3824ZM456.401 70.1404L427.842 42.7024L445.201 24.2224L473.76 51.6634L456.401 70.1404Z" fill="black"/>
<path d="M136.64 387.103L200.48 364.142C202.16 363.583 203.281 363.021 204.402 361.904L224.562 340.623C226.242 338.943 227.363 336.142 227.363 333.341C227.363 330.541 226.242 328.302 224.003 326.06L180.882 284.619C176.961 280.697 170.241 280.697 166.323 284.619L145.604 305.9C144.483 307.021 143.925 308.138 143.366 309.822L122.647 374.22C121.526 378.142 122.647 382.06 125.448 384.861C128.8 387.666 132.717 388.783 136.639 387.103L136.64 387.103ZM162.398 318.783L174.16 306.463L202.719 333.904L190.957 345.666L148.957 360.787L162.398 318.783Z" fill="black"/>
<path d="M68.8799 59.5049H325.36V79.6649H68.8799V59.5049Z" fill="black"/>
<path d="M68.8799 119.423H265.44V139.583H68.8799V119.423Z" fill="black"/>
<path d="M68.8799 179.902H205.52V200.062H68.8799V179.902Z" fill="black"/>
<path d="M68.8799 239.822H145.04V259.982H68.8799V239.822Z" fill="black"/>
<path d="M68.8799 299.742H100.239V319.902H68.8799V299.742Z" fill="black"/>
<path d="M68.8799 360.223H84.5599V380.383H68.8799V360.223Z" fill="black"/>
</svg>
