<svg width="351" height="519" viewBox="0 0 351 519" fill="none" xmlns="http://www.w3.org/2000/svg">
<path d="M214.27 168.051C210.407 168.051 207.27 171.184 207.27 175.051C207.27 178.918 210.407 182.051 214.27 182.051H231.071C234.938 182.051 238.071 178.918 238.071 175.051C238.071 171.184 234.938 168.051 231.071 168.051H214.27Z" fill="black"/>
<path d="M46.2703 182.051H173.28C177.147 182.051 180.28 178.918 180.28 175.051C180.28 171.184 177.147 168.051 173.28 168.051H46.2703C42.407 168.051 39.2703 171.184 39.2703 175.051C39.2703 178.918 42.407 182.051 46.2703 182.051Z" fill="black"/>
<path d="M46.2703 243.2H152.67C156.534 243.2 159.67 240.067 159.67 236.2C159.67 232.333 156.534 229.2 152.67 229.2H46.2703C42.407 229.2 39.2703 232.333 39.2703 236.2C39.2703 240.067 42.407 243.2 46.2703 243.2V243.2Z" fill="black"/>
<path d="M109.89 290.301H46.2734C42.4101 290.301 39.2734 293.437 39.2734 297.301C39.2734 301.168 42.4101 304.301 46.2734 304.301H109.89C113.758 304.301 116.89 301.168 116.89 297.301C116.89 293.437 113.758 290.301 109.89 290.301Z" fill="black"/>
<path d="M109.89 351.45H46.2734C42.4101 351.45 39.2734 354.587 39.2734 358.45C39.2734 362.317 42.4101 365.45 46.2734 365.45H109.89C113.758 365.45 116.89 362.317 116.89 358.45C116.89 354.587 113.758 351.45 109.89 351.45Z" fill="black"/>
<path d="M349.12 299.15C346.265 290.541 339.32 283.908 330.585 281.451C324.515 279.85 320.386 274.229 320.675 267.955C321.007 258.842 316.781 250.154 309.398 244.795C302.015 239.436 292.449 238.104 283.882 241.245C279.117 242.862 273.847 241.651 270.273 238.108V33.5979C270.273 24.6877 266.734 16.1409 260.433 9.8399C254.133 3.5391 245.585 9.76571e-05 236.675 9.76571e-05H134.415C133.802 -0.00380834 133.193 0.109479 132.622 0.336039H131.95C131.193 0.664159 130.509 1.13682 129.935 1.73444L1.75485 130.254C1.15719 130.829 0.684545 131.512 0.356445 132.27C0.333007 132.493 0.333007 132.719 0.356445 132.942C0.129885 133.512 0.0166073 134.122 0.0205072 134.735C-0.00683575 134.883 -0.00683575 135.036 0.0205072 135.184V372.064C0.0205072 380.974 3.5596 389.521 9.8603 395.822C16.1611 402.123 24.7083 405.666 33.6183 405.666H171.938C173.528 411.725 177.169 417.049 182.243 420.728C184.361 422.271 186.704 423.482 189.189 424.314V511.056C189.22 513.548 190.568 515.837 192.728 517.079C194.888 518.321 197.544 518.329 199.716 517.103L246.142 490.111L292.509 517.103C293.587 517.712 294.798 518.04 296.036 518.056C297.275 518.048 298.489 517.72 299.564 517.103C301.564 515.755 302.728 513.47 302.642 511.056V424.314C305.083 423.454 307.384 422.247 309.474 420.728C316.837 415.345 321.036 406.654 320.677 397.544C320.442 391.399 324.446 385.892 330.364 384.216C339.134 381.735 346.091 375.044 348.911 366.38C351.735 357.712 350.048 348.208 344.419 341.04C340.466 336.138 340.466 329.142 344.419 324.239C350.009 317.157 351.767 307.778 349.122 299.153L349.12 299.15ZM33.2303 391.662C28.0467 391.662 23.0743 389.604 19.4103 385.936C15.7462 382.272 13.6876 377.299 13.6876 372.116V142.516H108.329L108.325 142.52C117.239 142.52 125.786 138.981 132.087 132.676C138.388 126.375 141.927 117.828 141.927 108.918V75.8789C141.927 72.0117 138.794 68.8789 134.927 68.8789C131.059 68.8789 127.927 72.0117 127.927 75.8789V108.695C127.927 113.879 125.868 118.847 122.204 122.515C118.536 126.179 113.567 128.238 108.384 128.238H23.8798L127.87 23.8576V39.7596C127.87 43.6268 131.003 46.7596 134.87 46.7596C138.733 46.7596 141.87 43.6268 141.87 39.7596V14.0566H236.679C241.862 14.0566 246.831 16.1152 250.495 19.7793C254.163 23.4473 256.221 28.416 256.221 33.5993V226.069C252.944 224.753 249.448 224.069 245.916 224.054C236.795 224.05 228.271 228.585 223.182 236.152C219.757 241.265 213.276 243.37 207.502 241.245C198.936 238.136 189.385 239.48 182.01 244.831C174.639 250.187 170.405 258.851 170.709 267.956C171.002 274.214 166.901 279.831 160.854 281.452C152.17 284.019 145.319 290.714 142.561 299.339C139.803 307.96 141.495 317.39 147.077 324.519C151.03 329.422 151.03 336.417 147.077 341.32C141.448 348.481 139.752 357.976 142.565 366.64C145.373 375.304 152.315 381.999 161.077 384.495C164.78 385.558 167.846 388.171 169.475 391.663L33.2303 391.662ZM288.64 498.902L249.441 475.941C248.363 475.336 247.152 475.008 245.914 474.992C244.676 474.996 243.461 475.324 242.387 475.941L203.188 498.902V425.429C204.731 425.172 206.246 424.777 207.723 424.254C213.5 422.129 219.981 424.234 223.403 429.351C228.458 436.953 236.981 441.519 246.11 441.519C255.239 441.519 263.762 436.953 268.817 429.351C272.254 424.254 278.723 422.148 284.501 424.254C285.974 424.777 287.493 425.172 289.036 425.429L288.64 498.902ZM333.441 349.662C336.316 353.155 337.234 357.862 335.875 362.178C334.519 366.495 331.078 369.831 326.723 371.053C320.836 372.729 315.68 376.335 312.086 381.291C308.492 386.244 306.664 392.264 306.898 398.381C307.011 402.815 304.91 407.01 301.297 409.58C297.683 412.198 293.004 412.846 288.809 411.319C283.113 409.194 276.871 409.037 271.075 410.873C265.282 412.709 260.266 416.436 256.837 421.451C254.364 425.233 250.149 427.51 245.634 427.51C241.118 427.51 236.907 425.233 234.435 421.451C229.368 413.889 220.861 409.349 211.755 409.357C208.544 409.338 205.352 409.904 202.348 411.037C198.153 412.568 193.473 411.916 189.86 409.299C186.247 406.732 184.146 402.533 184.259 398.1C184.466 392.061 182.657 386.127 179.118 381.229C175.579 376.334 170.513 372.752 164.716 371.053C160.431 369.834 157.033 366.564 155.654 362.33C154.271 358.096 155.087 353.451 157.829 349.939C161.599 345.15 163.646 339.236 163.646 333.142C163.646 327.044 161.599 321.13 157.829 316.341C155.087 312.829 154.271 308.185 155.654 303.95C157.033 299.716 160.431 296.446 164.716 295.227C170.607 293.559 175.767 289.958 179.364 285C182.962 280.043 184.782 274.02 184.54 267.898C184.38 263.445 186.446 259.207 190.052 256.586C193.657 253.969 198.329 253.321 202.517 254.852C208.267 256.969 214.56 257.094 220.392 255.207C226.22 253.317 231.244 249.524 234.662 244.434C237.115 240.63 241.334 238.333 245.861 238.333C250.388 238.333 254.607 240.63 257.06 244.434C260.458 249.528 265.474 253.325 271.294 255.215C277.118 257.106 283.407 256.977 289.146 254.852C293.333 253.321 298.005 253.969 301.611 256.587C305.216 259.208 307.283 263.446 307.122 267.899C306.9 274.016 308.732 280.028 312.322 284.981C315.915 289.934 321.064 293.543 326.947 295.227C331.232 296.445 334.63 299.715 336.013 303.949C337.392 308.184 336.575 312.828 333.837 316.34C330.13 321.09 328.099 326.934 328.056 332.961C328.017 338.989 329.97 344.856 333.611 349.66L333.441 349.662Z" fill="black"/>
<path d="M309.8 313.65C305.074 298.052 294.839 284.705 281.003 276.091C267.167 267.482 250.675 264.189 234.593 266.834C231.109 267.716 228.859 271.103 229.394 274.658C229.929 278.216 233.074 280.787 236.667 280.607C239.57 280.115 242.511 279.873 245.457 279.88C255.199 279.9 264.754 282.584 273.074 287.65C281.398 292.716 288.172 299.962 292.668 308.607H198.754C201.949 302.505 206.304 297.084 211.578 292.65C214.671 290.142 215.148 285.607 212.64 282.513C210.136 279.419 205.597 278.943 202.507 281.447C192.573 289.841 185.304 300.951 181.593 313.416C177.886 325.881 177.894 339.158 181.616 351.615C187.847 372.256 203.639 388.627 224.038 395.599C244.436 402.571 266.944 399.29 284.503 386.782C302.065 374.278 312.523 354.079 312.601 332.52V327.649C312.184 322.891 311.242 318.2 309.801 313.649L309.8 313.65ZM297.652 343.048H282.586C278.719 343.048 275.586 346.181 275.586 350.048C275.586 353.916 278.719 357.048 282.586 357.048H292.668C286.719 368.646 276.699 377.634 264.527 382.294C252.359 386.955 238.894 386.955 226.722 382.294C214.554 377.634 204.531 368.646 198.585 357.048H253.464C257.331 357.048 260.464 353.916 260.464 350.048C260.464 346.181 257.331 343.048 253.464 343.048H193.827C193.159 339.728 192.819 336.353 192.819 332.97C192.816 329.545 193.155 326.131 193.827 322.775H297.647C298.268 326.139 298.589 329.549 298.596 332.97C298.585 336.349 298.264 339.724 297.647 343.048H297.652Z" fill="black"/>
<path d="M182.24 134.001H218.248C222.487 133.985 226.545 132.29 229.537 129.29C232.53 126.286 234.209 122.223 234.209 117.985V109.473C234.209 105.606 231.077 102.473 227.209 102.473C223.342 102.473 220.209 105.606 220.209 109.473V117.985C220.209 119.074 219.338 119.969 218.248 120H182.24C181.151 119.969 180.28 119.075 180.28 117.985V53.1917C180.28 52.0979 181.151 51.2073 182.24 51.1761H218.248C219.338 51.2073 220.209 52.098 220.209 53.1917V78.3907C220.209 82.2579 223.342 85.3907 227.209 85.3907C231.077 85.3907 234.209 82.2579 234.209 78.3907V53.1917C234.209 48.9534 232.53 44.887 229.537 41.8867C226.545 38.8828 222.487 37.1914 218.248 37.1758H182.24C178.002 37.1914 173.944 38.8828 170.951 41.8867C167.959 44.8867 166.28 48.9531 166.28 53.1917V117.985C166.28 122.223 167.959 126.285 170.951 129.29C173.944 132.29 178.002 133.985 182.24 134.001Z" fill="black"/>
</svg>
