<svg width="561" height="543" viewBox="0 0 561 543" fill="none" xmlns="http://www.w3.org/2000/svg">
<path d="M218.75 161.87C218.75 146.784 212.758 132.319 202.094 121.651C191.426 110.983 176.961 104.991 161.875 104.991C146.793 104.991 132.324 110.983 121.66 121.647C110.992 132.315 105 146.78 105 161.866C105 176.952 110.992 191.417 121.656 202.085C132.324 212.749 146.789 218.741 161.875 218.741C176.953 218.726 191.41 212.73 202.074 202.065C212.734 191.405 218.734 176.948 218.75 161.87V161.87ZM161.875 201.245V201.241C151.434 201.241 141.418 197.093 134.035 189.71C126.652 182.324 122.504 172.312 122.504 161.866C122.504 151.425 126.652 141.409 134.035 134.026C141.418 126.644 151.433 122.495 161.875 122.495C172.32 122.495 182.332 126.644 189.719 134.026C197.102 141.413 201.25 151.424 201.25 161.87C201.238 172.308 197.086 182.315 189.703 189.698C182.324 197.077 172.312 201.229 161.875 201.241V201.245Z" fill="black"/>
<path d="M323.75 179.37H507.5C512.332 179.37 516.25 175.456 516.25 170.624C516.25 165.788 512.332 161.874 507.5 161.874H323.75C318.918 161.874 315 165.788 315 170.624C315 175.456 318.918 179.37 323.75 179.37Z" fill="black"/>
<path d="M323.75 135.62H507.5C512.332 135.62 516.25 131.702 516.25 126.87C516.25 122.038 512.332 118.12 507.5 118.12H323.75C318.918 118.12 315 122.038 315 126.87C315 131.702 318.918 135.62 323.75 135.62Z" fill="black"/>
<path d="M192.03 248.69C196.276 244.768 201.409 241.932 206.991 240.432C207.932 238.389 209.046 236.432 210.311 234.573L201.151 233.233C199.124 233.096 197.28 232.022 196.163 230.323L195.237 228.249C189.999 230.893 184.464 232.905 178.749 234.241L180.187 237.456C182.562 242.569 186.8 246.588 192.031 248.69L192.03 248.69Z" fill="black"/>
<path d="M315.59 217.46C316.746 218.39 317.859 219.382 318.914 220.429C324.738 219.902 330.602 220.827 335.984 223.12H507.504C512.336 223.12 516.254 219.202 516.254 214.37C516.254 209.538 512.336 205.62 507.504 205.62H323.754C320.875 205.601 318.172 207.011 316.539 209.378C314.906 211.749 314.551 214.777 315.594 217.46H315.59Z" fill="black"/>
<path d="M507.5 249.37H368.68C369.332 250.03 369.977 250.722 370.598 251.472V251.468C374.242 255.905 376.672 261.21 377.653 266.87H507.503C512.335 266.87 516.253 262.952 516.253 258.12C516.253 253.288 512.335 249.37 507.503 249.37L507.5 249.37Z" fill="black"/>
<path d="M328.11 435.45L328.075 524.958L284.345 499.958C281.653 498.419 278.349 498.419 275.657 499.958L231.876 525.11V435.446C225.247 434.4 219.118 431.275 214.376 426.525V525.111C214.365 528.154 215.158 531.142 216.681 533.778C218.204 536.411 220.4 538.591 223.04 540.099C225.705 541.661 228.736 542.489 231.822 542.501C234.911 542.509 237.947 541.7 240.619 540.15L280.002 517.629L319.385 540.145V540.149C322.056 541.696 325.092 542.509 328.181 542.501C331.271 542.493 334.299 541.661 336.963 540.099C339.603 538.591 341.799 536.411 343.322 533.775C344.845 531.142 345.638 528.153 345.627 525.11V426.524C340.885 431.282 334.748 434.407 328.111 435.45L328.11 435.45Z" fill="black"/>
<path d="M525 0H35C25.7227 0.011719 16.824 3.6992 10.262 10.262C3.7034 16.8245 0.012 25.719 0 35V297.49V297.486C0.011719 306.767 3.7031 315.662 10.262 322.224C16.8245 328.787 25.723 332.474 35 332.486H162.21C161.999 331.037 161.886 329.576 161.878 328.111C161.894 323.592 162.843 319.123 164.675 314.986H61.4049L71.4789 260.697C71.6078 259.861 73.3891 258.029 77.1117 257.56L125.135 250.545H125.131C133.115 249.639 140.076 244.693 143.565 237.451L145.002 234.232V234.236C139.287 232.9 133.752 230.888 128.514 228.244L127.588 230.322C126.471 232.017 124.628 233.091 122.6 233.228L74.7562 240.22C69.889 240.521 65.2523 242.396 61.5452 245.568C57.8421 248.736 55.2679 253.029 54.221 257.791L43.897 313.389C43.8032 313.916 43.7603 314.451 43.7642 314.987H35.0025C30.3619 314.983 25.9127 313.139 22.6355 309.858C19.3543 306.576 17.5066 302.127 17.5027 297.487V69.9967H542.503V297.487C542.499 302.127 540.651 306.576 537.37 309.858C534.093 313.139 529.643 314.983 525.003 314.987H395.333C397.165 319.123 398.114 323.592 398.13 328.112C398.122 329.576 398.009 331.037 397.798 332.487H525.008C534.285 332.479 543.184 328.787 549.746 322.225C556.304 315.662 559.996 306.768 560.008 297.491V35.0006C559.996 25.7194 556.305 16.8246 549.746 10.2626C543.183 3.7001 534.285 0.0125989 525.008 0.000598907L525 0ZM542.5 52.5H17.5V35C17.5039 30.3594 19.3516 25.9102 22.6328 22.629C25.9101 19.3478 30.3594 17.504 34.9998 17.5001H525C529.64 17.504 534.09 19.3478 537.367 22.629C540.648 25.9102 542.496 30.3595 542.5 35L542.5 52.5Z" fill="black"/>
<path d="M380.62 328.11C380.218 322.977 378.011 318.153 374.386 314.497C373.608 313.579 372.882 312.622 372.214 311.622C372.511 310.387 372.882 309.173 373.331 307.981C375.464 303.38 375.909 298.173 374.589 293.278C372.483 288.599 368.776 284.829 364.132 282.653C363.089 282.063 362.081 281.411 361.112 280.708C360.979 279.462 360.921 278.212 360.94 276.958C361.39 271.88 360.034 266.806 357.112 262.626C353.557 258.962 348.796 256.7 343.71 256.263C342.538 256.067 341.378 255.806 340.234 255.481C339.71 254.38 339.249 253.247 338.855 252.095C337.569 247.134 334.566 242.794 330.37 239.849C325.781 237.626 320.538 237.146 315.62 238.489C314.452 238.712 313.273 238.872 312.089 238.966C311.257 238.13 310.472 237.255 309.734 236.337C306.819 232.079 302.468 229.013 297.48 227.704C292.433 227.235 287.386 228.599 283.261 231.54C282.206 232.181 281.116 232.755 279.995 233.263C278.874 232.755 277.784 232.181 276.729 231.54C272.608 228.595 267.557 227.231 262.51 227.704C257.522 229.013 253.171 232.079 250.26 236.337C249.518 237.255 248.733 238.13 247.901 238.966C246.717 238.872 245.538 238.716 244.37 238.489C239.452 237.142 234.21 237.622 229.62 239.849C225.424 242.794 222.421 247.134 221.139 252.095C220.741 253.247 220.28 254.38 219.757 255.481C218.616 255.806 217.456 256.063 216.284 256.259C211.194 256.7 206.432 258.958 202.874 262.626C199.956 266.802 198.6 271.876 199.054 276.954C199.069 278.208 199.011 279.458 198.878 280.704C197.909 281.411 196.901 282.059 195.858 282.649C191.218 284.829 187.511 288.595 185.409 293.266C184.081 298.169 184.523 303.375 186.659 307.981C187.108 309.169 187.483 310.387 187.78 311.622C187.108 312.618 186.382 313.579 185.605 314.493C181.98 318.153 179.773 322.977 179.37 328.11C179.772 333.243 181.98 338.067 185.605 341.727C186.382 342.641 187.108 343.602 187.776 344.598C187.48 345.836 187.108 347.051 186.659 348.239C184.108 352.75 183.663 358.149 185.429 363.02C187.198 367.891 191.007 371.742 195.859 373.567C196.902 374.16 197.91 374.809 198.878 375.516C199.011 376.758 199.07 378.012 199.05 379.262C198.601 384.344 199.956 389.418 202.878 393.598C206.433 397.262 211.195 399.52 216.28 399.961C217.452 400.157 218.612 400.414 219.757 400.739C220.28 401.844 220.741 402.973 221.136 404.129C222.421 409.086 225.425 413.43 229.62 416.371C234.21 418.598 239.452 419.078 244.37 417.731C245.538 417.508 246.718 417.348 247.901 417.258C248.733 418.09 249.518 418.969 250.257 419.883C253.171 424.141 257.522 427.207 262.511 428.516C267.558 428.996 272.609 427.633 276.73 424.68C277.785 424.043 278.874 423.469 279.995 422.961C281.117 423.465 282.206 424.039 283.261 424.68C286.749 427.047 290.804 428.445 295.007 428.734C295.835 428.734 296.663 428.66 297.48 428.516C302.468 427.207 306.819 424.141 309.73 419.883C310.472 418.969 311.257 418.09 312.089 417.258C313.273 417.348 314.452 417.508 315.62 417.731C320.538 419.078 325.78 418.598 330.37 416.375C334.566 413.43 337.57 409.086 338.851 404.129C339.249 402.973 339.71 401.844 340.234 400.738C341.374 400.418 342.534 400.156 343.706 399.961C348.796 399.524 353.558 397.262 357.116 393.598C360.034 389.418 361.39 384.344 360.937 379.266C360.921 378.016 360.98 376.762 361.112 375.52C362.081 374.813 363.089 374.16 364.132 373.571C368.98 371.746 372.792 367.891 374.558 363.02C376.327 358.152 375.878 352.75 373.331 348.239C372.882 347.051 372.511 345.836 372.214 344.598C372.882 343.602 373.609 342.641 374.386 341.727C378.011 338.067 380.218 333.242 380.62 328.11L380.62 328.11ZM360.811 330.68V330.684C357.924 333.731 355.885 337.485 354.905 341.567C354.448 345.813 355.104 350.102 356.811 354.016C357.116 354.879 357.526 356.051 357.76 356.922C357.026 357.438 355.967 358.071 355.178 358.536C351.397 360.414 348.178 363.262 345.854 366.789C343.991 370.614 343.159 374.86 343.44 379.105C343.432 380.023 343.42 381.262 343.346 382.168C342.498 382.387 341.342 382.605 340.479 382.766C336.256 383.227 332.237 384.809 328.834 387.351C325.791 390.308 323.58 394.016 322.424 398.097C322.115 398.941 321.697 400.07 321.33 400.894C320.478 400.805 319.369 400.617 318.541 400.476C314.459 399.172 310.06 399.262 306.041 400.734C302.017 402.211 298.603 404.984 296.338 408.621C295.771 409.293 295.014 410.195 294.392 410.84C293.635 410.461 292.693 409.918 291.978 409.508V409.504C288.424 407.086 284.287 405.66 279.994 405.383C275.701 405.66 271.565 407.086 268.01 409.504C267.296 409.914 266.354 410.457 265.596 410.836C264.975 410.191 264.221 409.293 263.651 408.617V408.621C261.19 405.191 257.866 402.476 254.01 400.758C249.924 399.543 245.588 399.445 241.451 400.476C240.619 400.617 239.506 400.804 238.658 400.894C238.291 400.07 237.873 398.941 237.565 398.097C236.408 394.015 234.197 390.308 231.154 387.351C227.752 384.808 223.732 383.223 219.509 382.762C218.646 382.598 217.49 382.383 216.642 382.164C216.568 381.258 216.556 380.016 216.548 379.098C216.826 374.855 215.994 370.613 214.134 366.789C211.806 363.261 208.591 360.414 204.81 358.535C204.025 358.066 202.966 357.433 202.228 356.921C202.462 356.05 202.873 354.882 203.177 354.019V354.015C204.884 350.101 205.541 345.808 205.084 341.562C204.099 337.48 202.064 333.73 199.177 330.683C198.556 329.921 197.713 328.878 197.189 328.113C197.709 327.347 198.556 326.304 199.177 325.543V325.539C202.064 322.488 204.103 318.734 205.084 314.652C205.541 310.406 204.884 306.116 203.177 302.203C202.873 301.339 202.462 300.167 202.228 299.296C202.962 298.781 204.021 298.148 204.81 297.683C208.591 295.804 211.81 292.957 214.134 289.429C215.998 285.605 216.83 281.359 216.548 277.117C216.556 276.199 216.568 274.961 216.642 274.055C217.49 273.836 218.646 273.617 219.509 273.457C223.732 272.996 227.752 271.41 231.154 268.871C234.197 265.91 236.408 262.207 237.565 258.125C237.873 257.281 238.291 256.153 238.658 255.328C239.51 255.418 240.619 255.606 241.447 255.746V255.742C245.584 256.778 249.924 256.68 254.009 255.461C257.865 253.742 261.189 251.031 263.65 247.602C264.216 246.93 264.974 246.028 265.595 245.383C266.353 245.762 267.295 246.305 268.009 246.715C271.564 249.137 275.701 250.559 279.993 250.836C284.286 250.559 288.423 249.137 291.977 246.715C292.692 246.305 293.634 245.762 294.392 245.383C295.013 246.027 295.767 246.926 296.337 247.602C298.602 251.235 302.017 254.008 306.036 255.485C310.059 256.957 314.458 257.051 318.536 255.742C319.368 255.602 320.481 255.414 321.329 255.324C321.696 256.149 322.114 257.277 322.423 258.121V258.125C323.579 262.207 325.79 265.91 328.833 268.871C332.235 271.41 336.255 272.996 340.478 273.457C341.341 273.621 342.498 273.836 343.345 274.055C343.419 274.961 343.431 276.203 343.439 277.121C343.162 281.367 343.994 285.609 345.853 289.433C348.181 292.957 351.396 295.804 355.177 297.687C355.962 298.156 357.025 298.789 357.759 299.3C357.525 300.171 357.115 301.339 356.81 302.203C355.103 306.121 354.447 310.41 354.904 314.656C355.888 318.738 357.923 322.488 360.81 325.539C361.431 326.3 362.275 327.343 362.798 328.109C362.279 328.878 361.431 329.918 360.81 330.683L360.811 330.68Z" fill="black"/>
</svg>
