<?xml version="1.0" encoding="UTF-8"?>
<svg width="700pt" height="700pt" version="1.1" viewBox="0 0 700 700" xmlns="http://www.w3.org/2000/svg" xmlns:xlink="http://www.w3.org/1999/xlink">
 <defs>
  <symbol id="v" overflow="visible">
   <path d="m18.766-1.125c-0.96875 0.5-1.9805 0.875-3.0312 1.125-1.043 0.25781-2.1367 0.39062-3.2812 0.39062-3.3984 0-6.0898-0.94531-8.0781-2.8438-1.9922-1.9062-2.9844-4.4844-2.9844-7.7344 0-3.2578 0.99219-5.8359 2.9844-7.7344 1.9883-1.9062 4.6797-2.8594 8.0781-2.8594 1.1445 0 2.2383 0.13281 3.2812 0.39062 1.0508 0.25 2.0625 0.625 3.0312 1.125v4.2188c-0.98047-0.65625-1.9453-1.1406-2.8906-1.4531-0.94922-0.3125-1.9492-0.46875-3-0.46875-1.875 0-3.3516 0.60547-4.4219 1.8125-1.0742 1.1992-1.6094 2.8555-1.6094 4.9688 0 2.1055 0.53516 3.7617 1.6094 4.9688 1.0703 1.1992 2.5469 1.7969 4.4219 1.7969 1.0508 0 2.0508-0.14844 3-0.45312 0.94531-0.3125 1.9102-0.80078 2.8906-1.4688z"/>
  </symbol>
  <symbol id="b" overflow="visible">
   <path d="m13.734-11.141c-0.4375-0.19531-0.87109-0.34375-1.2969-0.4375-0.41797-0.10156-0.83984-0.15625-1.2656-0.15625-1.2617 0-2.2305 0.40625-2.9062 1.2188-0.67969 0.80469-1.0156 1.9531-1.0156 3.4531v7.0625h-4.8906v-15.312h4.8906v2.5156c0.625-1 1.3438-1.7266 2.1562-2.1875 0.82031-0.46875 1.8008-0.70312 2.9375-0.70312 0.16406 0 0.34375 0.011719 0.53125 0.03125 0.19531 0.011719 0.47656 0.039062 0.84375 0.078125z"/>
  </symbol>
  <symbol id="a" overflow="visible">
   <path d="m17.641-7.7031v1.4062h-11.453c0.125 1.1484 0.53906 2.0078 1.25 2.5781 0.70703 0.57422 1.7031 0.85938 2.9844 0.85938 1.0312 0 2.082-0.14844 3.1562-0.45312 1.082-0.3125 2.1914-0.77344 3.3281-1.3906v3.7656c-1.1562 0.4375-2.3125 0.76562-3.4688 0.98438-1.1562 0.22656-2.3125 0.34375-3.4688 0.34375-2.7734 0-4.9297-0.70312-6.4688-2.1094-1.5312-1.4062-2.2969-3.3789-2.2969-5.9219 0-2.5 0.75391-4.4609 2.2656-5.8906 1.5078-1.4375 3.582-2.1562 6.2188-2.1562 2.4062 0 4.332 0.73047 5.7812 2.1875 1.4453 1.4492 2.1719 3.3828 2.1719 5.7969zm-5.0312-1.625c0-0.92578-0.27344-1.6719-0.8125-2.2344-0.54297-0.57031-1.25-0.85938-2.125-0.85938-0.94922 0-1.7188 0.26562-2.3125 0.79688s-0.96484 1.2969-1.1094 2.2969z"/>
  </symbol>
  <symbol id="f" overflow="visible">
   <path d="m9.2188-6.8906c-1.0234 0-1.793 0.17188-2.3125 0.51562-0.51172 0.34375-0.76562 0.85547-0.76562 1.5312 0 0.625 0.20703 1.1172 0.625 1.4688 0.41406 0.34375 0.98828 0.51562 1.7188 0.51562 0.92578 0 1.7031-0.32812 2.3281-0.98438 0.63281-0.66406 0.95312-1.4922 0.95312-2.4844v-0.5625zm7.4688-1.8438v8.7344h-4.9219v-2.2656c-0.65625 0.92969-1.3984 1.6055-2.2188 2.0312-0.82422 0.41406-1.8242 0.625-3 0.625-1.5859 0-2.8711-0.45703-3.8594-1.375-0.99219-0.92578-1.4844-2.1289-1.4844-3.6094 0-1.7891 0.61328-3.1016 1.8438-3.9375 1.2383-0.84375 3.1797-1.2656 5.8281-1.2656h2.8906v-0.39062c0-0.76953-0.30859-1.332-0.92188-1.6875-0.61719-0.36328-1.5703-0.54688-2.8594-0.54688-1.0547 0-2.0312 0.10547-2.9375 0.3125-0.89844 0.21094-1.7305 0.52344-2.5 0.9375v-3.7344c1.0391-0.25 2.0859-0.44141 3.1406-0.57812 1.0625-0.13281 2.125-0.20312 3.1875-0.20312 2.7578 0 4.75 0.54688 5.9688 1.6406 1.2266 1.0859 1.8438 2.8555 1.8438 5.3125z"/>
  </symbol>
  <symbol id="c" overflow="visible">
   <path d="m7.7031-19.656v4.3438h5.0469v3.5h-5.0469v6.5c0 0.71094 0.14062 1.1875 0.42188 1.4375s0.83594 0.375 1.6719 0.375h2.5156v3.5h-4.1875c-1.9375 0-3.3125-0.39844-4.125-1.2031-0.80469-0.8125-1.2031-2.1797-1.2031-4.1094v-6.5h-2.4219v-3.5h2.4219v-4.3438z"/>
  </symbol>
  <symbol id="k" overflow="visible">
   <path d="m12.766-13.078v-8.2031h4.9219v21.281h-4.9219v-2.2188c-0.66797 0.90625-1.4062 1.5703-2.2188 1.9844s-1.7578 0.625-2.8281 0.625c-1.8867 0-3.4336-0.75-4.6406-2.25-1.2109-1.5-1.8125-3.4258-1.8125-5.7812 0-2.3633 0.60156-4.2969 1.8125-5.7969 1.207-1.5 2.7539-2.25 4.6406-2.25 1.0625 0 2 0.21484 2.8125 0.64062 0.82031 0.42969 1.5664 1.0859 2.2344 1.9688zm-3.2188 9.9219c1.0391 0 1.8359-0.37891 2.3906-1.1406 0.55078-0.76953 0.82812-1.8828 0.82812-3.3438 0-1.457-0.27734-2.5664-0.82812-3.3281-0.55469-0.76953-1.3516-1.1562-2.3906-1.1562-1.043 0-1.8398 0.38672-2.3906 1.1562-0.55469 0.76172-0.82812 1.8711-0.82812 3.3281 0 1.4609 0.27344 2.5742 0.82812 3.3438 0.55078 0.76172 1.3477 1.1406 2.3906 1.1406z"/>
  </symbol>
  <symbol id="e" overflow="visible">
   <path d="m10.5-3.1562c1.0508 0 1.8516-0.37891 2.4062-1.1406 0.55078-0.76953 0.82812-1.8828 0.82812-3.3438 0-1.457-0.27734-2.5664-0.82812-3.3281-0.55469-0.76953-1.3555-1.1562-2.4062-1.1562-1.0547 0-1.8594 0.38672-2.4219 1.1562-0.55469 0.77344-0.82812 1.8828-0.82812 3.3281 0 1.4492 0.27344 2.5586 0.82812 3.3281 0.5625 0.77344 1.3672 1.1562 2.4219 1.1562zm-3.25-9.9219c0.67578-0.88281 1.4219-1.5391 2.2344-1.9688 0.82031-0.42578 1.7656-0.64062 2.8281-0.64062 1.8945 0 3.4453 0.75 4.6562 2.25 1.207 1.5 1.8125 3.4336 1.8125 5.7969 0 2.3555-0.60547 4.2812-1.8125 5.7812-1.2109 1.5-2.7617 2.25-4.6562 2.25-1.0625 0-2.0078-0.21094-2.8281-0.625-0.8125-0.42578-1.5586-1.0859-2.2344-1.9844v2.2188h-4.8906v-21.281h4.8906z"/>
  </symbol>
  <symbol id="j" overflow="visible">
   <path d="m0.34375-15.312h4.8906l4.125 10.391 3.5-10.391h4.8906l-6.4375 16.766c-0.64844 1.6953-1.4023 2.8828-2.2656 3.5625-0.86719 0.6875-2 1.0312-3.4062 1.0312h-2.8438v-3.2188h1.5312c0.83203 0 1.4375-0.13672 1.8125-0.40625 0.38281-0.26172 0.67969-0.73047 0.89062-1.4062l0.14062-0.42188z"/>
  </symbol>
  <symbol id="i" overflow="visible">
   <path d="m2.5781-20.406h5.25v16.422h9.25v3.9844h-14.5z"/>
  </symbol>
  <symbol id="h" overflow="visible">
   <path d="m14.312-14.828v3.7188c-1.043-0.4375-2.0547-0.76562-3.0312-0.98438-0.98047-0.21875-1.9023-0.32812-2.7656-0.32812-0.92969 0-1.6211 0.11719-2.0781 0.34375-0.44922 0.23047-0.67188 0.58984-0.67188 1.0781 0 0.38672 0.17188 0.68359 0.51562 0.89062 0.34375 0.21094 0.95703 0.36719 1.8438 0.46875l0.85938 0.125c2.5078 0.32422 4.1953 0.85156 5.0625 1.5781 0.86328 0.73047 1.2969 1.8711 1.2969 3.4219 0 1.6367-0.60547 2.8672-1.8125 3.6875-1.1992 0.8125-2.9922 1.2188-5.375 1.2188-1.0234 0-2.0742-0.078125-3.1562-0.23438-1.0742-0.15625-2.1797-0.39453-3.3125-0.71875v-3.7188c0.96875 0.48047 1.9609 0.83984 2.9844 1.0781 1.0312 0.23047 2.0781 0.34375 3.1406 0.34375 0.95703 0 1.6758-0.12891 2.1562-0.39062 0.47656-0.26953 0.71875-0.66406 0.71875-1.1875 0-0.4375-0.16797-0.75781-0.5-0.96875-0.33594-0.21875-0.99609-0.38281-1.9844-0.5l-0.85938-0.10938c-2.1797-0.26953-3.7031-0.77344-4.5781-1.5156-0.875-0.73828-1.3125-1.8594-1.3125-3.3594 0-1.625 0.55078-2.8281 1.6562-3.6094 1.1133-0.78906 2.8203-1.1875 5.125-1.1875 0.89453 0 1.8359 0.074219 2.8281 0.21875 1 0.13672 2.082 0.35156 3.25 0.64062z"/>
  </symbol>
  <symbol id="u" overflow="visible">
   <path d="m2.5781-20.406h6.6875l4.6562 10.922 4.6719-10.922h6.6875v20.406h-4.9844v-14.938l-4.7031 11.016h-3.3281l-4.7031-11.016v14.938h-4.9844z"/>
  </symbol>
  <symbol id="t" overflow="visible">
   <path d="m2.3594-15.312h4.8906v15.312h-4.8906zm0-5.9688h4.8906v4h-4.8906z"/>
  </symbol>
  <symbol id="d" overflow="visible">
   <path d="m9.6406-12.188c-1.0859 0-1.9141 0.39062-2.4844 1.1719-0.57422 0.78125-0.85938 1.9062-0.85938 3.375s0.28516 2.5938 0.85938 3.375c0.57031 0.77344 1.3984 1.1562 2.4844 1.1562 1.0625 0 1.875-0.38281 2.4375-1.1562 0.57031-0.78125 0.85938-1.9062 0.85938-3.375s-0.28906-2.5938-0.85938-3.375c-0.5625-0.78125-1.375-1.1719-2.4375-1.1719zm0-3.5c2.6328 0 4.6914 0.71484 6.1719 2.1406 1.4766 1.418 2.2188 3.3867 2.2188 5.9062 0 2.5117-0.74219 4.4805-2.2188 5.9062-1.4805 1.418-3.5391 2.125-6.1719 2.125-2.6484 0-4.7148-0.70703-6.2031-2.125-1.4922-1.4258-2.2344-3.3945-2.2344-5.9062 0-2.5195 0.74219-4.4883 2.2344-5.9062 1.4883-1.4258 3.5547-2.1406 6.2031-2.1406z"/>
  </symbol>
  <symbol id="g" overflow="visible">
   <path d="m17.75-9.3281v9.3281h-4.9219v-7.1406c0-1.3203-0.03125-2.2344-0.09375-2.7344s-0.16797-0.86719-0.3125-1.1094c-0.1875-0.3125-0.44922-0.55469-0.78125-0.73438-0.32422-0.17578-0.69531-0.26562-1.1094-0.26562-1.0234 0-1.8242 0.39844-2.4062 1.1875-0.58594 0.78125-0.875 1.8711-0.875 3.2656v7.5312h-4.8906v-15.312h4.8906v2.2344c0.73828-0.88281 1.5195-1.5391 2.3438-1.9688 0.83203-0.42578 1.75-0.64062 2.75-0.64062 1.7695 0 3.1133 0.54688 4.0312 1.6406 0.91406 1.0859 1.375 2.6562 1.375 4.7188z"/>
  </symbol>
  <symbol id="s" overflow="visible">
   <path d="m12.422-21.281v3.2188h-2.7031c-0.6875 0-1.1719 0.125-1.4531 0.375-0.27344 0.25-0.40625 0.6875-0.40625 1.3125v1.0625h4.1875v3.5h-4.1875v11.812h-4.8906v-11.812h-2.4375v-3.5h2.4375v-1.0625c0-1.6641 0.46094-2.8984 1.3906-3.7031 0.92578-0.80078 2.3672-1.2031 4.3281-1.2031z"/>
  </symbol>
  <symbol id="r" overflow="visible">
   <path d="m16.547-12.766c0.61328-0.94531 1.3477-1.6719 2.2031-2.1719 0.85156-0.5 1.7891-0.75 2.8125-0.75 1.7578 0 3.0977 0.54688 4.0156 1.6406 0.92578 1.0859 1.3906 2.6562 1.3906 4.7188v9.3281h-4.9219v-7.9844-0.35938c0.007813-0.13281 0.015625-0.32031 0.015625-0.5625 0-1.082-0.16406-1.8633-0.48438-2.3438-0.3125-0.48828-0.82422-0.73438-1.5312-0.73438-0.92969 0-1.6484 0.38672-2.1562 1.1562-0.51172 0.76172-0.77344 1.8672-0.78125 3.3125v7.5156h-4.9219v-7.9844c0-1.6953-0.14844-2.7852-0.4375-3.2656-0.29297-0.48828-0.8125-0.73438-1.5625-0.73438-0.9375 0-1.6641 0.38672-2.1719 1.1562-0.51172 0.76172-0.76562 1.8594-0.76562 3.2969v7.5312h-4.9219v-15.312h4.9219v2.2344c0.60156-0.86328 1.2891-1.5156 2.0625-1.9531 0.78125-0.4375 1.6406-0.65625 2.5781-0.65625 1.0625 0 2 0.25781 2.8125 0.76562 0.8125 0.51172 1.4258 1.2305 1.8438 2.1562z"/>
  </symbol>
  <symbol id="q" overflow="visible">
   <path d="m17.75-9.3281v9.3281h-4.9219v-7.1094c0-1.3438-0.03125-2.2656-0.09375-2.7656s-0.16797-0.86719-0.3125-1.1094c-0.1875-0.3125-0.44922-0.55469-0.78125-0.73438-0.32422-0.17578-0.69531-0.26562-1.1094-0.26562-1.0234 0-1.8242 0.39844-2.4062 1.1875-0.58594 0.78125-0.875 1.8711-0.875 3.2656v7.5312h-4.8906v-21.281h4.8906v8.2031c0.73828-0.88281 1.5195-1.5391 2.3438-1.9688 0.83203-0.42578 1.75-0.64062 2.75-0.64062 1.7695 0 3.1133 0.54688 4.0312 1.6406 0.91406 1.0859 1.375 2.6562 1.375 4.7188z"/>
  </symbol>
  <symbol id="p" overflow="visible">
   <path d="m2.5781-20.406h5.875l7.4219 14v-14h4.9844v20.406h-5.875l-7.4219-14v14h-4.9844z"/>
  </symbol>
  <symbol id="o" overflow="visible">
   <path d="m2.1875-5.9688v-9.3438h4.9219v1.5312c0 0.83594-0.007813 1.875-0.015625 3.125-0.011719 1.25-0.015625 2.0859-0.015625 2.5 0 1.2422 0.03125 2.1328 0.09375 2.6719 0.070313 0.54297 0.17969 0.93359 0.32812 1.1719 0.20703 0.32422 0.47266 0.57422 0.79688 0.75 0.32031 0.16797 0.69141 0.25 1.1094 0.25 1.0195 0 1.8203-0.39062 2.4062-1.1719 0.58203-0.78125 0.875-1.8672 0.875-3.2656v-7.5625h4.8906v15.312h-4.8906v-2.2188c-0.74219 0.89844-1.5234 1.5586-2.3438 1.9844-0.82422 0.41406-1.7344 0.625-2.7344 0.625-1.7617 0-3.1055-0.53906-4.0312-1.625-0.92969-1.082-1.3906-2.6602-1.3906-4.7344z"/>
  </symbol>
  <symbol id="n" overflow="visible">
   <path d="m2.5781-20.406h8.7344c2.5938 0 4.582 0.57812 5.9688 1.7344 1.3945 1.1484 2.0938 2.7891 2.0938 4.9219 0 2.1367-0.69922 3.7812-2.0938 4.9375-1.3867 1.1562-3.375 1.7344-5.9688 1.7344h-3.4844v7.0781h-5.25zm5.25 3.8125v5.7031h2.9219c1.0195 0 1.8047-0.25 2.3594-0.75 0.5625-0.5 0.84375-1.2031 0.84375-2.1094 0-0.91406-0.28125-1.6172-0.84375-2.1094-0.55469-0.48828-1.3398-0.73438-2.3594-0.73438z"/>
  </symbol>
  <symbol id="m" overflow="visible">
   <path d="m2.3594-15.312h4.8906v15.031c0 2.0508-0.49609 3.6172-1.4844 4.7031-0.98047 1.082-2.4062 1.625-4.2812 1.625h-2.4219v-3.2188h0.85938c0.92578 0 1.5625-0.21094 1.9062-0.625 0.35156-0.41797 0.53125-1.2461 0.53125-2.4844zm0-5.9688h4.8906v4h-4.8906z"/>
  </symbol>
  <symbol id="l" overflow="visible">
   <path d="m14.719-14.828v3.9844c-0.65625-0.45703-1.3242-0.79688-2-1.0156-0.66797-0.21875-1.3594-0.32812-2.0781-0.32812-1.3672 0-2.4336 0.40234-3.2031 1.2031-0.76172 0.79297-1.1406 1.9062-1.1406 3.3438 0 1.4297 0.37891 2.543 1.1406 3.3438 0.76953 0.79297 1.8359 1.1875 3.2031 1.1875 0.75781 0 1.4844-0.10938 2.1719-0.32812 0.6875-0.22656 1.3203-0.56641 1.9062-1.0156v4c-0.76172 0.28125-1.5391 0.48828-2.3281 0.625-0.78125 0.14453-1.5742 0.21875-2.375 0.21875-2.7617 0-4.9219-0.70703-6.4844-2.125-1.5547-1.4141-2.3281-3.3828-2.3281-5.9062 0-2.5312 0.77344-4.5039 2.3281-5.9219 1.5625-1.4141 3.7227-2.125 6.4844-2.125 0.80078 0 1.5938 0.074219 2.375 0.21875 0.78125 0.13672 1.5547 0.35156 2.3281 0.64062z"/>
  </symbol>
 </defs>
 <g>
  <path d="m389.2 189c-3.8633 0-7 3.1328-7 7s3.1367 7 7 7h16.801c3.8672 0 7-3.1328 7-7s-3.1328-7-7-7z"/>
  <path d="m221.2 203h127.01c3.8672 0 7-3.1328 7-7s-3.1328-7-7-7h-127.01c-3.8633 0-7 3.1328-7 7s3.1367 7 7 7z"/>
  <path d="m221.2 264.15h106.4c3.8633 0 7-3.1328 7-7 0-3.8672-3.1367-7-7-7h-106.4c-3.8633 0-7 3.1328-7 7 0 3.8672 3.1367 7 7 7z"/>
  <path d="m284.82 311.25h-63.617c-3.8633 0-7 3.1367-7 7 0 3.8672 3.1367 7 7 7h63.617c3.8672 0 7-3.1328 7-7 0-3.8633-3.1328-7-7-7z"/>
  <path d="m284.82 372.4h-63.617c-3.8633 0-7 3.1367-7 7 0 3.8672 3.1367 7 7 7h63.617c3.8672 0 7-3.1328 7-7 0-3.8633-3.1328-7-7-7z"/>
  <path d="m524.05 320.1c-2.8555-8.6094-9.8008-15.242-18.535-17.699-6.0703-1.6016-10.199-7.2227-9.9102-13.496 0.33203-9.1133-3.8945-17.801-11.277-23.16-7.3828-5.3594-16.949-6.6914-25.516-3.5508-4.7656 1.6172-10.035 0.40625-13.609-3.1367v-204.51c0-8.9102-3.5391-17.457-9.8398-23.758-6.3008-6.3008-14.848-9.8398-23.758-9.8398h-102.26c-0.61328-0.003906-1.2227 0.10938-1.793 0.33594h-0.67188c-0.75781 0.32812-1.4414 0.80078-2.0156 1.3984l-128.18 128.52c-0.59766 0.57422-1.0703 1.2578-1.3984 2.0156-0.023438 0.22266-0.023438 0.44922 0 0.67188-0.22656 0.57031-0.33984 1.1797-0.33594 1.793-0.027343 0.14844-0.027343 0.30078 0 0.44922v236.88c0 8.9102 3.5391 17.457 9.8398 23.758 6.3008 6.3008 14.848 9.8438 23.758 9.8438h138.32c1.5898 6.0586 5.2305 11.383 10.305 15.062 2.1172 1.543 4.4609 2.7539 6.9453 3.5859v86.742c0.03125 2.4922 1.3789 4.7812 3.5391 6.0234 2.1602 1.2422 4.8164 1.25 6.9883 0.023437l46.426-26.992 46.367 26.992c1.0781 0.60938 2.2891 0.9375 3.5273 0.95312 1.2383-0.007812 2.4531-0.33594 3.5273-0.95312 2-1.3477 3.1641-3.6328 3.0781-6.0469v-86.742c2.4414-0.85937 4.7422-2.0664 6.832-3.5859 7.3633-5.3828 11.562-14.074 11.203-23.184-0.23437-6.1445 3.7695-11.652 9.6875-13.328 8.7695-2.4805 15.727-9.1719 18.547-17.836 2.8242-8.668 1.1367-18.172-4.4922-25.34-3.9531-4.9023-3.9531-11.898 0-16.801 5.5898-7.082 7.3477-16.461 4.7031-25.086zm-315.89 92.512c-5.1836 0-10.156-2.0586-13.82-5.7266-3.6641-3.6641-5.7227-8.6367-5.7227-13.82v-229.6h94.641l-0.003906 0.003906c8.9141 0 17.461-3.5391 23.762-9.8438 6.3008-6.3008 9.8398-14.848 9.8398-23.758v-33.039c0-3.8672-3.1328-7-7-7-3.8672 0-7 3.1328-7 7v32.816c0 5.1836-2.0586 10.152-5.7227 13.82-3.668 3.6641-8.6367 5.7227-13.82 5.7227h-84.504l103.99-104.38v15.902c0 3.8672 3.1328 7 7 7 3.8633 0 7-3.1328 7-7v-25.703h94.809c5.1836 0 10.152 2.0586 13.816 5.7227 3.668 3.668 5.7266 8.6367 5.7266 13.82v192.47c-3.2773-1.3164-6.7734-2-10.305-2.0156-9.1211-0.003906-17.645 4.5312-22.734 12.098-3.4258 5.1133-9.9062 7.2188-15.68 5.0938-8.5664-3.1094-18.117-1.7656-25.492 3.5859-7.3711 5.3555-11.605 14.02-11.301 23.125 0.29297 6.2578-3.8086 11.875-9.8555 13.496-8.6836 2.5664-15.535 9.2617-18.293 17.887-2.7578 8.6211-1.0664 18.051 4.5156 25.18 3.9531 4.9023 3.9531 11.898 0 16.801-5.6289 7.1602-7.3242 16.656-4.5117 25.32 2.8086 8.6641 9.75 15.359 18.512 17.855 3.7031 1.0625 6.7695 3.6758 8.3984 7.168zm255.41 107.24-39.199-22.961c-1.0781-0.60547-2.2891-0.93359-3.5273-0.94922-1.2383 0.003906-2.4531 0.33203-3.5273 0.94922l-39.199 22.961v-73.473c1.543-0.25781 3.0586-0.65234 4.5352-1.1758 5.7773-2.125 12.258-0.019531 15.68 5.0977 5.0547 7.6016 13.578 12.168 22.707 12.168s17.652-4.5664 22.707-12.168c3.4375-5.0977 9.9062-7.2031 15.684-5.0977 1.4727 0.52344 2.9922 0.91797 4.5352 1.1758zm44.801-149.24c2.875 3.4922 3.793 8.1992 2.4336 12.516-1.3555 4.3164-4.7969 7.6523-9.1523 8.875-5.8867 1.6758-11.043 5.2812-14.637 10.238-3.5938 4.9531-5.4219 10.973-5.1875 17.09 0.11328 4.4336-1.9883 8.6289-5.6016 11.199-3.6133 2.6172-8.293 3.2656-12.488 1.7383-5.6953-2.125-11.938-2.2812-17.734-0.44531-5.793 1.8359-10.809 5.5625-14.238 10.578-2.4727 3.7812-6.6875 6.0586-11.203 6.0586s-8.7266-2.2773-11.199-6.0586c-5.0664-7.5625-13.574-12.102-22.68-12.094-3.2109-0.019532-6.4023 0.54687-9.4062 1.6797-4.1953 1.5312-8.875 0.87891-12.488-1.7383-3.6133-2.5664-5.7148-6.7656-5.6016-11.199 0.20703-6.0391-1.6016-11.973-5.1406-16.871-3.5391-4.8945-8.6055-8.4766-14.402-10.176-4.2852-1.2188-7.6836-4.4883-9.0625-8.7227-1.3828-4.2344-0.56641-8.8789 2.1758-12.391 3.7695-4.7891 5.8164-10.703 5.8164-16.797 0-6.0977-2.0469-12.012-5.8164-16.801-2.7422-3.5117-3.5586-8.1562-2.1758-12.391 1.3789-4.2344 4.7773-7.5039 9.0625-8.7227 5.8906-1.668 11.051-5.2695 14.648-10.227 3.5977-4.957 5.418-10.98 5.1758-17.102-0.16016-4.4531 1.9062-8.6914 5.5117-11.312 3.6055-2.6172 8.2773-3.2656 12.465-1.7344 5.75 2.1172 12.043 2.2422 17.875 0.35547 5.8281-1.8906 10.852-5.6836 14.27-10.773 2.4531-3.8047 6.6719-6.1016 11.199-6.1016s8.7461 2.2969 11.199 6.1016c3.3984 5.0938 8.4141 8.8906 14.234 10.781 5.8242 1.8906 12.113 1.7617 17.852-0.36328 4.1875-1.5312 8.8594-0.88281 12.465 1.7344 3.6055 2.6211 5.6719 6.8594 5.5117 11.312-0.22266 6.1172 1.6094 12.129 5.1992 17.082 3.5938 4.9531 8.7422 8.5625 14.625 10.246 4.2852 1.2188 7.6836 4.4883 9.0664 8.7227 1.3789 4.2344 0.5625 8.8789-2.1758 12.391-3.707 4.75-5.7383 10.594-5.7812 16.621-0.039063 6.0273 1.9141 11.895 5.5547 16.699z"/>
  <path d="m484.73 334.6c-4.7266-15.598-14.961-28.945-28.797-37.559-13.836-8.6094-30.328-11.902-46.41-9.2578-3.4844 0.88281-5.7344 4.2695-5.1992 7.8242 0.53516 3.5586 3.6797 6.1289 7.2734 5.9492 2.9023-0.49219 5.8438-0.73438 8.7891-0.72656 9.7422 0.019531 19.297 2.7031 27.617 7.7695 8.3242 5.0664 15.098 12.312 19.594 20.957h-93.914c3.1953-6.1016 7.5508-11.523 12.824-15.957 3.0938-2.5078 3.5703-7.043 1.0625-10.137-2.5039-3.0938-7.043-3.5703-10.133-1.0664-9.9336 8.3945-17.203 19.504-20.914 31.969-3.707 12.465-3.6992 25.742 0.023437 38.199 6.2305 20.641 22.023 37.012 42.422 43.984 20.398 6.9727 42.906 3.6914 60.465-8.8164 17.562-12.504 28.02-32.703 28.098-54.262v-4.8711c-0.41797-4.7578-1.3594-9.4492-2.8008-14zm-12.148 29.398h-15.066c-3.8672 0-7 3.1328-7 7s3.1328 7 7 7h10.082c-5.9492 11.598-15.969 20.586-28.141 25.246-12.168 4.6602-25.633 4.6602-37.805 0-12.168-4.6602-22.191-13.648-28.137-25.246h54.879c3.8672 0 7-3.1328 7-7s-3.1328-7-7-7h-59.637c-0.66797-3.3203-1.0078-6.6953-1.0078-10.078-0.003906-3.4258 0.33594-6.8398 1.0078-10.195h103.82c0.62109 3.3633 0.94141 6.7734 0.94922 10.195-0.011718 3.3789-0.33203 6.7539-0.94922 10.078z"/>
  <path d="m357.17 154.95h36.008c4.2383-0.015625 8.2969-1.7109 11.289-4.7109 2.9922-3.0039 4.6719-7.0664 4.6719-11.305v-8.5117c0-3.8672-3.1328-7-7-7-3.8672 0-7 3.1328-7 7v8.5117c0 1.0898-0.87109 1.9844-1.9609 2.0156h-36.008c-1.0898-0.03125-1.9609-0.92578-1.9609-2.0156v-64.793c0-1.0938 0.87109-1.9844 1.9609-2.0156h36.008c1.0898 0.03125 1.9609 0.92188 1.9609 2.0156v25.199c0 3.8672 3.1328 7 7 7 3.8672 0 7-3.1328 7-7v-25.199c0-4.2383-1.6797-8.3047-4.6719-11.305-2.9922-3.0039-7.0508-4.6953-11.289-4.7109h-36.008c-4.2383 0.015625-8.2969 1.707-11.289 4.7109-2.9922 3-4.6719 7.0664-4.6719 11.305v64.793c0 4.2383 1.6797 8.3008 4.6719 11.305 2.9922 3 7.0508 4.6953 11.289 4.7109z"/>
  <use x="70" y="644" xlink:href="#v"/>
  <use x="90.550781" y="644" xlink:href="#b"/>
  <use x="104.359375" y="644" xlink:href="#a"/>
  <use x="123.347656" y="644" xlink:href="#f"/>
  <use x="142.242188" y="644" xlink:href="#c"/>
  <use x="155.628906" y="644" xlink:href="#a"/>
  <use x="174.617188" y="644" xlink:href="#k"/>
  <use x="204.410156" y="644" xlink:href="#e"/>
  <use x="224.453125" y="644" xlink:href="#j"/>
  <use x="252.453125" y="644" xlink:href="#i"/>
  <use x="270.292969" y="644" xlink:href="#f"/>
  <use x="289.1875" y="644" xlink:href="#b"/>
  <use x="302.996094" y="644" xlink:href="#h"/>
  <use x="329.410156" y="644" xlink:href="#u"/>
  <use x="357.273438" y="644" xlink:href="#a"/>
  <use x="376.265625" y="644" xlink:href="#t"/>
  <use x="385.859375" y="644" xlink:href="#a"/>
  <use x="404.851562" y="644" xlink:href="#b"/>
  <use x="418.660156" y="644" xlink:href="#c"/>
  <use x="432.046875" y="644" xlink:href="#d"/>
  <use x="451.28125" y="644" xlink:href="#e"/>
  <use x="471.324219" y="644" xlink:href="#a"/>
  <use x="490.3125" y="644" xlink:href="#b"/>
  <use x="504.125" y="644" xlink:href="#a"/>
  <use x="523.113281" y="644" xlink:href="#g"/>
  <use x="543.046875" y="644" xlink:href="#h"/>
  <use x="70" y="672" xlink:href="#s"/>
  <use x="82.183594" y="672" xlink:href="#b"/>
  <use x="95.992188" y="672" xlink:href="#d"/>
  <use x="115.226562" y="672" xlink:href="#r"/>
  <use x="154.152344" y="672" xlink:href="#c"/>
  <use x="167.535156" y="672" xlink:href="#q"/>
  <use x="187.46875" y="672" xlink:href="#a"/>
  <use x="216.207031" y="672" xlink:href="#p"/>
  <use x="239.640625" y="672" xlink:href="#d"/>
  <use x="258.878906" y="672" xlink:href="#o"/>
  <use x="278.8125" y="672" xlink:href="#g"/>
  <use x="308.492188" y="672" xlink:href="#n"/>
  <use x="329.015625" y="672" xlink:href="#b"/>
  <use x="342.820312" y="672" xlink:href="#d"/>
  <use x="362.058594" y="672" xlink:href="#m"/>
  <use x="371.65625" y="672" xlink:href="#a"/>
  <use x="390.648438" y="672" xlink:href="#l"/>
  <use x="407.242188" y="672" xlink:href="#c"/>
 </g>
</svg>
